G04 #@! TF.GenerationSoftware,KiCad,Pcbnew,8.0.6-8.0.6-0~ubuntu24.10.1*
G04 #@! TF.CreationDate,2024-10-17T08:48:07-07:00*
G04 #@! TF.ProjectId,kim1breakout,6b696d31-6272-4656-916b-6f75742e6b69,1.3*
G04 #@! TF.SameCoordinates,Original*
G04 #@! TF.FileFunction,Paste,Bot*
G04 #@! TF.FilePolarity,Positive*
%FSLAX46Y46*%
G04 Gerber Fmt 4.6, Leading zero omitted, Abs format (unit mm)*
G04 Created by KiCad (PCBNEW 8.0.6-8.0.6-0~ubuntu24.10.1) date 2024-10-17 08:48:07*
%MOMM*%
%LPD*%
G01*
G04 APERTURE LIST*
G04 Aperture macros list*
%AMRoundRect*
0 Rectangle with rounded corners*
0 $1 Rounding radius*
0 $2 $3 $4 $5 $6 $7 $8 $9 X,Y pos of 4 corners*
0 Add a 4 corners polygon primitive as box body*
4,1,4,$2,$3,$4,$5,$6,$7,$8,$9,$2,$3,0*
0 Add four circle primitives for the rounded corners*
1,1,$1+$1,$2,$3*
1,1,$1+$1,$4,$5*
1,1,$1+$1,$6,$7*
1,1,$1+$1,$8,$9*
0 Add four rect primitives between the rounded corners*
20,1,$1+$1,$2,$3,$4,$5,0*
20,1,$1+$1,$4,$5,$6,$7,0*
20,1,$1+$1,$6,$7,$8,$9,0*
20,1,$1+$1,$8,$9,$2,$3,0*%
G04 Aperture macros list end*
%ADD10RoundRect,0.500000X-3.250000X-0.500000X3.250000X-0.500000X3.250000X0.500000X-3.250000X0.500000X0*%
G04 APERTURE END LIST*
D10*
G04 #@! TO.C,J1*
X106100000Y-57420000D03*
X106100000Y-61380000D03*
X106100000Y-65340000D03*
X106100000Y-69300000D03*
X106100000Y-73260000D03*
X106100000Y-77220000D03*
X106100000Y-81180000D03*
X106100000Y-85140000D03*
X106100000Y-89100000D03*
X106100000Y-93060000D03*
X106100000Y-97020000D03*
X106100000Y-100980000D03*
X106100000Y-104940000D03*
X106100000Y-108900000D03*
X106100000Y-112860000D03*
X106100000Y-116820000D03*
X106100000Y-120780000D03*
X106100000Y-124740000D03*
X106100000Y-128700000D03*
X106100000Y-132660000D03*
X106100000Y-136620000D03*
X106100000Y-140580000D03*
G04 #@! TD*
G04 #@! TO.C,J2*
X184800000Y-57360000D03*
X184800000Y-61320000D03*
X184800000Y-65280000D03*
X184800000Y-69240000D03*
X184800000Y-73200000D03*
X184800000Y-77160000D03*
X184800000Y-81120000D03*
X184800000Y-85080000D03*
X184800000Y-89040000D03*
X184800000Y-93000000D03*
X184800000Y-96960000D03*
X184800000Y-100920000D03*
X184800000Y-104880000D03*
X184800000Y-108840000D03*
X184800000Y-112800000D03*
X184800000Y-116760000D03*
X184800000Y-120720000D03*
X184800000Y-124680000D03*
X184800000Y-128640000D03*
X184800000Y-132600000D03*
X184800000Y-136560000D03*
X184800000Y-140520000D03*
G04 #@! TD*
M02*
