G04 #@! TF.GenerationSoftware,KiCad,Pcbnew,8.0.6-8.0.6-0~ubuntu24.10.1*
G04 #@! TF.CreationDate,2024-10-17T08:48:07-07:00*
G04 #@! TF.ProjectId,kim1breakout,6b696d31-6272-4656-916b-6f75742e6b69,1.3*
G04 #@! TF.SameCoordinates,Original*
G04 #@! TF.FileFunction,Legend,Bot*
G04 #@! TF.FilePolarity,Positive*
%FSLAX46Y46*%
G04 Gerber Fmt 4.6, Leading zero omitted, Abs format (unit mm)*
G04 Created by KiCad (PCBNEW 8.0.6-8.0.6-0~ubuntu24.10.1) date 2024-10-17 08:48:07*
%MOMM*%
%LPD*%
G01*
G04 APERTURE LIST*
%ADD10C,0.100000*%
%ADD11C,0.300000*%
%ADD12C,0.125000*%
G04 APERTURE END LIST*
D10*
X139591353Y-87072419D02*
X138924687Y-87072419D01*
X138924687Y-87072419D02*
X139353258Y-88072419D01*
X151596115Y-87972419D02*
X151596115Y-86972419D01*
X151596115Y-87448609D02*
X151024687Y-87448609D01*
X151024687Y-87972419D02*
X151024687Y-86972419D01*
X139543734Y-125267657D02*
X139496115Y-125220038D01*
X139496115Y-125220038D02*
X139400877Y-125172419D01*
X139400877Y-125172419D02*
X139162782Y-125172419D01*
X139162782Y-125172419D02*
X139067544Y-125220038D01*
X139067544Y-125220038D02*
X139019925Y-125267657D01*
X139019925Y-125267657D02*
X138972306Y-125362895D01*
X138972306Y-125362895D02*
X138972306Y-125458133D01*
X138972306Y-125458133D02*
X139019925Y-125600990D01*
X139019925Y-125600990D02*
X139591353Y-126172419D01*
X139591353Y-126172419D02*
X138972306Y-126172419D01*
X138591353Y-125267657D02*
X138543734Y-125220038D01*
X138543734Y-125220038D02*
X138448496Y-125172419D01*
X138448496Y-125172419D02*
X138210401Y-125172419D01*
X138210401Y-125172419D02*
X138115163Y-125220038D01*
X138115163Y-125220038D02*
X138067544Y-125267657D01*
X138067544Y-125267657D02*
X138019925Y-125362895D01*
X138019925Y-125362895D02*
X138019925Y-125458133D01*
X138019925Y-125458133D02*
X138067544Y-125600990D01*
X138067544Y-125600990D02*
X138638972Y-126172419D01*
X138638972Y-126172419D02*
X138019925Y-126172419D01*
X151119925Y-95472419D02*
X151596115Y-95472419D01*
X151596115Y-95472419D02*
X151596115Y-94472419D01*
X139067544Y-79805752D02*
X139067544Y-80472419D01*
X139305639Y-79424800D02*
X139543734Y-80139085D01*
X139543734Y-80139085D02*
X138924687Y-80139085D01*
X151596115Y-98072419D02*
X151596115Y-97072419D01*
X151596115Y-97072419D02*
X151262782Y-97786704D01*
X151262782Y-97786704D02*
X150929449Y-97072419D01*
X150929449Y-97072419D02*
X150929449Y-98072419D01*
X151405639Y-122996228D02*
X151405639Y-123472419D01*
X151738972Y-122472419D02*
X151405639Y-122996228D01*
X151405639Y-122996228D02*
X151072306Y-122472419D01*
X151262782Y-84848609D02*
X151596115Y-84848609D01*
X151596115Y-85372419D02*
X151596115Y-84372419D01*
X151596115Y-84372419D02*
X151119925Y-84372419D01*
X138972306Y-110872419D02*
X139543734Y-110872419D01*
X139258020Y-110872419D02*
X139258020Y-109872419D01*
X139258020Y-109872419D02*
X139353258Y-110015276D01*
X139353258Y-110015276D02*
X139448496Y-110110514D01*
X139448496Y-110110514D02*
X139543734Y-110158133D01*
X138115163Y-109872419D02*
X138305639Y-109872419D01*
X138305639Y-109872419D02*
X138400877Y-109920038D01*
X138400877Y-109920038D02*
X138448496Y-109967657D01*
X138448496Y-109967657D02*
X138543734Y-110110514D01*
X138543734Y-110110514D02*
X138591353Y-110300990D01*
X138591353Y-110300990D02*
X138591353Y-110681942D01*
X138591353Y-110681942D02*
X138543734Y-110777180D01*
X138543734Y-110777180D02*
X138496115Y-110824800D01*
X138496115Y-110824800D02*
X138400877Y-110872419D01*
X138400877Y-110872419D02*
X138210401Y-110872419D01*
X138210401Y-110872419D02*
X138115163Y-110824800D01*
X138115163Y-110824800D02*
X138067544Y-110777180D01*
X138067544Y-110777180D02*
X138019925Y-110681942D01*
X138019925Y-110681942D02*
X138019925Y-110443847D01*
X138019925Y-110443847D02*
X138067544Y-110348609D01*
X138067544Y-110348609D02*
X138115163Y-110300990D01*
X138115163Y-110300990D02*
X138210401Y-110253371D01*
X138210401Y-110253371D02*
X138400877Y-110253371D01*
X138400877Y-110253371D02*
X138496115Y-110300990D01*
X138496115Y-110300990D02*
X138543734Y-110348609D01*
X138543734Y-110348609D02*
X138591353Y-110443847D01*
X139019925Y-81972419D02*
X139496115Y-81972419D01*
X139496115Y-81972419D02*
X139543734Y-82448609D01*
X139543734Y-82448609D02*
X139496115Y-82400990D01*
X139496115Y-82400990D02*
X139400877Y-82353371D01*
X139400877Y-82353371D02*
X139162782Y-82353371D01*
X139162782Y-82353371D02*
X139067544Y-82400990D01*
X139067544Y-82400990D02*
X139019925Y-82448609D01*
X139019925Y-82448609D02*
X138972306Y-82543847D01*
X138972306Y-82543847D02*
X138972306Y-82781942D01*
X138972306Y-82781942D02*
X139019925Y-82877180D01*
X139019925Y-82877180D02*
X139067544Y-82924800D01*
X139067544Y-82924800D02*
X139162782Y-82972419D01*
X139162782Y-82972419D02*
X139400877Y-82972419D01*
X139400877Y-82972419D02*
X139496115Y-82924800D01*
X139496115Y-82924800D02*
X139543734Y-82877180D01*
X151543734Y-72586704D02*
X151067544Y-72586704D01*
X151638972Y-72872419D02*
X151305639Y-71872419D01*
X151305639Y-71872419D02*
X150972306Y-72872419D01*
X151691353Y-117472419D02*
X151453258Y-118472419D01*
X151453258Y-118472419D02*
X151262782Y-117758133D01*
X151262782Y-117758133D02*
X151072306Y-118472419D01*
X151072306Y-118472419D02*
X150834211Y-117472419D01*
X151596115Y-80472419D02*
X151596115Y-79472419D01*
X151596115Y-79472419D02*
X151358020Y-79472419D01*
X151358020Y-79472419D02*
X151215163Y-79520038D01*
X151215163Y-79520038D02*
X151119925Y-79615276D01*
X151119925Y-79615276D02*
X151072306Y-79710514D01*
X151072306Y-79710514D02*
X151024687Y-79900990D01*
X151024687Y-79900990D02*
X151024687Y-80043847D01*
X151024687Y-80043847D02*
X151072306Y-80234323D01*
X151072306Y-80234323D02*
X151119925Y-80329561D01*
X151119925Y-80329561D02*
X151215163Y-80424800D01*
X151215163Y-80424800D02*
X151358020Y-80472419D01*
X151358020Y-80472419D02*
X151596115Y-80472419D01*
D11*
X125445489Y-56915114D02*
X125231203Y-56986542D01*
X125231203Y-56986542D02*
X125159774Y-57057971D01*
X125159774Y-57057971D02*
X125088346Y-57200828D01*
X125088346Y-57200828D02*
X125088346Y-57415114D01*
X125088346Y-57415114D02*
X125159774Y-57557971D01*
X125159774Y-57557971D02*
X125231203Y-57629400D01*
X125231203Y-57629400D02*
X125374060Y-57700828D01*
X125374060Y-57700828D02*
X125945489Y-57700828D01*
X125945489Y-57700828D02*
X125945489Y-56200828D01*
X125945489Y-56200828D02*
X125445489Y-56200828D01*
X125445489Y-56200828D02*
X125302632Y-56272257D01*
X125302632Y-56272257D02*
X125231203Y-56343685D01*
X125231203Y-56343685D02*
X125159774Y-56486542D01*
X125159774Y-56486542D02*
X125159774Y-56629400D01*
X125159774Y-56629400D02*
X125231203Y-56772257D01*
X125231203Y-56772257D02*
X125302632Y-56843685D01*
X125302632Y-56843685D02*
X125445489Y-56915114D01*
X125445489Y-56915114D02*
X125945489Y-56915114D01*
X124159774Y-56200828D02*
X123874060Y-56200828D01*
X123874060Y-56200828D02*
X123731203Y-56272257D01*
X123731203Y-56272257D02*
X123588346Y-56415114D01*
X123588346Y-56415114D02*
X123516917Y-56700828D01*
X123516917Y-56700828D02*
X123516917Y-57200828D01*
X123516917Y-57200828D02*
X123588346Y-57486542D01*
X123588346Y-57486542D02*
X123731203Y-57629400D01*
X123731203Y-57629400D02*
X123874060Y-57700828D01*
X123874060Y-57700828D02*
X124159774Y-57700828D01*
X124159774Y-57700828D02*
X124302632Y-57629400D01*
X124302632Y-57629400D02*
X124445489Y-57486542D01*
X124445489Y-57486542D02*
X124516917Y-57200828D01*
X124516917Y-57200828D02*
X124516917Y-56700828D01*
X124516917Y-56700828D02*
X124445489Y-56415114D01*
X124445489Y-56415114D02*
X124302632Y-56272257D01*
X124302632Y-56272257D02*
X124159774Y-56200828D01*
X123088345Y-56200828D02*
X122231203Y-56200828D01*
X122659774Y-57700828D02*
X122659774Y-56200828D01*
X121945488Y-56200828D02*
X121088346Y-56200828D01*
X121516917Y-57700828D02*
X121516917Y-56200828D01*
X120302631Y-56200828D02*
X120016917Y-56200828D01*
X120016917Y-56200828D02*
X119874060Y-56272257D01*
X119874060Y-56272257D02*
X119731203Y-56415114D01*
X119731203Y-56415114D02*
X119659774Y-56700828D01*
X119659774Y-56700828D02*
X119659774Y-57200828D01*
X119659774Y-57200828D02*
X119731203Y-57486542D01*
X119731203Y-57486542D02*
X119874060Y-57629400D01*
X119874060Y-57629400D02*
X120016917Y-57700828D01*
X120016917Y-57700828D02*
X120302631Y-57700828D01*
X120302631Y-57700828D02*
X120445489Y-57629400D01*
X120445489Y-57629400D02*
X120588346Y-57486542D01*
X120588346Y-57486542D02*
X120659774Y-57200828D01*
X120659774Y-57200828D02*
X120659774Y-56700828D01*
X120659774Y-56700828D02*
X120588346Y-56415114D01*
X120588346Y-56415114D02*
X120445489Y-56272257D01*
X120445489Y-56272257D02*
X120302631Y-56200828D01*
X119016917Y-57700828D02*
X119016917Y-56200828D01*
X119016917Y-56200828D02*
X118516917Y-57272257D01*
X118516917Y-57272257D02*
X118016917Y-56200828D01*
X118016917Y-56200828D02*
X118016917Y-57700828D01*
D10*
X138972306Y-103172419D02*
X139543734Y-103172419D01*
X139258020Y-103172419D02*
X139258020Y-102172419D01*
X139258020Y-102172419D02*
X139353258Y-102315276D01*
X139353258Y-102315276D02*
X139448496Y-102410514D01*
X139448496Y-102410514D02*
X139543734Y-102458133D01*
X138638972Y-102172419D02*
X138019925Y-102172419D01*
X138019925Y-102172419D02*
X138353258Y-102553371D01*
X138353258Y-102553371D02*
X138210401Y-102553371D01*
X138210401Y-102553371D02*
X138115163Y-102600990D01*
X138115163Y-102600990D02*
X138067544Y-102648609D01*
X138067544Y-102648609D02*
X138019925Y-102743847D01*
X138019925Y-102743847D02*
X138019925Y-102981942D01*
X138019925Y-102981942D02*
X138067544Y-103077180D01*
X138067544Y-103077180D02*
X138115163Y-103124800D01*
X138115163Y-103124800D02*
X138210401Y-103172419D01*
X138210401Y-103172419D02*
X138496115Y-103172419D01*
X138496115Y-103172419D02*
X138591353Y-103124800D01*
X138591353Y-103124800D02*
X138638972Y-103077180D01*
X151024687Y-77677180D02*
X151072306Y-77724800D01*
X151072306Y-77724800D02*
X151215163Y-77772419D01*
X151215163Y-77772419D02*
X151310401Y-77772419D01*
X151310401Y-77772419D02*
X151453258Y-77724800D01*
X151453258Y-77724800D02*
X151548496Y-77629561D01*
X151548496Y-77629561D02*
X151596115Y-77534323D01*
X151596115Y-77534323D02*
X151643734Y-77343847D01*
X151643734Y-77343847D02*
X151643734Y-77200990D01*
X151643734Y-77200990D02*
X151596115Y-77010514D01*
X151596115Y-77010514D02*
X151548496Y-76915276D01*
X151548496Y-76915276D02*
X151453258Y-76820038D01*
X151453258Y-76820038D02*
X151310401Y-76772419D01*
X151310401Y-76772419D02*
X151215163Y-76772419D01*
X151215163Y-76772419D02*
X151072306Y-76820038D01*
X151072306Y-76820038D02*
X151024687Y-76867657D01*
X151262782Y-74748609D02*
X151119925Y-74796228D01*
X151119925Y-74796228D02*
X151072306Y-74843847D01*
X151072306Y-74843847D02*
X151024687Y-74939085D01*
X151024687Y-74939085D02*
X151024687Y-75081942D01*
X151024687Y-75081942D02*
X151072306Y-75177180D01*
X151072306Y-75177180D02*
X151119925Y-75224800D01*
X151119925Y-75224800D02*
X151215163Y-75272419D01*
X151215163Y-75272419D02*
X151596115Y-75272419D01*
X151596115Y-75272419D02*
X151596115Y-74272419D01*
X151596115Y-74272419D02*
X151262782Y-74272419D01*
X151262782Y-74272419D02*
X151167544Y-74320038D01*
X151167544Y-74320038D02*
X151119925Y-74367657D01*
X151119925Y-74367657D02*
X151072306Y-74462895D01*
X151072306Y-74462895D02*
X151072306Y-74558133D01*
X151072306Y-74558133D02*
X151119925Y-74653371D01*
X151119925Y-74653371D02*
X151167544Y-74700990D01*
X151167544Y-74700990D02*
X151262782Y-74748609D01*
X151262782Y-74748609D02*
X151596115Y-74748609D01*
X151310401Y-89372419D02*
X151310401Y-90086704D01*
X151310401Y-90086704D02*
X151358020Y-90229561D01*
X151358020Y-90229561D02*
X151453258Y-90324800D01*
X151453258Y-90324800D02*
X151596115Y-90372419D01*
X151596115Y-90372419D02*
X151691353Y-90372419D01*
X138972306Y-118572419D02*
X139543734Y-118572419D01*
X139258020Y-118572419D02*
X139258020Y-117572419D01*
X139258020Y-117572419D02*
X139353258Y-117715276D01*
X139353258Y-117715276D02*
X139448496Y-117810514D01*
X139448496Y-117810514D02*
X139543734Y-117858133D01*
X138496115Y-118572419D02*
X138305639Y-118572419D01*
X138305639Y-118572419D02*
X138210401Y-118524800D01*
X138210401Y-118524800D02*
X138162782Y-118477180D01*
X138162782Y-118477180D02*
X138067544Y-118334323D01*
X138067544Y-118334323D02*
X138019925Y-118143847D01*
X138019925Y-118143847D02*
X138019925Y-117762895D01*
X138019925Y-117762895D02*
X138067544Y-117667657D01*
X138067544Y-117667657D02*
X138115163Y-117620038D01*
X138115163Y-117620038D02*
X138210401Y-117572419D01*
X138210401Y-117572419D02*
X138400877Y-117572419D01*
X138400877Y-117572419D02*
X138496115Y-117620038D01*
X138496115Y-117620038D02*
X138543734Y-117667657D01*
X138543734Y-117667657D02*
X138591353Y-117762895D01*
X138591353Y-117762895D02*
X138591353Y-118000990D01*
X138591353Y-118000990D02*
X138543734Y-118096228D01*
X138543734Y-118096228D02*
X138496115Y-118143847D01*
X138496115Y-118143847D02*
X138400877Y-118191466D01*
X138400877Y-118191466D02*
X138210401Y-118191466D01*
X138210401Y-118191466D02*
X138115163Y-118143847D01*
X138115163Y-118143847D02*
X138067544Y-118096228D01*
X138067544Y-118096228D02*
X138019925Y-118000990D01*
X138972306Y-105772419D02*
X139543734Y-105772419D01*
X139258020Y-105772419D02*
X139258020Y-104772419D01*
X139258020Y-104772419D02*
X139353258Y-104915276D01*
X139353258Y-104915276D02*
X139448496Y-105010514D01*
X139448496Y-105010514D02*
X139543734Y-105058133D01*
X138115163Y-105105752D02*
X138115163Y-105772419D01*
X138353258Y-104724800D02*
X138591353Y-105439085D01*
X138591353Y-105439085D02*
X137972306Y-105439085D01*
X139591353Y-76872419D02*
X138972306Y-76872419D01*
X138972306Y-76872419D02*
X139305639Y-77253371D01*
X139305639Y-77253371D02*
X139162782Y-77253371D01*
X139162782Y-77253371D02*
X139067544Y-77300990D01*
X139067544Y-77300990D02*
X139019925Y-77348609D01*
X139019925Y-77348609D02*
X138972306Y-77443847D01*
X138972306Y-77443847D02*
X138972306Y-77681942D01*
X138972306Y-77681942D02*
X139019925Y-77777180D01*
X139019925Y-77777180D02*
X139067544Y-77824800D01*
X139067544Y-77824800D02*
X139162782Y-77872419D01*
X139162782Y-77872419D02*
X139448496Y-77872419D01*
X139448496Y-77872419D02*
X139543734Y-77824800D01*
X139543734Y-77824800D02*
X139591353Y-77777180D01*
X151596115Y-100572419D02*
X151596115Y-99572419D01*
X151596115Y-99572419D02*
X151024687Y-100572419D01*
X151024687Y-100572419D02*
X151024687Y-99572419D01*
X139353258Y-89900990D02*
X139448496Y-89853371D01*
X139448496Y-89853371D02*
X139496115Y-89805752D01*
X139496115Y-89805752D02*
X139543734Y-89710514D01*
X139543734Y-89710514D02*
X139543734Y-89662895D01*
X139543734Y-89662895D02*
X139496115Y-89567657D01*
X139496115Y-89567657D02*
X139448496Y-89520038D01*
X139448496Y-89520038D02*
X139353258Y-89472419D01*
X139353258Y-89472419D02*
X139162782Y-89472419D01*
X139162782Y-89472419D02*
X139067544Y-89520038D01*
X139067544Y-89520038D02*
X139019925Y-89567657D01*
X139019925Y-89567657D02*
X138972306Y-89662895D01*
X138972306Y-89662895D02*
X138972306Y-89710514D01*
X138972306Y-89710514D02*
X139019925Y-89805752D01*
X139019925Y-89805752D02*
X139067544Y-89853371D01*
X139067544Y-89853371D02*
X139162782Y-89900990D01*
X139162782Y-89900990D02*
X139353258Y-89900990D01*
X139353258Y-89900990D02*
X139448496Y-89948609D01*
X139448496Y-89948609D02*
X139496115Y-89996228D01*
X139496115Y-89996228D02*
X139543734Y-90091466D01*
X139543734Y-90091466D02*
X139543734Y-90281942D01*
X139543734Y-90281942D02*
X139496115Y-90377180D01*
X139496115Y-90377180D02*
X139448496Y-90424800D01*
X139448496Y-90424800D02*
X139353258Y-90472419D01*
X139353258Y-90472419D02*
X139162782Y-90472419D01*
X139162782Y-90472419D02*
X139067544Y-90424800D01*
X139067544Y-90424800D02*
X139019925Y-90377180D01*
X139019925Y-90377180D02*
X138972306Y-90281942D01*
X138972306Y-90281942D02*
X138972306Y-90091466D01*
X138972306Y-90091466D02*
X139019925Y-89996228D01*
X139019925Y-89996228D02*
X139067544Y-89948609D01*
X139067544Y-89948609D02*
X139162782Y-89900990D01*
X151596115Y-93072419D02*
X151596115Y-92072419D01*
X151024687Y-93072419D02*
X151453258Y-92500990D01*
X151024687Y-92072419D02*
X151596115Y-92643847D01*
X138972306Y-108372419D02*
X139543734Y-108372419D01*
X139258020Y-108372419D02*
X139258020Y-107372419D01*
X139258020Y-107372419D02*
X139353258Y-107515276D01*
X139353258Y-107515276D02*
X139448496Y-107610514D01*
X139448496Y-107610514D02*
X139543734Y-107658133D01*
X138067544Y-107372419D02*
X138543734Y-107372419D01*
X138543734Y-107372419D02*
X138591353Y-107848609D01*
X138591353Y-107848609D02*
X138543734Y-107800990D01*
X138543734Y-107800990D02*
X138448496Y-107753371D01*
X138448496Y-107753371D02*
X138210401Y-107753371D01*
X138210401Y-107753371D02*
X138115163Y-107800990D01*
X138115163Y-107800990D02*
X138067544Y-107848609D01*
X138067544Y-107848609D02*
X138019925Y-107943847D01*
X138019925Y-107943847D02*
X138019925Y-108181942D01*
X138019925Y-108181942D02*
X138067544Y-108277180D01*
X138067544Y-108277180D02*
X138115163Y-108324800D01*
X138115163Y-108324800D02*
X138210401Y-108372419D01*
X138210401Y-108372419D02*
X138448496Y-108372419D01*
X138448496Y-108372419D02*
X138543734Y-108324800D01*
X138543734Y-108324800D02*
X138591353Y-108277180D01*
X151738972Y-114772419D02*
X151405639Y-115772419D01*
X151405639Y-115772419D02*
X151072306Y-114772419D01*
X139543734Y-122667657D02*
X139496115Y-122620038D01*
X139496115Y-122620038D02*
X139400877Y-122572419D01*
X139400877Y-122572419D02*
X139162782Y-122572419D01*
X139162782Y-122572419D02*
X139067544Y-122620038D01*
X139067544Y-122620038D02*
X139019925Y-122667657D01*
X139019925Y-122667657D02*
X138972306Y-122762895D01*
X138972306Y-122762895D02*
X138972306Y-122858133D01*
X138972306Y-122858133D02*
X139019925Y-123000990D01*
X139019925Y-123000990D02*
X139591353Y-123572419D01*
X139591353Y-123572419D02*
X138972306Y-123572419D01*
X138019925Y-123572419D02*
X138591353Y-123572419D01*
X138305639Y-123572419D02*
X138305639Y-122572419D01*
X138305639Y-122572419D02*
X138400877Y-122715276D01*
X138400877Y-122715276D02*
X138496115Y-122810514D01*
X138496115Y-122810514D02*
X138591353Y-122858133D01*
X139543734Y-74367657D02*
X139496115Y-74320038D01*
X139496115Y-74320038D02*
X139400877Y-74272419D01*
X139400877Y-74272419D02*
X139162782Y-74272419D01*
X139162782Y-74272419D02*
X139067544Y-74320038D01*
X139067544Y-74320038D02*
X139019925Y-74367657D01*
X139019925Y-74367657D02*
X138972306Y-74462895D01*
X138972306Y-74462895D02*
X138972306Y-74558133D01*
X138972306Y-74558133D02*
X139019925Y-74700990D01*
X139019925Y-74700990D02*
X139591353Y-75272419D01*
X139591353Y-75272419D02*
X138972306Y-75272419D01*
X139067544Y-84472419D02*
X139258020Y-84472419D01*
X139258020Y-84472419D02*
X139353258Y-84520038D01*
X139353258Y-84520038D02*
X139400877Y-84567657D01*
X139400877Y-84567657D02*
X139496115Y-84710514D01*
X139496115Y-84710514D02*
X139543734Y-84900990D01*
X139543734Y-84900990D02*
X139543734Y-85281942D01*
X139543734Y-85281942D02*
X139496115Y-85377180D01*
X139496115Y-85377180D02*
X139448496Y-85424800D01*
X139448496Y-85424800D02*
X139353258Y-85472419D01*
X139353258Y-85472419D02*
X139162782Y-85472419D01*
X139162782Y-85472419D02*
X139067544Y-85424800D01*
X139067544Y-85424800D02*
X139019925Y-85377180D01*
X139019925Y-85377180D02*
X138972306Y-85281942D01*
X138972306Y-85281942D02*
X138972306Y-85043847D01*
X138972306Y-85043847D02*
X139019925Y-84948609D01*
X139019925Y-84948609D02*
X139067544Y-84900990D01*
X139067544Y-84900990D02*
X139162782Y-84853371D01*
X139162782Y-84853371D02*
X139353258Y-84853371D01*
X139353258Y-84853371D02*
X139448496Y-84900990D01*
X139448496Y-84900990D02*
X139496115Y-84948609D01*
X139496115Y-84948609D02*
X139543734Y-85043847D01*
X151738972Y-109772419D02*
X151167544Y-109772419D01*
X151453258Y-110772419D02*
X151453258Y-109772419D01*
D12*
X138955859Y-72871119D02*
X139527287Y-72871119D01*
X139241573Y-72871119D02*
X139241573Y-71871119D01*
X139241573Y-71871119D02*
X139336811Y-72013976D01*
X139336811Y-72013976D02*
X139432049Y-72109214D01*
X139432049Y-72109214D02*
X139527287Y-72156833D01*
D10*
X138972306Y-115872419D02*
X139543734Y-115872419D01*
X139258020Y-115872419D02*
X139258020Y-114872419D01*
X139258020Y-114872419D02*
X139353258Y-115015276D01*
X139353258Y-115015276D02*
X139448496Y-115110514D01*
X139448496Y-115110514D02*
X139543734Y-115158133D01*
X138400877Y-115300990D02*
X138496115Y-115253371D01*
X138496115Y-115253371D02*
X138543734Y-115205752D01*
X138543734Y-115205752D02*
X138591353Y-115110514D01*
X138591353Y-115110514D02*
X138591353Y-115062895D01*
X138591353Y-115062895D02*
X138543734Y-114967657D01*
X138543734Y-114967657D02*
X138496115Y-114920038D01*
X138496115Y-114920038D02*
X138400877Y-114872419D01*
X138400877Y-114872419D02*
X138210401Y-114872419D01*
X138210401Y-114872419D02*
X138115163Y-114920038D01*
X138115163Y-114920038D02*
X138067544Y-114967657D01*
X138067544Y-114967657D02*
X138019925Y-115062895D01*
X138019925Y-115062895D02*
X138019925Y-115110514D01*
X138019925Y-115110514D02*
X138067544Y-115205752D01*
X138067544Y-115205752D02*
X138115163Y-115253371D01*
X138115163Y-115253371D02*
X138210401Y-115300990D01*
X138210401Y-115300990D02*
X138400877Y-115300990D01*
X138400877Y-115300990D02*
X138496115Y-115348609D01*
X138496115Y-115348609D02*
X138543734Y-115396228D01*
X138543734Y-115396228D02*
X138591353Y-115491466D01*
X138591353Y-115491466D02*
X138591353Y-115681942D01*
X138591353Y-115681942D02*
X138543734Y-115777180D01*
X138543734Y-115777180D02*
X138496115Y-115824800D01*
X138496115Y-115824800D02*
X138400877Y-115872419D01*
X138400877Y-115872419D02*
X138210401Y-115872419D01*
X138210401Y-115872419D02*
X138115163Y-115824800D01*
X138115163Y-115824800D02*
X138067544Y-115777180D01*
X138067544Y-115777180D02*
X138019925Y-115681942D01*
X138019925Y-115681942D02*
X138019925Y-115491466D01*
X138019925Y-115491466D02*
X138067544Y-115396228D01*
X138067544Y-115396228D02*
X138115163Y-115348609D01*
X138115163Y-115348609D02*
X138210401Y-115300990D01*
X151691353Y-119872419D02*
X151024687Y-120872419D01*
X151024687Y-119872419D02*
X151691353Y-120872419D01*
X151596115Y-82348609D02*
X151262782Y-82348609D01*
X151119925Y-82872419D02*
X151596115Y-82872419D01*
X151596115Y-82872419D02*
X151596115Y-81872419D01*
X151596115Y-81872419D02*
X151119925Y-81872419D01*
X151643734Y-108224800D02*
X151500877Y-108272419D01*
X151500877Y-108272419D02*
X151262782Y-108272419D01*
X151262782Y-108272419D02*
X151167544Y-108224800D01*
X151167544Y-108224800D02*
X151119925Y-108177180D01*
X151119925Y-108177180D02*
X151072306Y-108081942D01*
X151072306Y-108081942D02*
X151072306Y-107986704D01*
X151072306Y-107986704D02*
X151119925Y-107891466D01*
X151119925Y-107891466D02*
X151167544Y-107843847D01*
X151167544Y-107843847D02*
X151262782Y-107796228D01*
X151262782Y-107796228D02*
X151453258Y-107748609D01*
X151453258Y-107748609D02*
X151548496Y-107700990D01*
X151548496Y-107700990D02*
X151596115Y-107653371D01*
X151596115Y-107653371D02*
X151643734Y-107558133D01*
X151643734Y-107558133D02*
X151643734Y-107462895D01*
X151643734Y-107462895D02*
X151596115Y-107367657D01*
X151596115Y-107367657D02*
X151548496Y-107320038D01*
X151548496Y-107320038D02*
X151453258Y-107272419D01*
X151453258Y-107272419D02*
X151215163Y-107272419D01*
X151215163Y-107272419D02*
X151072306Y-107320038D01*
X151691353Y-125172419D02*
X151024687Y-125172419D01*
X151024687Y-125172419D02*
X151691353Y-126172419D01*
X151691353Y-126172419D02*
X151024687Y-126172419D01*
X139543734Y-120067657D02*
X139496115Y-120020038D01*
X139496115Y-120020038D02*
X139400877Y-119972419D01*
X139400877Y-119972419D02*
X139162782Y-119972419D01*
X139162782Y-119972419D02*
X139067544Y-120020038D01*
X139067544Y-120020038D02*
X139019925Y-120067657D01*
X139019925Y-120067657D02*
X138972306Y-120162895D01*
X138972306Y-120162895D02*
X138972306Y-120258133D01*
X138972306Y-120258133D02*
X139019925Y-120400990D01*
X139019925Y-120400990D02*
X139591353Y-120972419D01*
X139591353Y-120972419D02*
X138972306Y-120972419D01*
X138353258Y-119972419D02*
X138258020Y-119972419D01*
X138258020Y-119972419D02*
X138162782Y-120020038D01*
X138162782Y-120020038D02*
X138115163Y-120067657D01*
X138115163Y-120067657D02*
X138067544Y-120162895D01*
X138067544Y-120162895D02*
X138019925Y-120353371D01*
X138019925Y-120353371D02*
X138019925Y-120591466D01*
X138019925Y-120591466D02*
X138067544Y-120781942D01*
X138067544Y-120781942D02*
X138115163Y-120877180D01*
X138115163Y-120877180D02*
X138162782Y-120924800D01*
X138162782Y-120924800D02*
X138258020Y-120972419D01*
X138258020Y-120972419D02*
X138353258Y-120972419D01*
X138353258Y-120972419D02*
X138448496Y-120924800D01*
X138448496Y-120924800D02*
X138496115Y-120877180D01*
X138496115Y-120877180D02*
X138543734Y-120781942D01*
X138543734Y-120781942D02*
X138591353Y-120591466D01*
X138591353Y-120591466D02*
X138591353Y-120353371D01*
X138591353Y-120353371D02*
X138543734Y-120162895D01*
X138543734Y-120162895D02*
X138496115Y-120067657D01*
X138496115Y-120067657D02*
X138448496Y-120020038D01*
X138448496Y-120020038D02*
X138353258Y-119972419D01*
X151024687Y-105672419D02*
X151358020Y-105196228D01*
X151596115Y-105672419D02*
X151596115Y-104672419D01*
X151596115Y-104672419D02*
X151215163Y-104672419D01*
X151215163Y-104672419D02*
X151119925Y-104720038D01*
X151119925Y-104720038D02*
X151072306Y-104767657D01*
X151072306Y-104767657D02*
X151024687Y-104862895D01*
X151024687Y-104862895D02*
X151024687Y-105005752D01*
X151024687Y-105005752D02*
X151072306Y-105100990D01*
X151072306Y-105100990D02*
X151119925Y-105148609D01*
X151119925Y-105148609D02*
X151215163Y-105196228D01*
X151215163Y-105196228D02*
X151596115Y-105196228D01*
X151596115Y-103072419D02*
X151596115Y-102072419D01*
X151596115Y-102072419D02*
X151215163Y-102072419D01*
X151215163Y-102072419D02*
X151119925Y-102120038D01*
X151119925Y-102120038D02*
X151072306Y-102167657D01*
X151072306Y-102167657D02*
X151024687Y-102262895D01*
X151024687Y-102262895D02*
X151024687Y-102405752D01*
X151024687Y-102405752D02*
X151072306Y-102500990D01*
X151072306Y-102500990D02*
X151119925Y-102548609D01*
X151119925Y-102548609D02*
X151215163Y-102596228D01*
X151215163Y-102596228D02*
X151596115Y-102596228D01*
X138972306Y-95572419D02*
X139543734Y-95572419D01*
X139258020Y-95572419D02*
X139258020Y-94572419D01*
X139258020Y-94572419D02*
X139353258Y-94715276D01*
X139353258Y-94715276D02*
X139448496Y-94810514D01*
X139448496Y-94810514D02*
X139543734Y-94858133D01*
X138353258Y-94572419D02*
X138258020Y-94572419D01*
X138258020Y-94572419D02*
X138162782Y-94620038D01*
X138162782Y-94620038D02*
X138115163Y-94667657D01*
X138115163Y-94667657D02*
X138067544Y-94762895D01*
X138067544Y-94762895D02*
X138019925Y-94953371D01*
X138019925Y-94953371D02*
X138019925Y-95191466D01*
X138019925Y-95191466D02*
X138067544Y-95381942D01*
X138067544Y-95381942D02*
X138115163Y-95477180D01*
X138115163Y-95477180D02*
X138162782Y-95524800D01*
X138162782Y-95524800D02*
X138258020Y-95572419D01*
X138258020Y-95572419D02*
X138353258Y-95572419D01*
X138353258Y-95572419D02*
X138448496Y-95524800D01*
X138448496Y-95524800D02*
X138496115Y-95477180D01*
X138496115Y-95477180D02*
X138543734Y-95381942D01*
X138543734Y-95381942D02*
X138591353Y-95191466D01*
X138591353Y-95191466D02*
X138591353Y-94953371D01*
X138591353Y-94953371D02*
X138543734Y-94762895D01*
X138543734Y-94762895D02*
X138496115Y-94667657D01*
X138496115Y-94667657D02*
X138448496Y-94620038D01*
X138448496Y-94620038D02*
X138353258Y-94572419D01*
X138972306Y-100672419D02*
X139543734Y-100672419D01*
X139258020Y-100672419D02*
X139258020Y-99672419D01*
X139258020Y-99672419D02*
X139353258Y-99815276D01*
X139353258Y-99815276D02*
X139448496Y-99910514D01*
X139448496Y-99910514D02*
X139543734Y-99958133D01*
X138591353Y-99767657D02*
X138543734Y-99720038D01*
X138543734Y-99720038D02*
X138448496Y-99672419D01*
X138448496Y-99672419D02*
X138210401Y-99672419D01*
X138210401Y-99672419D02*
X138115163Y-99720038D01*
X138115163Y-99720038D02*
X138067544Y-99767657D01*
X138067544Y-99767657D02*
X138019925Y-99862895D01*
X138019925Y-99862895D02*
X138019925Y-99958133D01*
X138019925Y-99958133D02*
X138067544Y-100100990D01*
X138067544Y-100100990D02*
X138638972Y-100672419D01*
X138638972Y-100672419D02*
X138019925Y-100672419D01*
X151596115Y-112372419D02*
X151596115Y-113181942D01*
X151596115Y-113181942D02*
X151548496Y-113277180D01*
X151548496Y-113277180D02*
X151500877Y-113324800D01*
X151500877Y-113324800D02*
X151405639Y-113372419D01*
X151405639Y-113372419D02*
X151215163Y-113372419D01*
X151215163Y-113372419D02*
X151119925Y-113324800D01*
X151119925Y-113324800D02*
X151072306Y-113277180D01*
X151072306Y-113277180D02*
X151024687Y-113181942D01*
X151024687Y-113181942D02*
X151024687Y-112372419D01*
X138972306Y-98172419D02*
X139543734Y-98172419D01*
X139258020Y-98172419D02*
X139258020Y-97172419D01*
X139258020Y-97172419D02*
X139353258Y-97315276D01*
X139353258Y-97315276D02*
X139448496Y-97410514D01*
X139448496Y-97410514D02*
X139543734Y-97458133D01*
X138019925Y-98172419D02*
X138591353Y-98172419D01*
X138305639Y-98172419D02*
X138305639Y-97172419D01*
X138305639Y-97172419D02*
X138400877Y-97315276D01*
X138400877Y-97315276D02*
X138496115Y-97410514D01*
X138496115Y-97410514D02*
X138591353Y-97458133D01*
X139448496Y-93172419D02*
X139258020Y-93172419D01*
X139258020Y-93172419D02*
X139162782Y-93124800D01*
X139162782Y-93124800D02*
X139115163Y-93077180D01*
X139115163Y-93077180D02*
X139019925Y-92934323D01*
X139019925Y-92934323D02*
X138972306Y-92743847D01*
X138972306Y-92743847D02*
X138972306Y-92362895D01*
X138972306Y-92362895D02*
X139019925Y-92267657D01*
X139019925Y-92267657D02*
X139067544Y-92220038D01*
X139067544Y-92220038D02*
X139162782Y-92172419D01*
X139162782Y-92172419D02*
X139353258Y-92172419D01*
X139353258Y-92172419D02*
X139448496Y-92220038D01*
X139448496Y-92220038D02*
X139496115Y-92267657D01*
X139496115Y-92267657D02*
X139543734Y-92362895D01*
X139543734Y-92362895D02*
X139543734Y-92600990D01*
X139543734Y-92600990D02*
X139496115Y-92696228D01*
X139496115Y-92696228D02*
X139448496Y-92743847D01*
X139448496Y-92743847D02*
X139353258Y-92791466D01*
X139353258Y-92791466D02*
X139162782Y-92791466D01*
X139162782Y-92791466D02*
X139067544Y-92743847D01*
X139067544Y-92743847D02*
X139019925Y-92696228D01*
X139019925Y-92696228D02*
X138972306Y-92600990D01*
X138972306Y-113472419D02*
X139543734Y-113472419D01*
X139258020Y-113472419D02*
X139258020Y-112472419D01*
X139258020Y-112472419D02*
X139353258Y-112615276D01*
X139353258Y-112615276D02*
X139448496Y-112710514D01*
X139448496Y-112710514D02*
X139543734Y-112758133D01*
X138638972Y-112472419D02*
X137972306Y-112472419D01*
X137972306Y-112472419D02*
X138400877Y-113472419D01*
X116096115Y-101352419D02*
X116096115Y-100352419D01*
X116096115Y-100352419D02*
X115524687Y-101352419D01*
X115524687Y-101352419D02*
X115524687Y-100352419D01*
X116072305Y-105352419D02*
X116072305Y-104352419D01*
X116072305Y-104352419D02*
X115691353Y-104352419D01*
X115691353Y-104352419D02*
X115596115Y-104400038D01*
X115596115Y-104400038D02*
X115548496Y-104447657D01*
X115548496Y-104447657D02*
X115500877Y-104542895D01*
X115500877Y-104542895D02*
X115500877Y-104685752D01*
X115500877Y-104685752D02*
X115548496Y-104780990D01*
X115548496Y-104780990D02*
X115596115Y-104828609D01*
X115596115Y-104828609D02*
X115691353Y-104876228D01*
X115691353Y-104876228D02*
X116072305Y-104876228D01*
X116024686Y-72828609D02*
X115691353Y-72828609D01*
X115548496Y-73352419D02*
X116024686Y-73352419D01*
X116024686Y-73352419D02*
X116024686Y-72352419D01*
X116024686Y-72352419D02*
X115548496Y-72352419D01*
X116143734Y-131852419D02*
X115477068Y-132852419D01*
X115477068Y-131852419D02*
X116143734Y-132852419D01*
X116238972Y-127852419D02*
X116000877Y-128852419D01*
X116000877Y-128852419D02*
X115810401Y-128138133D01*
X115810401Y-128138133D02*
X115619925Y-128852419D01*
X115619925Y-128852419D02*
X115381830Y-127852419D01*
X116143734Y-96852419D02*
X116143734Y-95852419D01*
X116143734Y-95852419D02*
X115810401Y-96566704D01*
X115810401Y-96566704D02*
X115477068Y-95852419D01*
X115477068Y-95852419D02*
X115477068Y-96852419D01*
X115810401Y-136376228D02*
X115810401Y-136852419D01*
X116143734Y-135852419D02*
X115810401Y-136376228D01*
X115810401Y-136376228D02*
X115477068Y-135852419D01*
X116096115Y-120352419D02*
X116096115Y-121161942D01*
X116096115Y-121161942D02*
X116048496Y-121257180D01*
X116048496Y-121257180D02*
X116000877Y-121304800D01*
X116000877Y-121304800D02*
X115905639Y-121352419D01*
X115905639Y-121352419D02*
X115715163Y-121352419D01*
X115715163Y-121352419D02*
X115619925Y-121304800D01*
X115619925Y-121304800D02*
X115572306Y-121257180D01*
X115572306Y-121257180D02*
X115524687Y-121161942D01*
X115524687Y-121161942D02*
X115524687Y-120352419D01*
X116096115Y-81352419D02*
X116096115Y-80352419D01*
X116096115Y-80828609D02*
X115524687Y-80828609D01*
X115524687Y-81352419D02*
X115524687Y-80352419D01*
X116096115Y-113304800D02*
X115953258Y-113352419D01*
X115953258Y-113352419D02*
X115715163Y-113352419D01*
X115715163Y-113352419D02*
X115619925Y-113304800D01*
X115619925Y-113304800D02*
X115572306Y-113257180D01*
X115572306Y-113257180D02*
X115524687Y-113161942D01*
X115524687Y-113161942D02*
X115524687Y-113066704D01*
X115524687Y-113066704D02*
X115572306Y-112971466D01*
X115572306Y-112971466D02*
X115619925Y-112923847D01*
X115619925Y-112923847D02*
X115715163Y-112876228D01*
X115715163Y-112876228D02*
X115905639Y-112828609D01*
X115905639Y-112828609D02*
X116000877Y-112780990D01*
X116000877Y-112780990D02*
X116048496Y-112733371D01*
X116048496Y-112733371D02*
X116096115Y-112638133D01*
X116096115Y-112638133D02*
X116096115Y-112542895D01*
X116096115Y-112542895D02*
X116048496Y-112447657D01*
X116048496Y-112447657D02*
X116000877Y-112400038D01*
X116000877Y-112400038D02*
X115905639Y-112352419D01*
X115905639Y-112352419D02*
X115667544Y-112352419D01*
X115667544Y-112352419D02*
X115524687Y-112400038D01*
X115500877Y-109352419D02*
X115834210Y-108876228D01*
X116072305Y-109352419D02*
X116072305Y-108352419D01*
X116072305Y-108352419D02*
X115691353Y-108352419D01*
X115691353Y-108352419D02*
X115596115Y-108400038D01*
X115596115Y-108400038D02*
X115548496Y-108447657D01*
X115548496Y-108447657D02*
X115500877Y-108542895D01*
X115500877Y-108542895D02*
X115500877Y-108685752D01*
X115500877Y-108685752D02*
X115548496Y-108780990D01*
X115548496Y-108780990D02*
X115596115Y-108828609D01*
X115596115Y-108828609D02*
X115691353Y-108876228D01*
X115691353Y-108876228D02*
X116072305Y-108876228D01*
X115667544Y-84352419D02*
X115667544Y-85066704D01*
X115667544Y-85066704D02*
X115715163Y-85209561D01*
X115715163Y-85209561D02*
X115810401Y-85304800D01*
X115810401Y-85304800D02*
X115953258Y-85352419D01*
X115953258Y-85352419D02*
X116048496Y-85352419D01*
X116143734Y-123852419D02*
X115810401Y-124852419D01*
X115810401Y-124852419D02*
X115477068Y-123852419D01*
X115667544Y-76828609D02*
X116000877Y-76828609D01*
X116000877Y-77352419D02*
X116000877Y-76352419D01*
X116000877Y-76352419D02*
X115524687Y-76352419D01*
X115738972Y-61328609D02*
X115596115Y-61376228D01*
X115596115Y-61376228D02*
X115548496Y-61423847D01*
X115548496Y-61423847D02*
X115500877Y-61519085D01*
X115500877Y-61519085D02*
X115500877Y-61661942D01*
X115500877Y-61661942D02*
X115548496Y-61757180D01*
X115548496Y-61757180D02*
X115596115Y-61804800D01*
X115596115Y-61804800D02*
X115691353Y-61852419D01*
X115691353Y-61852419D02*
X116072305Y-61852419D01*
X116072305Y-61852419D02*
X116072305Y-60852419D01*
X116072305Y-60852419D02*
X115738972Y-60852419D01*
X115738972Y-60852419D02*
X115643734Y-60900038D01*
X115643734Y-60900038D02*
X115596115Y-60947657D01*
X115596115Y-60947657D02*
X115548496Y-61042895D01*
X115548496Y-61042895D02*
X115548496Y-61138133D01*
X115548496Y-61138133D02*
X115596115Y-61233371D01*
X115596115Y-61233371D02*
X115643734Y-61280990D01*
X115643734Y-61280990D02*
X115738972Y-61328609D01*
X115738972Y-61328609D02*
X116072305Y-61328609D01*
X116072305Y-89352419D02*
X116072305Y-88352419D01*
X115500877Y-89352419D02*
X115929448Y-88780990D01*
X115500877Y-88352419D02*
X116072305Y-88923847D01*
X115500877Y-92852419D02*
X115977067Y-92852419D01*
X115977067Y-92852419D02*
X115977067Y-91852419D01*
X116072305Y-69352419D02*
X116072305Y-68352419D01*
X116072305Y-68352419D02*
X115834210Y-68352419D01*
X115834210Y-68352419D02*
X115691353Y-68400038D01*
X115691353Y-68400038D02*
X115596115Y-68495276D01*
X115596115Y-68495276D02*
X115548496Y-68590514D01*
X115548496Y-68590514D02*
X115500877Y-68780990D01*
X115500877Y-68780990D02*
X115500877Y-68923847D01*
X115500877Y-68923847D02*
X115548496Y-69114323D01*
X115548496Y-69114323D02*
X115596115Y-69209561D01*
X115596115Y-69209561D02*
X115691353Y-69304800D01*
X115691353Y-69304800D02*
X115834210Y-69352419D01*
X115834210Y-69352419D02*
X116072305Y-69352419D01*
X115500877Y-65757180D02*
X115548496Y-65804800D01*
X115548496Y-65804800D02*
X115691353Y-65852419D01*
X115691353Y-65852419D02*
X115786591Y-65852419D01*
X115786591Y-65852419D02*
X115929448Y-65804800D01*
X115929448Y-65804800D02*
X116024686Y-65709561D01*
X116024686Y-65709561D02*
X116072305Y-65614323D01*
X116072305Y-65614323D02*
X116119924Y-65423847D01*
X116119924Y-65423847D02*
X116119924Y-65280990D01*
X116119924Y-65280990D02*
X116072305Y-65090514D01*
X116072305Y-65090514D02*
X116024686Y-64995276D01*
X116024686Y-64995276D02*
X115929448Y-64900038D01*
X115929448Y-64900038D02*
X115786591Y-64852419D01*
X115786591Y-64852419D02*
X115691353Y-64852419D01*
X115691353Y-64852419D02*
X115548496Y-64900038D01*
X115548496Y-64900038D02*
X115500877Y-64947657D01*
X116048496Y-57566704D02*
X115572306Y-57566704D01*
X116143734Y-57852419D02*
X115810401Y-56852419D01*
X115810401Y-56852419D02*
X115477068Y-57852419D01*
X116143734Y-139852419D02*
X115477068Y-139852419D01*
X115477068Y-139852419D02*
X116143734Y-140852419D01*
X116143734Y-140852419D02*
X115477068Y-140852419D01*
X116096115Y-116352419D02*
X115524687Y-116352419D01*
X115810401Y-117352419D02*
X115810401Y-116352419D01*
X175518169Y-127792419D02*
X175280074Y-128792419D01*
X175280074Y-128792419D02*
X175089598Y-128078133D01*
X175089598Y-128078133D02*
X174899122Y-128792419D01*
X174899122Y-128792419D02*
X174661027Y-127792419D01*
X175375312Y-81292419D02*
X175375312Y-80292419D01*
X175375312Y-80768609D02*
X174803884Y-80768609D01*
X174803884Y-81292419D02*
X174803884Y-80292419D01*
X175422931Y-96792419D02*
X175422931Y-95792419D01*
X175422931Y-95792419D02*
X175089598Y-96506704D01*
X175089598Y-96506704D02*
X174756265Y-95792419D01*
X174756265Y-95792419D02*
X174756265Y-96792419D01*
X175351503Y-69292419D02*
X175351503Y-68292419D01*
X175351503Y-68292419D02*
X175113408Y-68292419D01*
X175113408Y-68292419D02*
X174970551Y-68340038D01*
X174970551Y-68340038D02*
X174875313Y-68435276D01*
X174875313Y-68435276D02*
X174827694Y-68530514D01*
X174827694Y-68530514D02*
X174780075Y-68720990D01*
X174780075Y-68720990D02*
X174780075Y-68863847D01*
X174780075Y-68863847D02*
X174827694Y-69054323D01*
X174827694Y-69054323D02*
X174875313Y-69149561D01*
X174875313Y-69149561D02*
X174970551Y-69244800D01*
X174970551Y-69244800D02*
X175113408Y-69292419D01*
X175113408Y-69292419D02*
X175351503Y-69292419D01*
X175375312Y-120292419D02*
X175375312Y-121101942D01*
X175375312Y-121101942D02*
X175327693Y-121197180D01*
X175327693Y-121197180D02*
X175280074Y-121244800D01*
X175280074Y-121244800D02*
X175184836Y-121292419D01*
X175184836Y-121292419D02*
X174994360Y-121292419D01*
X174994360Y-121292419D02*
X174899122Y-121244800D01*
X174899122Y-121244800D02*
X174851503Y-121197180D01*
X174851503Y-121197180D02*
X174803884Y-121101942D01*
X174803884Y-121101942D02*
X174803884Y-120292419D01*
X175422931Y-139792419D02*
X174756265Y-139792419D01*
X174756265Y-139792419D02*
X175422931Y-140792419D01*
X175422931Y-140792419D02*
X174756265Y-140792419D01*
X175018170Y-61268609D02*
X174875313Y-61316228D01*
X174875313Y-61316228D02*
X174827694Y-61363847D01*
X174827694Y-61363847D02*
X174780075Y-61459085D01*
X174780075Y-61459085D02*
X174780075Y-61601942D01*
X174780075Y-61601942D02*
X174827694Y-61697180D01*
X174827694Y-61697180D02*
X174875313Y-61744800D01*
X174875313Y-61744800D02*
X174970551Y-61792419D01*
X174970551Y-61792419D02*
X175351503Y-61792419D01*
X175351503Y-61792419D02*
X175351503Y-60792419D01*
X175351503Y-60792419D02*
X175018170Y-60792419D01*
X175018170Y-60792419D02*
X174922932Y-60840038D01*
X174922932Y-60840038D02*
X174875313Y-60887657D01*
X174875313Y-60887657D02*
X174827694Y-60982895D01*
X174827694Y-60982895D02*
X174827694Y-61078133D01*
X174827694Y-61078133D02*
X174875313Y-61173371D01*
X174875313Y-61173371D02*
X174922932Y-61220990D01*
X174922932Y-61220990D02*
X175018170Y-61268609D01*
X175018170Y-61268609D02*
X175351503Y-61268609D01*
X175351503Y-105292419D02*
X175351503Y-104292419D01*
X175351503Y-104292419D02*
X174970551Y-104292419D01*
X174970551Y-104292419D02*
X174875313Y-104340038D01*
X174875313Y-104340038D02*
X174827694Y-104387657D01*
X174827694Y-104387657D02*
X174780075Y-104482895D01*
X174780075Y-104482895D02*
X174780075Y-104625752D01*
X174780075Y-104625752D02*
X174827694Y-104720990D01*
X174827694Y-104720990D02*
X174875313Y-104768609D01*
X174875313Y-104768609D02*
X174970551Y-104816228D01*
X174970551Y-104816228D02*
X175351503Y-104816228D01*
X175422931Y-123792419D02*
X175089598Y-124792419D01*
X175089598Y-124792419D02*
X174756265Y-123792419D01*
X174780075Y-92792419D02*
X175256265Y-92792419D01*
X175256265Y-92792419D02*
X175256265Y-91792419D01*
X175375312Y-101292419D02*
X175375312Y-100292419D01*
X175375312Y-100292419D02*
X174803884Y-101292419D01*
X174803884Y-101292419D02*
X174803884Y-100292419D01*
X175327693Y-57506704D02*
X174851503Y-57506704D01*
X175422931Y-57792419D02*
X175089598Y-56792419D01*
X175089598Y-56792419D02*
X174756265Y-57792419D01*
X174946741Y-84292419D02*
X174946741Y-85006704D01*
X174946741Y-85006704D02*
X174994360Y-85149561D01*
X174994360Y-85149561D02*
X175089598Y-85244800D01*
X175089598Y-85244800D02*
X175232455Y-85292419D01*
X175232455Y-85292419D02*
X175327693Y-85292419D01*
X175375312Y-116292419D02*
X174803884Y-116292419D01*
X175089598Y-117292419D02*
X175089598Y-116292419D01*
X175422931Y-131792419D02*
X174756265Y-132792419D01*
X174756265Y-131792419D02*
X175422931Y-132792419D01*
X174780075Y-65697180D02*
X174827694Y-65744800D01*
X174827694Y-65744800D02*
X174970551Y-65792419D01*
X174970551Y-65792419D02*
X175065789Y-65792419D01*
X175065789Y-65792419D02*
X175208646Y-65744800D01*
X175208646Y-65744800D02*
X175303884Y-65649561D01*
X175303884Y-65649561D02*
X175351503Y-65554323D01*
X175351503Y-65554323D02*
X175399122Y-65363847D01*
X175399122Y-65363847D02*
X175399122Y-65220990D01*
X175399122Y-65220990D02*
X175351503Y-65030514D01*
X175351503Y-65030514D02*
X175303884Y-64935276D01*
X175303884Y-64935276D02*
X175208646Y-64840038D01*
X175208646Y-64840038D02*
X175065789Y-64792419D01*
X175065789Y-64792419D02*
X174970551Y-64792419D01*
X174970551Y-64792419D02*
X174827694Y-64840038D01*
X174827694Y-64840038D02*
X174780075Y-64887657D01*
X175089598Y-136316228D02*
X175089598Y-136792419D01*
X175422931Y-135792419D02*
X175089598Y-136316228D01*
X175089598Y-136316228D02*
X174756265Y-135792419D01*
X175303884Y-72768609D02*
X174970551Y-72768609D01*
X174827694Y-73292419D02*
X175303884Y-73292419D01*
X175303884Y-73292419D02*
X175303884Y-72292419D01*
X175303884Y-72292419D02*
X174827694Y-72292419D01*
X175375312Y-113244800D02*
X175232455Y-113292419D01*
X175232455Y-113292419D02*
X174994360Y-113292419D01*
X174994360Y-113292419D02*
X174899122Y-113244800D01*
X174899122Y-113244800D02*
X174851503Y-113197180D01*
X174851503Y-113197180D02*
X174803884Y-113101942D01*
X174803884Y-113101942D02*
X174803884Y-113006704D01*
X174803884Y-113006704D02*
X174851503Y-112911466D01*
X174851503Y-112911466D02*
X174899122Y-112863847D01*
X174899122Y-112863847D02*
X174994360Y-112816228D01*
X174994360Y-112816228D02*
X175184836Y-112768609D01*
X175184836Y-112768609D02*
X175280074Y-112720990D01*
X175280074Y-112720990D02*
X175327693Y-112673371D01*
X175327693Y-112673371D02*
X175375312Y-112578133D01*
X175375312Y-112578133D02*
X175375312Y-112482895D01*
X175375312Y-112482895D02*
X175327693Y-112387657D01*
X175327693Y-112387657D02*
X175280074Y-112340038D01*
X175280074Y-112340038D02*
X175184836Y-112292419D01*
X175184836Y-112292419D02*
X174946741Y-112292419D01*
X174946741Y-112292419D02*
X174803884Y-112340038D01*
X175351503Y-89292419D02*
X175351503Y-88292419D01*
X174780075Y-89292419D02*
X175208646Y-88720990D01*
X174780075Y-88292419D02*
X175351503Y-88863847D01*
X174946741Y-76768609D02*
X175280074Y-76768609D01*
X175280074Y-77292419D02*
X175280074Y-76292419D01*
X175280074Y-76292419D02*
X174803884Y-76292419D01*
X174780075Y-109292419D02*
X175113408Y-108816228D01*
X175351503Y-109292419D02*
X175351503Y-108292419D01*
X175351503Y-108292419D02*
X174970551Y-108292419D01*
X174970551Y-108292419D02*
X174875313Y-108340038D01*
X174875313Y-108340038D02*
X174827694Y-108387657D01*
X174827694Y-108387657D02*
X174780075Y-108482895D01*
X174780075Y-108482895D02*
X174780075Y-108625752D01*
X174780075Y-108625752D02*
X174827694Y-108720990D01*
X174827694Y-108720990D02*
X174875313Y-108768609D01*
X174875313Y-108768609D02*
X174970551Y-108816228D01*
X174970551Y-108816228D02*
X175351503Y-108816228D01*
M02*
