G04 #@! TF.GenerationSoftware,KiCad,Pcbnew,8.0.6-8.0.6-0~ubuntu24.10.1*
G04 #@! TF.CreationDate,2024-10-17T08:48:07-07:00*
G04 #@! TF.ProjectId,kim1breakout,6b696d31-6272-4656-916b-6f75742e6b69,1.3*
G04 #@! TF.SameCoordinates,Original*
G04 #@! TF.FileFunction,Legend,Top*
G04 #@! TF.FilePolarity,Positive*
%FSLAX46Y46*%
G04 Gerber Fmt 4.6, Leading zero omitted, Abs format (unit mm)*
G04 Created by KiCad (PCBNEW 8.0.6-8.0.6-0~ubuntu24.10.1) date 2024-10-17 08:48:07*
%MOMM*%
%LPD*%
G01*
G04 APERTURE LIST*
%ADD10C,0.100000*%
%ADD11C,0.500000*%
%ADD12C,0.125000*%
%ADD13C,0.300000*%
%ADD14C,0.150000*%
%ADD15C,0.120000*%
G04 APERTURE END LIST*
D10*
X151003884Y-112372419D02*
X151003884Y-113181942D01*
X151003884Y-113181942D02*
X151051503Y-113277180D01*
X151051503Y-113277180D02*
X151099122Y-113324800D01*
X151099122Y-113324800D02*
X151194360Y-113372419D01*
X151194360Y-113372419D02*
X151384836Y-113372419D01*
X151384836Y-113372419D02*
X151480074Y-113324800D01*
X151480074Y-113324800D02*
X151527693Y-113277180D01*
X151527693Y-113277180D02*
X151575312Y-113181942D01*
X151575312Y-113181942D02*
X151575312Y-112372419D01*
X139299122Y-89900990D02*
X139203884Y-89853371D01*
X139203884Y-89853371D02*
X139156265Y-89805752D01*
X139156265Y-89805752D02*
X139108646Y-89710514D01*
X139108646Y-89710514D02*
X139108646Y-89662895D01*
X139108646Y-89662895D02*
X139156265Y-89567657D01*
X139156265Y-89567657D02*
X139203884Y-89520038D01*
X139203884Y-89520038D02*
X139299122Y-89472419D01*
X139299122Y-89472419D02*
X139489598Y-89472419D01*
X139489598Y-89472419D02*
X139584836Y-89520038D01*
X139584836Y-89520038D02*
X139632455Y-89567657D01*
X139632455Y-89567657D02*
X139680074Y-89662895D01*
X139680074Y-89662895D02*
X139680074Y-89710514D01*
X139680074Y-89710514D02*
X139632455Y-89805752D01*
X139632455Y-89805752D02*
X139584836Y-89853371D01*
X139584836Y-89853371D02*
X139489598Y-89900990D01*
X139489598Y-89900990D02*
X139299122Y-89900990D01*
X139299122Y-89900990D02*
X139203884Y-89948609D01*
X139203884Y-89948609D02*
X139156265Y-89996228D01*
X139156265Y-89996228D02*
X139108646Y-90091466D01*
X139108646Y-90091466D02*
X139108646Y-90281942D01*
X139108646Y-90281942D02*
X139156265Y-90377180D01*
X139156265Y-90377180D02*
X139203884Y-90424800D01*
X139203884Y-90424800D02*
X139299122Y-90472419D01*
X139299122Y-90472419D02*
X139489598Y-90472419D01*
X139489598Y-90472419D02*
X139584836Y-90424800D01*
X139584836Y-90424800D02*
X139632455Y-90377180D01*
X139632455Y-90377180D02*
X139680074Y-90281942D01*
X139680074Y-90281942D02*
X139680074Y-90091466D01*
X139680074Y-90091466D02*
X139632455Y-89996228D01*
X139632455Y-89996228D02*
X139584836Y-89948609D01*
X139584836Y-89948609D02*
X139489598Y-89900990D01*
X138727693Y-113472419D02*
X138156265Y-113472419D01*
X138441979Y-113472419D02*
X138441979Y-112472419D01*
X138441979Y-112472419D02*
X138346741Y-112615276D01*
X138346741Y-112615276D02*
X138251503Y-112710514D01*
X138251503Y-112710514D02*
X138156265Y-112758133D01*
X139061027Y-112472419D02*
X139727693Y-112472419D01*
X139727693Y-112472419D02*
X139299122Y-113472419D01*
D11*
X125428571Y-58777025D02*
X125428571Y-55777025D01*
X127142857Y-58777025D02*
X125857143Y-57062739D01*
X127142857Y-55777025D02*
X125428571Y-57491310D01*
X128428571Y-58777025D02*
X128428571Y-55777025D01*
X129857142Y-58777025D02*
X129857142Y-55777025D01*
X129857142Y-55777025D02*
X130857142Y-57919882D01*
X130857142Y-57919882D02*
X131857142Y-55777025D01*
X131857142Y-55777025D02*
X131857142Y-58777025D01*
X133285713Y-57634168D02*
X135571428Y-57634168D01*
X138571428Y-58777025D02*
X136857142Y-58777025D01*
X137714285Y-58777025D02*
X137714285Y-55777025D01*
X137714285Y-55777025D02*
X137428571Y-56205596D01*
X137428571Y-56205596D02*
X137142856Y-56491310D01*
X137142856Y-56491310D02*
X136857142Y-56634168D01*
X142142856Y-57205596D02*
X143142856Y-57205596D01*
X143571428Y-58777025D02*
X142142856Y-58777025D01*
X142142856Y-58777025D02*
X142142856Y-55777025D01*
X142142856Y-55777025D02*
X143571428Y-55777025D01*
X144571428Y-58777025D02*
X146142857Y-56777025D01*
X144571428Y-56777025D02*
X146142857Y-58777025D01*
X147285713Y-56777025D02*
X147285713Y-59777025D01*
X147285713Y-56919882D02*
X147571428Y-56777025D01*
X147571428Y-56777025D02*
X148142856Y-56777025D01*
X148142856Y-56777025D02*
X148428570Y-56919882D01*
X148428570Y-56919882D02*
X148571428Y-57062739D01*
X148571428Y-57062739D02*
X148714285Y-57348453D01*
X148714285Y-57348453D02*
X148714285Y-58205596D01*
X148714285Y-58205596D02*
X148571428Y-58491310D01*
X148571428Y-58491310D02*
X148428570Y-58634168D01*
X148428570Y-58634168D02*
X148142856Y-58777025D01*
X148142856Y-58777025D02*
X147571428Y-58777025D01*
X147571428Y-58777025D02*
X147285713Y-58634168D01*
X151285714Y-58777025D02*
X151285714Y-57205596D01*
X151285714Y-57205596D02*
X151142856Y-56919882D01*
X151142856Y-56919882D02*
X150857142Y-56777025D01*
X150857142Y-56777025D02*
X150285714Y-56777025D01*
X150285714Y-56777025D02*
X149999999Y-56919882D01*
X151285714Y-58634168D02*
X150999999Y-58777025D01*
X150999999Y-58777025D02*
X150285714Y-58777025D01*
X150285714Y-58777025D02*
X149999999Y-58634168D01*
X149999999Y-58634168D02*
X149857142Y-58348453D01*
X149857142Y-58348453D02*
X149857142Y-58062739D01*
X149857142Y-58062739D02*
X149999999Y-57777025D01*
X149999999Y-57777025D02*
X150285714Y-57634168D01*
X150285714Y-57634168D02*
X150999999Y-57634168D01*
X150999999Y-57634168D02*
X151285714Y-57491310D01*
X152714285Y-56777025D02*
X152714285Y-58777025D01*
X152714285Y-57062739D02*
X152857142Y-56919882D01*
X152857142Y-56919882D02*
X153142857Y-56777025D01*
X153142857Y-56777025D02*
X153571428Y-56777025D01*
X153571428Y-56777025D02*
X153857142Y-56919882D01*
X153857142Y-56919882D02*
X154000000Y-57205596D01*
X154000000Y-57205596D02*
X154000000Y-58777025D01*
X155285714Y-58634168D02*
X155571428Y-58777025D01*
X155571428Y-58777025D02*
X156142857Y-58777025D01*
X156142857Y-58777025D02*
X156428571Y-58634168D01*
X156428571Y-58634168D02*
X156571428Y-58348453D01*
X156571428Y-58348453D02*
X156571428Y-58205596D01*
X156571428Y-58205596D02*
X156428571Y-57919882D01*
X156428571Y-57919882D02*
X156142857Y-57777025D01*
X156142857Y-57777025D02*
X155714286Y-57777025D01*
X155714286Y-57777025D02*
X155428571Y-57634168D01*
X155428571Y-57634168D02*
X155285714Y-57348453D01*
X155285714Y-57348453D02*
X155285714Y-57205596D01*
X155285714Y-57205596D02*
X155428571Y-56919882D01*
X155428571Y-56919882D02*
X155714286Y-56777025D01*
X155714286Y-56777025D02*
X156142857Y-56777025D01*
X156142857Y-56777025D02*
X156428571Y-56919882D01*
X157857142Y-58777025D02*
X157857142Y-56777025D01*
X157857142Y-55777025D02*
X157714285Y-55919882D01*
X157714285Y-55919882D02*
X157857142Y-56062739D01*
X157857142Y-56062739D02*
X157999999Y-55919882D01*
X157999999Y-55919882D02*
X157857142Y-55777025D01*
X157857142Y-55777025D02*
X157857142Y-56062739D01*
X159714285Y-58777025D02*
X159428570Y-58634168D01*
X159428570Y-58634168D02*
X159285713Y-58491310D01*
X159285713Y-58491310D02*
X159142856Y-58205596D01*
X159142856Y-58205596D02*
X159142856Y-57348453D01*
X159142856Y-57348453D02*
X159285713Y-57062739D01*
X159285713Y-57062739D02*
X159428570Y-56919882D01*
X159428570Y-56919882D02*
X159714285Y-56777025D01*
X159714285Y-56777025D02*
X160142856Y-56777025D01*
X160142856Y-56777025D02*
X160428570Y-56919882D01*
X160428570Y-56919882D02*
X160571428Y-57062739D01*
X160571428Y-57062739D02*
X160714285Y-57348453D01*
X160714285Y-57348453D02*
X160714285Y-58205596D01*
X160714285Y-58205596D02*
X160571428Y-58491310D01*
X160571428Y-58491310D02*
X160428570Y-58634168D01*
X160428570Y-58634168D02*
X160142856Y-58777025D01*
X160142856Y-58777025D02*
X159714285Y-58777025D01*
X161999999Y-56777025D02*
X161999999Y-58777025D01*
X161999999Y-57062739D02*
X162142856Y-56919882D01*
X162142856Y-56919882D02*
X162428571Y-56777025D01*
X162428571Y-56777025D02*
X162857142Y-56777025D01*
X162857142Y-56777025D02*
X163142856Y-56919882D01*
X163142856Y-56919882D02*
X163285714Y-57205596D01*
X163285714Y-57205596D02*
X163285714Y-58777025D01*
X125642855Y-63321142D02*
X125499998Y-63464000D01*
X125499998Y-63464000D02*
X125071426Y-63606857D01*
X125071426Y-63606857D02*
X124785712Y-63606857D01*
X124785712Y-63606857D02*
X124357141Y-63464000D01*
X124357141Y-63464000D02*
X124071426Y-63178285D01*
X124071426Y-63178285D02*
X123928569Y-62892571D01*
X123928569Y-62892571D02*
X123785712Y-62321142D01*
X123785712Y-62321142D02*
X123785712Y-61892571D01*
X123785712Y-61892571D02*
X123928569Y-61321142D01*
X123928569Y-61321142D02*
X124071426Y-61035428D01*
X124071426Y-61035428D02*
X124357141Y-60749714D01*
X124357141Y-60749714D02*
X124785712Y-60606857D01*
X124785712Y-60606857D02*
X125071426Y-60606857D01*
X125071426Y-60606857D02*
X125499998Y-60749714D01*
X125499998Y-60749714D02*
X125642855Y-60892571D01*
X127357141Y-63606857D02*
X127071426Y-63464000D01*
X127071426Y-63464000D02*
X126928569Y-63321142D01*
X126928569Y-63321142D02*
X126785712Y-63035428D01*
X126785712Y-63035428D02*
X126785712Y-62178285D01*
X126785712Y-62178285D02*
X126928569Y-61892571D01*
X126928569Y-61892571D02*
X127071426Y-61749714D01*
X127071426Y-61749714D02*
X127357141Y-61606857D01*
X127357141Y-61606857D02*
X127785712Y-61606857D01*
X127785712Y-61606857D02*
X128071426Y-61749714D01*
X128071426Y-61749714D02*
X128214284Y-61892571D01*
X128214284Y-61892571D02*
X128357141Y-62178285D01*
X128357141Y-62178285D02*
X128357141Y-63035428D01*
X128357141Y-63035428D02*
X128214284Y-63321142D01*
X128214284Y-63321142D02*
X128071426Y-63464000D01*
X128071426Y-63464000D02*
X127785712Y-63606857D01*
X127785712Y-63606857D02*
X127357141Y-63606857D01*
X129642855Y-61606857D02*
X129642855Y-63606857D01*
X129642855Y-61892571D02*
X129785712Y-61749714D01*
X129785712Y-61749714D02*
X130071427Y-61606857D01*
X130071427Y-61606857D02*
X130499998Y-61606857D01*
X130499998Y-61606857D02*
X130785712Y-61749714D01*
X130785712Y-61749714D02*
X130928570Y-62035428D01*
X130928570Y-62035428D02*
X130928570Y-63606857D01*
X132357141Y-61606857D02*
X132357141Y-63606857D01*
X132357141Y-61892571D02*
X132499998Y-61749714D01*
X132499998Y-61749714D02*
X132785713Y-61606857D01*
X132785713Y-61606857D02*
X133214284Y-61606857D01*
X133214284Y-61606857D02*
X133499998Y-61749714D01*
X133499998Y-61749714D02*
X133642856Y-62035428D01*
X133642856Y-62035428D02*
X133642856Y-63606857D01*
X136214284Y-63464000D02*
X135928570Y-63606857D01*
X135928570Y-63606857D02*
X135357142Y-63606857D01*
X135357142Y-63606857D02*
X135071427Y-63464000D01*
X135071427Y-63464000D02*
X134928570Y-63178285D01*
X134928570Y-63178285D02*
X134928570Y-62035428D01*
X134928570Y-62035428D02*
X135071427Y-61749714D01*
X135071427Y-61749714D02*
X135357142Y-61606857D01*
X135357142Y-61606857D02*
X135928570Y-61606857D01*
X135928570Y-61606857D02*
X136214284Y-61749714D01*
X136214284Y-61749714D02*
X136357142Y-62035428D01*
X136357142Y-62035428D02*
X136357142Y-62321142D01*
X136357142Y-62321142D02*
X134928570Y-62606857D01*
X138928571Y-63464000D02*
X138642856Y-63606857D01*
X138642856Y-63606857D02*
X138071428Y-63606857D01*
X138071428Y-63606857D02*
X137785713Y-63464000D01*
X137785713Y-63464000D02*
X137642856Y-63321142D01*
X137642856Y-63321142D02*
X137499999Y-63035428D01*
X137499999Y-63035428D02*
X137499999Y-62178285D01*
X137499999Y-62178285D02*
X137642856Y-61892571D01*
X137642856Y-61892571D02*
X137785713Y-61749714D01*
X137785713Y-61749714D02*
X138071428Y-61606857D01*
X138071428Y-61606857D02*
X138642856Y-61606857D01*
X138642856Y-61606857D02*
X138928571Y-61749714D01*
X139785714Y-61606857D02*
X140928571Y-61606857D01*
X140214285Y-60606857D02*
X140214285Y-63178285D01*
X140214285Y-63178285D02*
X140357142Y-63464000D01*
X140357142Y-63464000D02*
X140642857Y-63606857D01*
X140642857Y-63606857D02*
X140928571Y-63606857D01*
X142357143Y-63606857D02*
X142071428Y-63464000D01*
X142071428Y-63464000D02*
X141928571Y-63321142D01*
X141928571Y-63321142D02*
X141785714Y-63035428D01*
X141785714Y-63035428D02*
X141785714Y-62178285D01*
X141785714Y-62178285D02*
X141928571Y-61892571D01*
X141928571Y-61892571D02*
X142071428Y-61749714D01*
X142071428Y-61749714D02*
X142357143Y-61606857D01*
X142357143Y-61606857D02*
X142785714Y-61606857D01*
X142785714Y-61606857D02*
X143071428Y-61749714D01*
X143071428Y-61749714D02*
X143214286Y-61892571D01*
X143214286Y-61892571D02*
X143357143Y-62178285D01*
X143357143Y-62178285D02*
X143357143Y-63035428D01*
X143357143Y-63035428D02*
X143214286Y-63321142D01*
X143214286Y-63321142D02*
X143071428Y-63464000D01*
X143071428Y-63464000D02*
X142785714Y-63606857D01*
X142785714Y-63606857D02*
X142357143Y-63606857D01*
X144642857Y-63606857D02*
X144642857Y-61606857D01*
X144642857Y-62178285D02*
X144785714Y-61892571D01*
X144785714Y-61892571D02*
X144928572Y-61749714D01*
X144928572Y-61749714D02*
X145214286Y-61606857D01*
X145214286Y-61606857D02*
X145500000Y-61606857D01*
X149785714Y-62035428D02*
X150214286Y-62178285D01*
X150214286Y-62178285D02*
X150357143Y-62321142D01*
X150357143Y-62321142D02*
X150500000Y-62606857D01*
X150500000Y-62606857D02*
X150500000Y-63035428D01*
X150500000Y-63035428D02*
X150357143Y-63321142D01*
X150357143Y-63321142D02*
X150214286Y-63464000D01*
X150214286Y-63464000D02*
X149928571Y-63606857D01*
X149928571Y-63606857D02*
X148785714Y-63606857D01*
X148785714Y-63606857D02*
X148785714Y-60606857D01*
X148785714Y-60606857D02*
X149785714Y-60606857D01*
X149785714Y-60606857D02*
X150071429Y-60749714D01*
X150071429Y-60749714D02*
X150214286Y-60892571D01*
X150214286Y-60892571D02*
X150357143Y-61178285D01*
X150357143Y-61178285D02*
X150357143Y-61464000D01*
X150357143Y-61464000D02*
X150214286Y-61749714D01*
X150214286Y-61749714D02*
X150071429Y-61892571D01*
X150071429Y-61892571D02*
X149785714Y-62035428D01*
X149785714Y-62035428D02*
X148785714Y-62035428D01*
X151785714Y-63606857D02*
X151785714Y-61606857D01*
X151785714Y-62178285D02*
X151928571Y-61892571D01*
X151928571Y-61892571D02*
X152071429Y-61749714D01*
X152071429Y-61749714D02*
X152357143Y-61606857D01*
X152357143Y-61606857D02*
X152642857Y-61606857D01*
X154785714Y-63464000D02*
X154500000Y-63606857D01*
X154500000Y-63606857D02*
X153928572Y-63606857D01*
X153928572Y-63606857D02*
X153642857Y-63464000D01*
X153642857Y-63464000D02*
X153500000Y-63178285D01*
X153500000Y-63178285D02*
X153500000Y-62035428D01*
X153500000Y-62035428D02*
X153642857Y-61749714D01*
X153642857Y-61749714D02*
X153928572Y-61606857D01*
X153928572Y-61606857D02*
X154500000Y-61606857D01*
X154500000Y-61606857D02*
X154785714Y-61749714D01*
X154785714Y-61749714D02*
X154928572Y-62035428D01*
X154928572Y-62035428D02*
X154928572Y-62321142D01*
X154928572Y-62321142D02*
X153500000Y-62606857D01*
X157500001Y-63606857D02*
X157500001Y-62035428D01*
X157500001Y-62035428D02*
X157357143Y-61749714D01*
X157357143Y-61749714D02*
X157071429Y-61606857D01*
X157071429Y-61606857D02*
X156500001Y-61606857D01*
X156500001Y-61606857D02*
X156214286Y-61749714D01*
X157500001Y-63464000D02*
X157214286Y-63606857D01*
X157214286Y-63606857D02*
X156500001Y-63606857D01*
X156500001Y-63606857D02*
X156214286Y-63464000D01*
X156214286Y-63464000D02*
X156071429Y-63178285D01*
X156071429Y-63178285D02*
X156071429Y-62892571D01*
X156071429Y-62892571D02*
X156214286Y-62606857D01*
X156214286Y-62606857D02*
X156500001Y-62464000D01*
X156500001Y-62464000D02*
X157214286Y-62464000D01*
X157214286Y-62464000D02*
X157500001Y-62321142D01*
X158928572Y-63606857D02*
X158928572Y-60606857D01*
X159214287Y-62464000D02*
X160071429Y-63606857D01*
X160071429Y-61606857D02*
X158928572Y-62749714D01*
X161785715Y-63606857D02*
X161500000Y-63464000D01*
X161500000Y-63464000D02*
X161357143Y-63321142D01*
X161357143Y-63321142D02*
X161214286Y-63035428D01*
X161214286Y-63035428D02*
X161214286Y-62178285D01*
X161214286Y-62178285D02*
X161357143Y-61892571D01*
X161357143Y-61892571D02*
X161500000Y-61749714D01*
X161500000Y-61749714D02*
X161785715Y-61606857D01*
X161785715Y-61606857D02*
X162214286Y-61606857D01*
X162214286Y-61606857D02*
X162500000Y-61749714D01*
X162500000Y-61749714D02*
X162642858Y-61892571D01*
X162642858Y-61892571D02*
X162785715Y-62178285D01*
X162785715Y-62178285D02*
X162785715Y-63035428D01*
X162785715Y-63035428D02*
X162642858Y-63321142D01*
X162642858Y-63321142D02*
X162500000Y-63464000D01*
X162500000Y-63464000D02*
X162214286Y-63606857D01*
X162214286Y-63606857D02*
X161785715Y-63606857D01*
X165357144Y-61606857D02*
X165357144Y-63606857D01*
X164071429Y-61606857D02*
X164071429Y-63178285D01*
X164071429Y-63178285D02*
X164214286Y-63464000D01*
X164214286Y-63464000D02*
X164500001Y-63606857D01*
X164500001Y-63606857D02*
X164928572Y-63606857D01*
X164928572Y-63606857D02*
X165214286Y-63464000D01*
X165214286Y-63464000D02*
X165357144Y-63321142D01*
X166357144Y-61606857D02*
X167500001Y-61606857D01*
X166785715Y-60606857D02*
X166785715Y-63178285D01*
X166785715Y-63178285D02*
X166928572Y-63464000D01*
X166928572Y-63464000D02*
X167214287Y-63606857D01*
X167214287Y-63606857D02*
X167500001Y-63606857D01*
D10*
X139584836Y-79805752D02*
X139584836Y-80472419D01*
X139346741Y-79424800D02*
X139108646Y-80139085D01*
X139108646Y-80139085D02*
X139727693Y-80139085D01*
X151337217Y-74748609D02*
X151480074Y-74796228D01*
X151480074Y-74796228D02*
X151527693Y-74843847D01*
X151527693Y-74843847D02*
X151575312Y-74939085D01*
X151575312Y-74939085D02*
X151575312Y-75081942D01*
X151575312Y-75081942D02*
X151527693Y-75177180D01*
X151527693Y-75177180D02*
X151480074Y-75224800D01*
X151480074Y-75224800D02*
X151384836Y-75272419D01*
X151384836Y-75272419D02*
X151003884Y-75272419D01*
X151003884Y-75272419D02*
X151003884Y-74272419D01*
X151003884Y-74272419D02*
X151337217Y-74272419D01*
X151337217Y-74272419D02*
X151432455Y-74320038D01*
X151432455Y-74320038D02*
X151480074Y-74367657D01*
X151480074Y-74367657D02*
X151527693Y-74462895D01*
X151527693Y-74462895D02*
X151527693Y-74558133D01*
X151527693Y-74558133D02*
X151480074Y-74653371D01*
X151480074Y-74653371D02*
X151432455Y-74700990D01*
X151432455Y-74700990D02*
X151337217Y-74748609D01*
X151337217Y-74748609D02*
X151003884Y-74748609D01*
X138156265Y-125267657D02*
X138203884Y-125220038D01*
X138203884Y-125220038D02*
X138299122Y-125172419D01*
X138299122Y-125172419D02*
X138537217Y-125172419D01*
X138537217Y-125172419D02*
X138632455Y-125220038D01*
X138632455Y-125220038D02*
X138680074Y-125267657D01*
X138680074Y-125267657D02*
X138727693Y-125362895D01*
X138727693Y-125362895D02*
X138727693Y-125458133D01*
X138727693Y-125458133D02*
X138680074Y-125600990D01*
X138680074Y-125600990D02*
X138108646Y-126172419D01*
X138108646Y-126172419D02*
X138727693Y-126172419D01*
X139108646Y-125267657D02*
X139156265Y-125220038D01*
X139156265Y-125220038D02*
X139251503Y-125172419D01*
X139251503Y-125172419D02*
X139489598Y-125172419D01*
X139489598Y-125172419D02*
X139584836Y-125220038D01*
X139584836Y-125220038D02*
X139632455Y-125267657D01*
X139632455Y-125267657D02*
X139680074Y-125362895D01*
X139680074Y-125362895D02*
X139680074Y-125458133D01*
X139680074Y-125458133D02*
X139632455Y-125600990D01*
X139632455Y-125600990D02*
X139061027Y-126172419D01*
X139061027Y-126172419D02*
X139680074Y-126172419D01*
D12*
X139621521Y-72871119D02*
X139050093Y-72871119D01*
X139335807Y-72871119D02*
X139335807Y-71871119D01*
X139335807Y-71871119D02*
X139240569Y-72013976D01*
X139240569Y-72013976D02*
X139145331Y-72109214D01*
X139145331Y-72109214D02*
X139050093Y-72156833D01*
D10*
X150908646Y-125172419D02*
X151575312Y-125172419D01*
X151575312Y-125172419D02*
X150908646Y-126172419D01*
X150908646Y-126172419D02*
X151575312Y-126172419D01*
X151003884Y-82348609D02*
X151337217Y-82348609D01*
X151480074Y-82872419D02*
X151003884Y-82872419D01*
X151003884Y-82872419D02*
X151003884Y-81872419D01*
X151003884Y-81872419D02*
X151480074Y-81872419D01*
X163275312Y-66072419D02*
X162941979Y-65596228D01*
X162703884Y-66072419D02*
X162703884Y-65072419D01*
X162703884Y-65072419D02*
X163084836Y-65072419D01*
X163084836Y-65072419D02*
X163180074Y-65120038D01*
X163180074Y-65120038D02*
X163227693Y-65167657D01*
X163227693Y-65167657D02*
X163275312Y-65262895D01*
X163275312Y-65262895D02*
X163275312Y-65405752D01*
X163275312Y-65405752D02*
X163227693Y-65500990D01*
X163227693Y-65500990D02*
X163180074Y-65548609D01*
X163180074Y-65548609D02*
X163084836Y-65596228D01*
X163084836Y-65596228D02*
X162703884Y-65596228D01*
X164084836Y-66024800D02*
X163989598Y-66072419D01*
X163989598Y-66072419D02*
X163799122Y-66072419D01*
X163799122Y-66072419D02*
X163703884Y-66024800D01*
X163703884Y-66024800D02*
X163656265Y-65929561D01*
X163656265Y-65929561D02*
X163656265Y-65548609D01*
X163656265Y-65548609D02*
X163703884Y-65453371D01*
X163703884Y-65453371D02*
X163799122Y-65405752D01*
X163799122Y-65405752D02*
X163989598Y-65405752D01*
X163989598Y-65405752D02*
X164084836Y-65453371D01*
X164084836Y-65453371D02*
X164132455Y-65548609D01*
X164132455Y-65548609D02*
X164132455Y-65643847D01*
X164132455Y-65643847D02*
X163656265Y-65739085D01*
X164465789Y-65405752D02*
X164703884Y-66072419D01*
X164703884Y-66072419D02*
X164941979Y-65405752D01*
X165322932Y-66072419D02*
X165322932Y-65405752D01*
X165322932Y-65072419D02*
X165275313Y-65120038D01*
X165275313Y-65120038D02*
X165322932Y-65167657D01*
X165322932Y-65167657D02*
X165370551Y-65120038D01*
X165370551Y-65120038D02*
X165322932Y-65072419D01*
X165322932Y-65072419D02*
X165322932Y-65167657D01*
X165751503Y-66024800D02*
X165846741Y-66072419D01*
X165846741Y-66072419D02*
X166037217Y-66072419D01*
X166037217Y-66072419D02*
X166132455Y-66024800D01*
X166132455Y-66024800D02*
X166180074Y-65929561D01*
X166180074Y-65929561D02*
X166180074Y-65881942D01*
X166180074Y-65881942D02*
X166132455Y-65786704D01*
X166132455Y-65786704D02*
X166037217Y-65739085D01*
X166037217Y-65739085D02*
X165894360Y-65739085D01*
X165894360Y-65739085D02*
X165799122Y-65691466D01*
X165799122Y-65691466D02*
X165751503Y-65596228D01*
X165751503Y-65596228D02*
X165751503Y-65548609D01*
X165751503Y-65548609D02*
X165799122Y-65453371D01*
X165799122Y-65453371D02*
X165894360Y-65405752D01*
X165894360Y-65405752D02*
X166037217Y-65405752D01*
X166037217Y-65405752D02*
X166132455Y-65453371D01*
X166608646Y-66072419D02*
X166608646Y-65405752D01*
X166608646Y-65072419D02*
X166561027Y-65120038D01*
X166561027Y-65120038D02*
X166608646Y-65167657D01*
X166608646Y-65167657D02*
X166656265Y-65120038D01*
X166656265Y-65120038D02*
X166608646Y-65072419D01*
X166608646Y-65072419D02*
X166608646Y-65167657D01*
X167227693Y-66072419D02*
X167132455Y-66024800D01*
X167132455Y-66024800D02*
X167084836Y-65977180D01*
X167084836Y-65977180D02*
X167037217Y-65881942D01*
X167037217Y-65881942D02*
X167037217Y-65596228D01*
X167037217Y-65596228D02*
X167084836Y-65500990D01*
X167084836Y-65500990D02*
X167132455Y-65453371D01*
X167132455Y-65453371D02*
X167227693Y-65405752D01*
X167227693Y-65405752D02*
X167370550Y-65405752D01*
X167370550Y-65405752D02*
X167465788Y-65453371D01*
X167465788Y-65453371D02*
X167513407Y-65500990D01*
X167513407Y-65500990D02*
X167561026Y-65596228D01*
X167561026Y-65596228D02*
X167561026Y-65881942D01*
X167561026Y-65881942D02*
X167513407Y-65977180D01*
X167513407Y-65977180D02*
X167465788Y-66024800D01*
X167465788Y-66024800D02*
X167370550Y-66072419D01*
X167370550Y-66072419D02*
X167227693Y-66072419D01*
X167989598Y-65405752D02*
X167989598Y-66072419D01*
X167989598Y-65500990D02*
X168037217Y-65453371D01*
X168037217Y-65453371D02*
X168132455Y-65405752D01*
X168132455Y-65405752D02*
X168275312Y-65405752D01*
X168275312Y-65405752D02*
X168370550Y-65453371D01*
X168370550Y-65453371D02*
X168418169Y-65548609D01*
X168418169Y-65548609D02*
X168418169Y-66072419D01*
X170180074Y-66072419D02*
X169608646Y-66072419D01*
X169894360Y-66072419D02*
X169894360Y-65072419D01*
X169894360Y-65072419D02*
X169799122Y-65215276D01*
X169799122Y-65215276D02*
X169703884Y-65310514D01*
X169703884Y-65310514D02*
X169608646Y-65358133D01*
X170608646Y-65977180D02*
X170656265Y-66024800D01*
X170656265Y-66024800D02*
X170608646Y-66072419D01*
X170608646Y-66072419D02*
X170561027Y-66024800D01*
X170561027Y-66024800D02*
X170608646Y-65977180D01*
X170608646Y-65977180D02*
X170608646Y-66072419D01*
X171275312Y-65072419D02*
X171370550Y-65072419D01*
X171370550Y-65072419D02*
X171465788Y-65120038D01*
X171465788Y-65120038D02*
X171513407Y-65167657D01*
X171513407Y-65167657D02*
X171561026Y-65262895D01*
X171561026Y-65262895D02*
X171608645Y-65453371D01*
X171608645Y-65453371D02*
X171608645Y-65691466D01*
X171608645Y-65691466D02*
X171561026Y-65881942D01*
X171561026Y-65881942D02*
X171513407Y-65977180D01*
X171513407Y-65977180D02*
X171465788Y-66024800D01*
X171465788Y-66024800D02*
X171370550Y-66072419D01*
X171370550Y-66072419D02*
X171275312Y-66072419D01*
X171275312Y-66072419D02*
X171180074Y-66024800D01*
X171180074Y-66024800D02*
X171132455Y-65977180D01*
X171132455Y-65977180D02*
X171084836Y-65881942D01*
X171084836Y-65881942D02*
X171037217Y-65691466D01*
X171037217Y-65691466D02*
X171037217Y-65453371D01*
X171037217Y-65453371D02*
X171084836Y-65262895D01*
X171084836Y-65262895D02*
X171132455Y-65167657D01*
X171132455Y-65167657D02*
X171180074Y-65120038D01*
X171180074Y-65120038D02*
X171275312Y-65072419D01*
X139108646Y-74367657D02*
X139156265Y-74320038D01*
X139156265Y-74320038D02*
X139251503Y-74272419D01*
X139251503Y-74272419D02*
X139489598Y-74272419D01*
X139489598Y-74272419D02*
X139584836Y-74320038D01*
X139584836Y-74320038D02*
X139632455Y-74367657D01*
X139632455Y-74367657D02*
X139680074Y-74462895D01*
X139680074Y-74462895D02*
X139680074Y-74558133D01*
X139680074Y-74558133D02*
X139632455Y-74700990D01*
X139632455Y-74700990D02*
X139061027Y-75272419D01*
X139061027Y-75272419D02*
X139680074Y-75272419D01*
X150908646Y-117472419D02*
X151146741Y-118472419D01*
X151146741Y-118472419D02*
X151337217Y-117758133D01*
X151337217Y-117758133D02*
X151527693Y-118472419D01*
X151527693Y-118472419D02*
X151765789Y-117472419D01*
X150956265Y-108224800D02*
X151099122Y-108272419D01*
X151099122Y-108272419D02*
X151337217Y-108272419D01*
X151337217Y-108272419D02*
X151432455Y-108224800D01*
X151432455Y-108224800D02*
X151480074Y-108177180D01*
X151480074Y-108177180D02*
X151527693Y-108081942D01*
X151527693Y-108081942D02*
X151527693Y-107986704D01*
X151527693Y-107986704D02*
X151480074Y-107891466D01*
X151480074Y-107891466D02*
X151432455Y-107843847D01*
X151432455Y-107843847D02*
X151337217Y-107796228D01*
X151337217Y-107796228D02*
X151146741Y-107748609D01*
X151146741Y-107748609D02*
X151051503Y-107700990D01*
X151051503Y-107700990D02*
X151003884Y-107653371D01*
X151003884Y-107653371D02*
X150956265Y-107558133D01*
X150956265Y-107558133D02*
X150956265Y-107462895D01*
X150956265Y-107462895D02*
X151003884Y-107367657D01*
X151003884Y-107367657D02*
X151051503Y-107320038D01*
X151051503Y-107320038D02*
X151146741Y-107272419D01*
X151146741Y-107272419D02*
X151384836Y-107272419D01*
X151384836Y-107272419D02*
X151527693Y-107320038D01*
X119103884Y-66072419D02*
X119103884Y-65072419D01*
X119532455Y-66072419D02*
X119532455Y-65548609D01*
X119532455Y-65548609D02*
X119484836Y-65453371D01*
X119484836Y-65453371D02*
X119389598Y-65405752D01*
X119389598Y-65405752D02*
X119246741Y-65405752D01*
X119246741Y-65405752D02*
X119151503Y-65453371D01*
X119151503Y-65453371D02*
X119103884Y-65500990D01*
X119865789Y-65405752D02*
X120246741Y-65405752D01*
X120008646Y-65072419D02*
X120008646Y-65929561D01*
X120008646Y-65929561D02*
X120056265Y-66024800D01*
X120056265Y-66024800D02*
X120151503Y-66072419D01*
X120151503Y-66072419D02*
X120246741Y-66072419D01*
X120437218Y-65405752D02*
X120818170Y-65405752D01*
X120580075Y-65072419D02*
X120580075Y-65929561D01*
X120580075Y-65929561D02*
X120627694Y-66024800D01*
X120627694Y-66024800D02*
X120722932Y-66072419D01*
X120722932Y-66072419D02*
X120818170Y-66072419D01*
X121151504Y-65405752D02*
X121151504Y-66405752D01*
X121151504Y-65453371D02*
X121246742Y-65405752D01*
X121246742Y-65405752D02*
X121437218Y-65405752D01*
X121437218Y-65405752D02*
X121532456Y-65453371D01*
X121532456Y-65453371D02*
X121580075Y-65500990D01*
X121580075Y-65500990D02*
X121627694Y-65596228D01*
X121627694Y-65596228D02*
X121627694Y-65881942D01*
X121627694Y-65881942D02*
X121580075Y-65977180D01*
X121580075Y-65977180D02*
X121532456Y-66024800D01*
X121532456Y-66024800D02*
X121437218Y-66072419D01*
X121437218Y-66072419D02*
X121246742Y-66072419D01*
X121246742Y-66072419D02*
X121151504Y-66024800D01*
X122008647Y-66024800D02*
X122103885Y-66072419D01*
X122103885Y-66072419D02*
X122294361Y-66072419D01*
X122294361Y-66072419D02*
X122389599Y-66024800D01*
X122389599Y-66024800D02*
X122437218Y-65929561D01*
X122437218Y-65929561D02*
X122437218Y-65881942D01*
X122437218Y-65881942D02*
X122389599Y-65786704D01*
X122389599Y-65786704D02*
X122294361Y-65739085D01*
X122294361Y-65739085D02*
X122151504Y-65739085D01*
X122151504Y-65739085D02*
X122056266Y-65691466D01*
X122056266Y-65691466D02*
X122008647Y-65596228D01*
X122008647Y-65596228D02*
X122008647Y-65548609D01*
X122008647Y-65548609D02*
X122056266Y-65453371D01*
X122056266Y-65453371D02*
X122151504Y-65405752D01*
X122151504Y-65405752D02*
X122294361Y-65405752D01*
X122294361Y-65405752D02*
X122389599Y-65453371D01*
X122865790Y-65977180D02*
X122913409Y-66024800D01*
X122913409Y-66024800D02*
X122865790Y-66072419D01*
X122865790Y-66072419D02*
X122818171Y-66024800D01*
X122818171Y-66024800D02*
X122865790Y-65977180D01*
X122865790Y-65977180D02*
X122865790Y-66072419D01*
X122865790Y-65453371D02*
X122913409Y-65500990D01*
X122913409Y-65500990D02*
X122865790Y-65548609D01*
X122865790Y-65548609D02*
X122818171Y-65500990D01*
X122818171Y-65500990D02*
X122865790Y-65453371D01*
X122865790Y-65453371D02*
X122865790Y-65548609D01*
X124056265Y-65024800D02*
X123199123Y-66310514D01*
X125103884Y-65024800D02*
X124246742Y-66310514D01*
X125865789Y-65405752D02*
X125865789Y-66215276D01*
X125865789Y-66215276D02*
X125818170Y-66310514D01*
X125818170Y-66310514D02*
X125770551Y-66358133D01*
X125770551Y-66358133D02*
X125675313Y-66405752D01*
X125675313Y-66405752D02*
X125532456Y-66405752D01*
X125532456Y-66405752D02*
X125437218Y-66358133D01*
X125865789Y-66024800D02*
X125770551Y-66072419D01*
X125770551Y-66072419D02*
X125580075Y-66072419D01*
X125580075Y-66072419D02*
X125484837Y-66024800D01*
X125484837Y-66024800D02*
X125437218Y-65977180D01*
X125437218Y-65977180D02*
X125389599Y-65881942D01*
X125389599Y-65881942D02*
X125389599Y-65596228D01*
X125389599Y-65596228D02*
X125437218Y-65500990D01*
X125437218Y-65500990D02*
X125484837Y-65453371D01*
X125484837Y-65453371D02*
X125580075Y-65405752D01*
X125580075Y-65405752D02*
X125770551Y-65405752D01*
X125770551Y-65405752D02*
X125865789Y-65453371D01*
X126341980Y-66072419D02*
X126341980Y-65405752D01*
X126341980Y-65072419D02*
X126294361Y-65120038D01*
X126294361Y-65120038D02*
X126341980Y-65167657D01*
X126341980Y-65167657D02*
X126389599Y-65120038D01*
X126389599Y-65120038D02*
X126341980Y-65072419D01*
X126341980Y-65072419D02*
X126341980Y-65167657D01*
X126675313Y-65405752D02*
X127056265Y-65405752D01*
X126818170Y-65072419D02*
X126818170Y-65929561D01*
X126818170Y-65929561D02*
X126865789Y-66024800D01*
X126865789Y-66024800D02*
X126961027Y-66072419D01*
X126961027Y-66072419D02*
X127056265Y-66072419D01*
X127389599Y-66072419D02*
X127389599Y-65072419D01*
X127818170Y-66072419D02*
X127818170Y-65548609D01*
X127818170Y-65548609D02*
X127770551Y-65453371D01*
X127770551Y-65453371D02*
X127675313Y-65405752D01*
X127675313Y-65405752D02*
X127532456Y-65405752D01*
X127532456Y-65405752D02*
X127437218Y-65453371D01*
X127437218Y-65453371D02*
X127389599Y-65500990D01*
X128722932Y-65405752D02*
X128722932Y-66072419D01*
X128294361Y-65405752D02*
X128294361Y-65929561D01*
X128294361Y-65929561D02*
X128341980Y-66024800D01*
X128341980Y-66024800D02*
X128437218Y-66072419D01*
X128437218Y-66072419D02*
X128580075Y-66072419D01*
X128580075Y-66072419D02*
X128675313Y-66024800D01*
X128675313Y-66024800D02*
X128722932Y-65977180D01*
X129199123Y-66072419D02*
X129199123Y-65072419D01*
X129199123Y-65453371D02*
X129294361Y-65405752D01*
X129294361Y-65405752D02*
X129484837Y-65405752D01*
X129484837Y-65405752D02*
X129580075Y-65453371D01*
X129580075Y-65453371D02*
X129627694Y-65500990D01*
X129627694Y-65500990D02*
X129675313Y-65596228D01*
X129675313Y-65596228D02*
X129675313Y-65881942D01*
X129675313Y-65881942D02*
X129627694Y-65977180D01*
X129627694Y-65977180D02*
X129580075Y-66024800D01*
X129580075Y-66024800D02*
X129484837Y-66072419D01*
X129484837Y-66072419D02*
X129294361Y-66072419D01*
X129294361Y-66072419D02*
X129199123Y-66024800D01*
X130103885Y-65977180D02*
X130151504Y-66024800D01*
X130151504Y-66024800D02*
X130103885Y-66072419D01*
X130103885Y-66072419D02*
X130056266Y-66024800D01*
X130056266Y-66024800D02*
X130103885Y-65977180D01*
X130103885Y-65977180D02*
X130103885Y-66072419D01*
X131008646Y-66024800D02*
X130913408Y-66072419D01*
X130913408Y-66072419D02*
X130722932Y-66072419D01*
X130722932Y-66072419D02*
X130627694Y-66024800D01*
X130627694Y-66024800D02*
X130580075Y-65977180D01*
X130580075Y-65977180D02*
X130532456Y-65881942D01*
X130532456Y-65881942D02*
X130532456Y-65596228D01*
X130532456Y-65596228D02*
X130580075Y-65500990D01*
X130580075Y-65500990D02*
X130627694Y-65453371D01*
X130627694Y-65453371D02*
X130722932Y-65405752D01*
X130722932Y-65405752D02*
X130913408Y-65405752D01*
X130913408Y-65405752D02*
X131008646Y-65453371D01*
X131580075Y-66072419D02*
X131484837Y-66024800D01*
X131484837Y-66024800D02*
X131437218Y-65977180D01*
X131437218Y-65977180D02*
X131389599Y-65881942D01*
X131389599Y-65881942D02*
X131389599Y-65596228D01*
X131389599Y-65596228D02*
X131437218Y-65500990D01*
X131437218Y-65500990D02*
X131484837Y-65453371D01*
X131484837Y-65453371D02*
X131580075Y-65405752D01*
X131580075Y-65405752D02*
X131722932Y-65405752D01*
X131722932Y-65405752D02*
X131818170Y-65453371D01*
X131818170Y-65453371D02*
X131865789Y-65500990D01*
X131865789Y-65500990D02*
X131913408Y-65596228D01*
X131913408Y-65596228D02*
X131913408Y-65881942D01*
X131913408Y-65881942D02*
X131865789Y-65977180D01*
X131865789Y-65977180D02*
X131818170Y-66024800D01*
X131818170Y-66024800D02*
X131722932Y-66072419D01*
X131722932Y-66072419D02*
X131580075Y-66072419D01*
X132341980Y-66072419D02*
X132341980Y-65405752D01*
X132341980Y-65500990D02*
X132389599Y-65453371D01*
X132389599Y-65453371D02*
X132484837Y-65405752D01*
X132484837Y-65405752D02*
X132627694Y-65405752D01*
X132627694Y-65405752D02*
X132722932Y-65453371D01*
X132722932Y-65453371D02*
X132770551Y-65548609D01*
X132770551Y-65548609D02*
X132770551Y-66072419D01*
X132770551Y-65548609D02*
X132818170Y-65453371D01*
X132818170Y-65453371D02*
X132913408Y-65405752D01*
X132913408Y-65405752D02*
X133056265Y-65405752D01*
X133056265Y-65405752D02*
X133151504Y-65453371D01*
X133151504Y-65453371D02*
X133199123Y-65548609D01*
X133199123Y-65548609D02*
X133199123Y-66072419D01*
X134389598Y-65024800D02*
X133532456Y-66310514D01*
X134627694Y-65405752D02*
X134818170Y-66072419D01*
X134818170Y-66072419D02*
X135008646Y-65596228D01*
X135008646Y-65596228D02*
X135199122Y-66072419D01*
X135199122Y-66072419D02*
X135389598Y-65405752D01*
X135627694Y-65405752D02*
X136008646Y-65405752D01*
X135770551Y-66072419D02*
X135770551Y-65215276D01*
X135770551Y-65215276D02*
X135818170Y-65120038D01*
X135818170Y-65120038D02*
X135913408Y-65072419D01*
X135913408Y-65072419D02*
X136008646Y-65072419D01*
X136770551Y-66072419D02*
X136770551Y-65072419D01*
X136770551Y-66024800D02*
X136675313Y-66072419D01*
X136675313Y-66072419D02*
X136484837Y-66072419D01*
X136484837Y-66072419D02*
X136389599Y-66024800D01*
X136389599Y-66024800D02*
X136341980Y-65977180D01*
X136341980Y-65977180D02*
X136294361Y-65881942D01*
X136294361Y-65881942D02*
X136294361Y-65596228D01*
X136294361Y-65596228D02*
X136341980Y-65500990D01*
X136341980Y-65500990D02*
X136389599Y-65453371D01*
X136389599Y-65453371D02*
X136484837Y-65405752D01*
X136484837Y-65405752D02*
X136675313Y-65405752D01*
X136675313Y-65405752D02*
X136770551Y-65453371D01*
X137151504Y-65072419D02*
X137770551Y-65072419D01*
X137770551Y-65072419D02*
X137437218Y-65453371D01*
X137437218Y-65453371D02*
X137580075Y-65453371D01*
X137580075Y-65453371D02*
X137675313Y-65500990D01*
X137675313Y-65500990D02*
X137722932Y-65548609D01*
X137722932Y-65548609D02*
X137770551Y-65643847D01*
X137770551Y-65643847D02*
X137770551Y-65881942D01*
X137770551Y-65881942D02*
X137722932Y-65977180D01*
X137722932Y-65977180D02*
X137675313Y-66024800D01*
X137675313Y-66024800D02*
X137580075Y-66072419D01*
X137580075Y-66072419D02*
X137294361Y-66072419D01*
X137294361Y-66072419D02*
X137199123Y-66024800D01*
X137199123Y-66024800D02*
X137151504Y-65977180D01*
X138913408Y-65024800D02*
X138056266Y-66310514D01*
X139246742Y-66072419D02*
X139246742Y-65072419D01*
X139818170Y-66072419D02*
X139389599Y-65500990D01*
X139818170Y-65072419D02*
X139246742Y-65643847D01*
X140246742Y-66072419D02*
X140246742Y-65072419D01*
X140722932Y-66072419D02*
X140722932Y-65072419D01*
X140722932Y-65072419D02*
X141056265Y-65786704D01*
X141056265Y-65786704D02*
X141389598Y-65072419D01*
X141389598Y-65072419D02*
X141389598Y-66072419D01*
X142389598Y-66072419D02*
X141818170Y-66072419D01*
X142103884Y-66072419D02*
X142103884Y-65072419D01*
X142103884Y-65072419D02*
X142008646Y-65215276D01*
X142008646Y-65215276D02*
X141913408Y-65310514D01*
X141913408Y-65310514D02*
X141818170Y-65358133D01*
X142818170Y-65691466D02*
X143580075Y-65691466D01*
X144056265Y-66072419D02*
X144056265Y-65072419D01*
X144056265Y-65453371D02*
X144151503Y-65405752D01*
X144151503Y-65405752D02*
X144341979Y-65405752D01*
X144341979Y-65405752D02*
X144437217Y-65453371D01*
X144437217Y-65453371D02*
X144484836Y-65500990D01*
X144484836Y-65500990D02*
X144532455Y-65596228D01*
X144532455Y-65596228D02*
X144532455Y-65881942D01*
X144532455Y-65881942D02*
X144484836Y-65977180D01*
X144484836Y-65977180D02*
X144437217Y-66024800D01*
X144437217Y-66024800D02*
X144341979Y-66072419D01*
X144341979Y-66072419D02*
X144151503Y-66072419D01*
X144151503Y-66072419D02*
X144056265Y-66024800D01*
X144961027Y-66072419D02*
X144961027Y-65405752D01*
X144961027Y-65596228D02*
X145008646Y-65500990D01*
X145008646Y-65500990D02*
X145056265Y-65453371D01*
X145056265Y-65453371D02*
X145151503Y-65405752D01*
X145151503Y-65405752D02*
X145246741Y-65405752D01*
X145961027Y-66024800D02*
X145865789Y-66072419D01*
X145865789Y-66072419D02*
X145675313Y-66072419D01*
X145675313Y-66072419D02*
X145580075Y-66024800D01*
X145580075Y-66024800D02*
X145532456Y-65929561D01*
X145532456Y-65929561D02*
X145532456Y-65548609D01*
X145532456Y-65548609D02*
X145580075Y-65453371D01*
X145580075Y-65453371D02*
X145675313Y-65405752D01*
X145675313Y-65405752D02*
X145865789Y-65405752D01*
X145865789Y-65405752D02*
X145961027Y-65453371D01*
X145961027Y-65453371D02*
X146008646Y-65548609D01*
X146008646Y-65548609D02*
X146008646Y-65643847D01*
X146008646Y-65643847D02*
X145532456Y-65739085D01*
X146865789Y-66072419D02*
X146865789Y-65548609D01*
X146865789Y-65548609D02*
X146818170Y-65453371D01*
X146818170Y-65453371D02*
X146722932Y-65405752D01*
X146722932Y-65405752D02*
X146532456Y-65405752D01*
X146532456Y-65405752D02*
X146437218Y-65453371D01*
X146865789Y-66024800D02*
X146770551Y-66072419D01*
X146770551Y-66072419D02*
X146532456Y-66072419D01*
X146532456Y-66072419D02*
X146437218Y-66024800D01*
X146437218Y-66024800D02*
X146389599Y-65929561D01*
X146389599Y-65929561D02*
X146389599Y-65834323D01*
X146389599Y-65834323D02*
X146437218Y-65739085D01*
X146437218Y-65739085D02*
X146532456Y-65691466D01*
X146532456Y-65691466D02*
X146770551Y-65691466D01*
X146770551Y-65691466D02*
X146865789Y-65643847D01*
X147341980Y-66072419D02*
X147341980Y-65072419D01*
X147437218Y-65691466D02*
X147722932Y-66072419D01*
X147722932Y-65405752D02*
X147341980Y-65786704D01*
X148294361Y-66072419D02*
X148199123Y-66024800D01*
X148199123Y-66024800D02*
X148151504Y-65977180D01*
X148151504Y-65977180D02*
X148103885Y-65881942D01*
X148103885Y-65881942D02*
X148103885Y-65596228D01*
X148103885Y-65596228D02*
X148151504Y-65500990D01*
X148151504Y-65500990D02*
X148199123Y-65453371D01*
X148199123Y-65453371D02*
X148294361Y-65405752D01*
X148294361Y-65405752D02*
X148437218Y-65405752D01*
X148437218Y-65405752D02*
X148532456Y-65453371D01*
X148532456Y-65453371D02*
X148580075Y-65500990D01*
X148580075Y-65500990D02*
X148627694Y-65596228D01*
X148627694Y-65596228D02*
X148627694Y-65881942D01*
X148627694Y-65881942D02*
X148580075Y-65977180D01*
X148580075Y-65977180D02*
X148532456Y-66024800D01*
X148532456Y-66024800D02*
X148437218Y-66072419D01*
X148437218Y-66072419D02*
X148294361Y-66072419D01*
X149484837Y-65405752D02*
X149484837Y-66072419D01*
X149056266Y-65405752D02*
X149056266Y-65929561D01*
X149056266Y-65929561D02*
X149103885Y-66024800D01*
X149103885Y-66024800D02*
X149199123Y-66072419D01*
X149199123Y-66072419D02*
X149341980Y-66072419D01*
X149341980Y-66072419D02*
X149437218Y-66024800D01*
X149437218Y-66024800D02*
X149484837Y-65977180D01*
X149818171Y-65405752D02*
X150199123Y-65405752D01*
X149961028Y-65072419D02*
X149961028Y-65929561D01*
X149961028Y-65929561D02*
X150008647Y-66024800D01*
X150008647Y-66024800D02*
X150103885Y-66072419D01*
X150103885Y-66072419D02*
X150199123Y-66072419D01*
X150532457Y-65691466D02*
X151294362Y-65691466D01*
X151770552Y-66072419D02*
X151770552Y-65072419D01*
X151770552Y-65453371D02*
X151865790Y-65405752D01*
X151865790Y-65405752D02*
X152056266Y-65405752D01*
X152056266Y-65405752D02*
X152151504Y-65453371D01*
X152151504Y-65453371D02*
X152199123Y-65500990D01*
X152199123Y-65500990D02*
X152246742Y-65596228D01*
X152246742Y-65596228D02*
X152246742Y-65881942D01*
X152246742Y-65881942D02*
X152199123Y-65977180D01*
X152199123Y-65977180D02*
X152151504Y-66024800D01*
X152151504Y-66024800D02*
X152056266Y-66072419D01*
X152056266Y-66072419D02*
X151865790Y-66072419D01*
X151865790Y-66072419D02*
X151770552Y-66024800D01*
X152818171Y-66072419D02*
X152722933Y-66024800D01*
X152722933Y-66024800D02*
X152675314Y-65977180D01*
X152675314Y-65977180D02*
X152627695Y-65881942D01*
X152627695Y-65881942D02*
X152627695Y-65596228D01*
X152627695Y-65596228D02*
X152675314Y-65500990D01*
X152675314Y-65500990D02*
X152722933Y-65453371D01*
X152722933Y-65453371D02*
X152818171Y-65405752D01*
X152818171Y-65405752D02*
X152961028Y-65405752D01*
X152961028Y-65405752D02*
X153056266Y-65453371D01*
X153056266Y-65453371D02*
X153103885Y-65500990D01*
X153103885Y-65500990D02*
X153151504Y-65596228D01*
X153151504Y-65596228D02*
X153151504Y-65881942D01*
X153151504Y-65881942D02*
X153103885Y-65977180D01*
X153103885Y-65977180D02*
X153056266Y-66024800D01*
X153056266Y-66024800D02*
X152961028Y-66072419D01*
X152961028Y-66072419D02*
X152818171Y-66072419D01*
X154008647Y-66072419D02*
X154008647Y-65548609D01*
X154008647Y-65548609D02*
X153961028Y-65453371D01*
X153961028Y-65453371D02*
X153865790Y-65405752D01*
X153865790Y-65405752D02*
X153675314Y-65405752D01*
X153675314Y-65405752D02*
X153580076Y-65453371D01*
X154008647Y-66024800D02*
X153913409Y-66072419D01*
X153913409Y-66072419D02*
X153675314Y-66072419D01*
X153675314Y-66072419D02*
X153580076Y-66024800D01*
X153580076Y-66024800D02*
X153532457Y-65929561D01*
X153532457Y-65929561D02*
X153532457Y-65834323D01*
X153532457Y-65834323D02*
X153580076Y-65739085D01*
X153580076Y-65739085D02*
X153675314Y-65691466D01*
X153675314Y-65691466D02*
X153913409Y-65691466D01*
X153913409Y-65691466D02*
X154008647Y-65643847D01*
X154484838Y-66072419D02*
X154484838Y-65405752D01*
X154484838Y-65596228D02*
X154532457Y-65500990D01*
X154532457Y-65500990D02*
X154580076Y-65453371D01*
X154580076Y-65453371D02*
X154675314Y-65405752D01*
X154675314Y-65405752D02*
X154770552Y-65405752D01*
X155532457Y-66072419D02*
X155532457Y-65072419D01*
X155532457Y-66024800D02*
X155437219Y-66072419D01*
X155437219Y-66072419D02*
X155246743Y-66072419D01*
X155246743Y-66072419D02*
X155151505Y-66024800D01*
X155151505Y-66024800D02*
X155103886Y-65977180D01*
X155103886Y-65977180D02*
X155056267Y-65881942D01*
X155056267Y-65881942D02*
X155056267Y-65596228D01*
X155056267Y-65596228D02*
X155103886Y-65500990D01*
X155103886Y-65500990D02*
X155151505Y-65453371D01*
X155151505Y-65453371D02*
X155246743Y-65405752D01*
X155246743Y-65405752D02*
X155437219Y-65405752D01*
X155437219Y-65405752D02*
X155532457Y-65453371D01*
X139203884Y-93172419D02*
X139394360Y-93172419D01*
X139394360Y-93172419D02*
X139489598Y-93124800D01*
X139489598Y-93124800D02*
X139537217Y-93077180D01*
X139537217Y-93077180D02*
X139632455Y-92934323D01*
X139632455Y-92934323D02*
X139680074Y-92743847D01*
X139680074Y-92743847D02*
X139680074Y-92362895D01*
X139680074Y-92362895D02*
X139632455Y-92267657D01*
X139632455Y-92267657D02*
X139584836Y-92220038D01*
X139584836Y-92220038D02*
X139489598Y-92172419D01*
X139489598Y-92172419D02*
X139299122Y-92172419D01*
X139299122Y-92172419D02*
X139203884Y-92220038D01*
X139203884Y-92220038D02*
X139156265Y-92267657D01*
X139156265Y-92267657D02*
X139108646Y-92362895D01*
X139108646Y-92362895D02*
X139108646Y-92600990D01*
X139108646Y-92600990D02*
X139156265Y-92696228D01*
X139156265Y-92696228D02*
X139203884Y-92743847D01*
X139203884Y-92743847D02*
X139299122Y-92791466D01*
X139299122Y-92791466D02*
X139489598Y-92791466D01*
X139489598Y-92791466D02*
X139584836Y-92743847D01*
X139584836Y-92743847D02*
X139632455Y-92696228D01*
X139632455Y-92696228D02*
X139680074Y-92600990D01*
X151003884Y-103072419D02*
X151003884Y-102072419D01*
X151003884Y-102072419D02*
X151384836Y-102072419D01*
X151384836Y-102072419D02*
X151480074Y-102120038D01*
X151480074Y-102120038D02*
X151527693Y-102167657D01*
X151527693Y-102167657D02*
X151575312Y-102262895D01*
X151575312Y-102262895D02*
X151575312Y-102405752D01*
X151575312Y-102405752D02*
X151527693Y-102500990D01*
X151527693Y-102500990D02*
X151480074Y-102548609D01*
X151480074Y-102548609D02*
X151384836Y-102596228D01*
X151384836Y-102596228D02*
X151003884Y-102596228D01*
X150861027Y-114772419D02*
X151194360Y-115772419D01*
X151194360Y-115772419D02*
X151527693Y-114772419D01*
X151003884Y-80472419D02*
X151003884Y-79472419D01*
X151003884Y-79472419D02*
X151241979Y-79472419D01*
X151241979Y-79472419D02*
X151384836Y-79520038D01*
X151384836Y-79520038D02*
X151480074Y-79615276D01*
X151480074Y-79615276D02*
X151527693Y-79710514D01*
X151527693Y-79710514D02*
X151575312Y-79900990D01*
X151575312Y-79900990D02*
X151575312Y-80043847D01*
X151575312Y-80043847D02*
X151527693Y-80234323D01*
X151527693Y-80234323D02*
X151480074Y-80329561D01*
X151480074Y-80329561D02*
X151384836Y-80424800D01*
X151384836Y-80424800D02*
X151241979Y-80472419D01*
X151241979Y-80472419D02*
X151003884Y-80472419D01*
X138727693Y-115872419D02*
X138156265Y-115872419D01*
X138441979Y-115872419D02*
X138441979Y-114872419D01*
X138441979Y-114872419D02*
X138346741Y-115015276D01*
X138346741Y-115015276D02*
X138251503Y-115110514D01*
X138251503Y-115110514D02*
X138156265Y-115158133D01*
X139299122Y-115300990D02*
X139203884Y-115253371D01*
X139203884Y-115253371D02*
X139156265Y-115205752D01*
X139156265Y-115205752D02*
X139108646Y-115110514D01*
X139108646Y-115110514D02*
X139108646Y-115062895D01*
X139108646Y-115062895D02*
X139156265Y-114967657D01*
X139156265Y-114967657D02*
X139203884Y-114920038D01*
X139203884Y-114920038D02*
X139299122Y-114872419D01*
X139299122Y-114872419D02*
X139489598Y-114872419D01*
X139489598Y-114872419D02*
X139584836Y-114920038D01*
X139584836Y-114920038D02*
X139632455Y-114967657D01*
X139632455Y-114967657D02*
X139680074Y-115062895D01*
X139680074Y-115062895D02*
X139680074Y-115110514D01*
X139680074Y-115110514D02*
X139632455Y-115205752D01*
X139632455Y-115205752D02*
X139584836Y-115253371D01*
X139584836Y-115253371D02*
X139489598Y-115300990D01*
X139489598Y-115300990D02*
X139299122Y-115300990D01*
X139299122Y-115300990D02*
X139203884Y-115348609D01*
X139203884Y-115348609D02*
X139156265Y-115396228D01*
X139156265Y-115396228D02*
X139108646Y-115491466D01*
X139108646Y-115491466D02*
X139108646Y-115681942D01*
X139108646Y-115681942D02*
X139156265Y-115777180D01*
X139156265Y-115777180D02*
X139203884Y-115824800D01*
X139203884Y-115824800D02*
X139299122Y-115872419D01*
X139299122Y-115872419D02*
X139489598Y-115872419D01*
X139489598Y-115872419D02*
X139584836Y-115824800D01*
X139584836Y-115824800D02*
X139632455Y-115777180D01*
X139632455Y-115777180D02*
X139680074Y-115681942D01*
X139680074Y-115681942D02*
X139680074Y-115491466D01*
X139680074Y-115491466D02*
X139632455Y-115396228D01*
X139632455Y-115396228D02*
X139584836Y-115348609D01*
X139584836Y-115348609D02*
X139489598Y-115300990D01*
X138727693Y-95572419D02*
X138156265Y-95572419D01*
X138441979Y-95572419D02*
X138441979Y-94572419D01*
X138441979Y-94572419D02*
X138346741Y-94715276D01*
X138346741Y-94715276D02*
X138251503Y-94810514D01*
X138251503Y-94810514D02*
X138156265Y-94858133D01*
X139346741Y-94572419D02*
X139441979Y-94572419D01*
X139441979Y-94572419D02*
X139537217Y-94620038D01*
X139537217Y-94620038D02*
X139584836Y-94667657D01*
X139584836Y-94667657D02*
X139632455Y-94762895D01*
X139632455Y-94762895D02*
X139680074Y-94953371D01*
X139680074Y-94953371D02*
X139680074Y-95191466D01*
X139680074Y-95191466D02*
X139632455Y-95381942D01*
X139632455Y-95381942D02*
X139584836Y-95477180D01*
X139584836Y-95477180D02*
X139537217Y-95524800D01*
X139537217Y-95524800D02*
X139441979Y-95572419D01*
X139441979Y-95572419D02*
X139346741Y-95572419D01*
X139346741Y-95572419D02*
X139251503Y-95524800D01*
X139251503Y-95524800D02*
X139203884Y-95477180D01*
X139203884Y-95477180D02*
X139156265Y-95381942D01*
X139156265Y-95381942D02*
X139108646Y-95191466D01*
X139108646Y-95191466D02*
X139108646Y-94953371D01*
X139108646Y-94953371D02*
X139156265Y-94762895D01*
X139156265Y-94762895D02*
X139203884Y-94667657D01*
X139203884Y-94667657D02*
X139251503Y-94620038D01*
X139251503Y-94620038D02*
X139346741Y-94572419D01*
X138727693Y-100672419D02*
X138156265Y-100672419D01*
X138441979Y-100672419D02*
X138441979Y-99672419D01*
X138441979Y-99672419D02*
X138346741Y-99815276D01*
X138346741Y-99815276D02*
X138251503Y-99910514D01*
X138251503Y-99910514D02*
X138156265Y-99958133D01*
X139108646Y-99767657D02*
X139156265Y-99720038D01*
X139156265Y-99720038D02*
X139251503Y-99672419D01*
X139251503Y-99672419D02*
X139489598Y-99672419D01*
X139489598Y-99672419D02*
X139584836Y-99720038D01*
X139584836Y-99720038D02*
X139632455Y-99767657D01*
X139632455Y-99767657D02*
X139680074Y-99862895D01*
X139680074Y-99862895D02*
X139680074Y-99958133D01*
X139680074Y-99958133D02*
X139632455Y-100100990D01*
X139632455Y-100100990D02*
X139061027Y-100672419D01*
X139061027Y-100672419D02*
X139680074Y-100672419D01*
X151003884Y-100572419D02*
X151003884Y-99572419D01*
X151003884Y-99572419D02*
X151575312Y-100572419D01*
X151575312Y-100572419D02*
X151575312Y-99572419D01*
X139061027Y-76872419D02*
X139680074Y-76872419D01*
X139680074Y-76872419D02*
X139346741Y-77253371D01*
X139346741Y-77253371D02*
X139489598Y-77253371D01*
X139489598Y-77253371D02*
X139584836Y-77300990D01*
X139584836Y-77300990D02*
X139632455Y-77348609D01*
X139632455Y-77348609D02*
X139680074Y-77443847D01*
X139680074Y-77443847D02*
X139680074Y-77681942D01*
X139680074Y-77681942D02*
X139632455Y-77777180D01*
X139632455Y-77777180D02*
X139584836Y-77824800D01*
X139584836Y-77824800D02*
X139489598Y-77872419D01*
X139489598Y-77872419D02*
X139203884Y-77872419D01*
X139203884Y-77872419D02*
X139108646Y-77824800D01*
X139108646Y-77824800D02*
X139061027Y-77777180D01*
D13*
X168240225Y-54700828D02*
X169097368Y-54700828D01*
X168668796Y-56200828D02*
X168668796Y-54700828D01*
X169883082Y-54700828D02*
X170168796Y-54700828D01*
X170168796Y-54700828D02*
X170311653Y-54772257D01*
X170311653Y-54772257D02*
X170454510Y-54915114D01*
X170454510Y-54915114D02*
X170525939Y-55200828D01*
X170525939Y-55200828D02*
X170525939Y-55700828D01*
X170525939Y-55700828D02*
X170454510Y-55986542D01*
X170454510Y-55986542D02*
X170311653Y-56129400D01*
X170311653Y-56129400D02*
X170168796Y-56200828D01*
X170168796Y-56200828D02*
X169883082Y-56200828D01*
X169883082Y-56200828D02*
X169740225Y-56129400D01*
X169740225Y-56129400D02*
X169597367Y-55986542D01*
X169597367Y-55986542D02*
X169525939Y-55700828D01*
X169525939Y-55700828D02*
X169525939Y-55200828D01*
X169525939Y-55200828D02*
X169597367Y-54915114D01*
X169597367Y-54915114D02*
X169740225Y-54772257D01*
X169740225Y-54772257D02*
X169883082Y-54700828D01*
X171168796Y-56200828D02*
X171168796Y-54700828D01*
X171168796Y-54700828D02*
X171740225Y-54700828D01*
X171740225Y-54700828D02*
X171883082Y-54772257D01*
X171883082Y-54772257D02*
X171954511Y-54843685D01*
X171954511Y-54843685D02*
X172025939Y-54986542D01*
X172025939Y-54986542D02*
X172025939Y-55200828D01*
X172025939Y-55200828D02*
X171954511Y-55343685D01*
X171954511Y-55343685D02*
X171883082Y-55415114D01*
X171883082Y-55415114D02*
X171740225Y-55486542D01*
X171740225Y-55486542D02*
X171168796Y-55486542D01*
D10*
X150861027Y-109772419D02*
X151432455Y-109772419D01*
X151146741Y-110772419D02*
X151146741Y-109772419D01*
X116189598Y-54172419D02*
X116189598Y-54886704D01*
X116189598Y-54886704D02*
X116141979Y-55029561D01*
X116141979Y-55029561D02*
X116046741Y-55124800D01*
X116046741Y-55124800D02*
X115903884Y-55172419D01*
X115903884Y-55172419D02*
X115808646Y-55172419D01*
X117189598Y-55172419D02*
X116618170Y-55172419D01*
X116903884Y-55172419D02*
X116903884Y-54172419D01*
X116903884Y-54172419D02*
X116808646Y-54315276D01*
X116808646Y-54315276D02*
X116713408Y-54410514D01*
X116713408Y-54410514D02*
X116618170Y-54458133D01*
X139061027Y-87072419D02*
X139727693Y-87072419D01*
X139727693Y-87072419D02*
X139299122Y-88072419D01*
D13*
X160340225Y-140972257D02*
X160197368Y-140900828D01*
X160197368Y-140900828D02*
X159983082Y-140900828D01*
X159983082Y-140900828D02*
X159768796Y-140972257D01*
X159768796Y-140972257D02*
X159625939Y-141115114D01*
X159625939Y-141115114D02*
X159554510Y-141257971D01*
X159554510Y-141257971D02*
X159483082Y-141543685D01*
X159483082Y-141543685D02*
X159483082Y-141757971D01*
X159483082Y-141757971D02*
X159554510Y-142043685D01*
X159554510Y-142043685D02*
X159625939Y-142186542D01*
X159625939Y-142186542D02*
X159768796Y-142329400D01*
X159768796Y-142329400D02*
X159983082Y-142400828D01*
X159983082Y-142400828D02*
X160125939Y-142400828D01*
X160125939Y-142400828D02*
X160340225Y-142329400D01*
X160340225Y-142329400D02*
X160411653Y-142257971D01*
X160411653Y-142257971D02*
X160411653Y-141757971D01*
X160411653Y-141757971D02*
X160125939Y-141757971D01*
X161054510Y-142400828D02*
X161054510Y-140900828D01*
X161054510Y-140900828D02*
X161911653Y-142400828D01*
X161911653Y-142400828D02*
X161911653Y-140900828D01*
X162625939Y-142400828D02*
X162625939Y-140900828D01*
X162625939Y-140900828D02*
X162983082Y-140900828D01*
X162983082Y-140900828D02*
X163197368Y-140972257D01*
X163197368Y-140972257D02*
X163340225Y-141115114D01*
X163340225Y-141115114D02*
X163411654Y-141257971D01*
X163411654Y-141257971D02*
X163483082Y-141543685D01*
X163483082Y-141543685D02*
X163483082Y-141757971D01*
X163483082Y-141757971D02*
X163411654Y-142043685D01*
X163411654Y-142043685D02*
X163340225Y-142186542D01*
X163340225Y-142186542D02*
X163197368Y-142329400D01*
X163197368Y-142329400D02*
X162983082Y-142400828D01*
X162983082Y-142400828D02*
X162625939Y-142400828D01*
D10*
X150908646Y-119872419D02*
X151575312Y-120872419D01*
X151575312Y-119872419D02*
X150908646Y-120872419D01*
X151480074Y-95472419D02*
X151003884Y-95472419D01*
X151003884Y-95472419D02*
X151003884Y-94472419D01*
D14*
X129954819Y-143119047D02*
X129954819Y-143595237D01*
X129954819Y-143595237D02*
X130431009Y-143642856D01*
X130431009Y-143642856D02*
X130383390Y-143595237D01*
X130383390Y-143595237D02*
X130335771Y-143499999D01*
X130335771Y-143499999D02*
X130335771Y-143261904D01*
X130335771Y-143261904D02*
X130383390Y-143166666D01*
X130383390Y-143166666D02*
X130431009Y-143119047D01*
X130431009Y-143119047D02*
X130526247Y-143071428D01*
X130526247Y-143071428D02*
X130764342Y-143071428D01*
X130764342Y-143071428D02*
X130859580Y-143119047D01*
X130859580Y-143119047D02*
X130907200Y-143166666D01*
X130907200Y-143166666D02*
X130954819Y-143261904D01*
X130954819Y-143261904D02*
X130954819Y-143499999D01*
X130954819Y-143499999D02*
X130907200Y-143595237D01*
X130907200Y-143595237D02*
X130859580Y-143642856D01*
X129954819Y-142785713D02*
X130954819Y-142452380D01*
X130954819Y-142452380D02*
X129954819Y-142119047D01*
X130954819Y-141023808D02*
X129954819Y-141023808D01*
X129954819Y-141023808D02*
X129954819Y-140642856D01*
X129954819Y-140642856D02*
X130002438Y-140547618D01*
X130002438Y-140547618D02*
X130050057Y-140499999D01*
X130050057Y-140499999D02*
X130145295Y-140452380D01*
X130145295Y-140452380D02*
X130288152Y-140452380D01*
X130288152Y-140452380D02*
X130383390Y-140499999D01*
X130383390Y-140499999D02*
X130431009Y-140547618D01*
X130431009Y-140547618D02*
X130478628Y-140642856D01*
X130478628Y-140642856D02*
X130478628Y-141023808D01*
X129954819Y-139833332D02*
X129954819Y-139642856D01*
X129954819Y-139642856D02*
X130002438Y-139547618D01*
X130002438Y-139547618D02*
X130097676Y-139452380D01*
X130097676Y-139452380D02*
X130288152Y-139404761D01*
X130288152Y-139404761D02*
X130621485Y-139404761D01*
X130621485Y-139404761D02*
X130811961Y-139452380D01*
X130811961Y-139452380D02*
X130907200Y-139547618D01*
X130907200Y-139547618D02*
X130954819Y-139642856D01*
X130954819Y-139642856D02*
X130954819Y-139833332D01*
X130954819Y-139833332D02*
X130907200Y-139928570D01*
X130907200Y-139928570D02*
X130811961Y-140023808D01*
X130811961Y-140023808D02*
X130621485Y-140071427D01*
X130621485Y-140071427D02*
X130288152Y-140071427D01*
X130288152Y-140071427D02*
X130097676Y-140023808D01*
X130097676Y-140023808D02*
X130002438Y-139928570D01*
X130002438Y-139928570D02*
X129954819Y-139833332D01*
X129954819Y-139071427D02*
X130954819Y-138833332D01*
X130954819Y-138833332D02*
X130240533Y-138642856D01*
X130240533Y-138642856D02*
X130954819Y-138452380D01*
X130954819Y-138452380D02*
X129954819Y-138214285D01*
X130431009Y-137833332D02*
X130431009Y-137499999D01*
X130954819Y-137357142D02*
X130954819Y-137833332D01*
X130954819Y-137833332D02*
X129954819Y-137833332D01*
X129954819Y-137833332D02*
X129954819Y-137357142D01*
X130954819Y-136357142D02*
X130478628Y-136690475D01*
X130954819Y-136928570D02*
X129954819Y-136928570D01*
X129954819Y-136928570D02*
X129954819Y-136547618D01*
X129954819Y-136547618D02*
X130002438Y-136452380D01*
X130002438Y-136452380D02*
X130050057Y-136404761D01*
X130050057Y-136404761D02*
X130145295Y-136357142D01*
X130145295Y-136357142D02*
X130288152Y-136357142D01*
X130288152Y-136357142D02*
X130383390Y-136404761D01*
X130383390Y-136404761D02*
X130431009Y-136452380D01*
X130431009Y-136452380D02*
X130478628Y-136547618D01*
X130478628Y-136547618D02*
X130478628Y-136928570D01*
D10*
X151575312Y-105672419D02*
X151241979Y-105196228D01*
X151003884Y-105672419D02*
X151003884Y-104672419D01*
X151003884Y-104672419D02*
X151384836Y-104672419D01*
X151384836Y-104672419D02*
X151480074Y-104720038D01*
X151480074Y-104720038D02*
X151527693Y-104767657D01*
X151527693Y-104767657D02*
X151575312Y-104862895D01*
X151575312Y-104862895D02*
X151575312Y-105005752D01*
X151575312Y-105005752D02*
X151527693Y-105100990D01*
X151527693Y-105100990D02*
X151480074Y-105148609D01*
X151480074Y-105148609D02*
X151384836Y-105196228D01*
X151384836Y-105196228D02*
X151003884Y-105196228D01*
D13*
X157654510Y-138700828D02*
X157654510Y-137200828D01*
X157654510Y-137200828D02*
X158225939Y-137200828D01*
X158225939Y-137200828D02*
X158368796Y-137272257D01*
X158368796Y-137272257D02*
X158440225Y-137343685D01*
X158440225Y-137343685D02*
X158511653Y-137486542D01*
X158511653Y-137486542D02*
X158511653Y-137700828D01*
X158511653Y-137700828D02*
X158440225Y-137843685D01*
X158440225Y-137843685D02*
X158368796Y-137915114D01*
X158368796Y-137915114D02*
X158225939Y-137986542D01*
X158225939Y-137986542D02*
X157654510Y-137986542D01*
X159154510Y-138700828D02*
X159154510Y-137700828D01*
X159154510Y-137200828D02*
X159083082Y-137272257D01*
X159083082Y-137272257D02*
X159154510Y-137343685D01*
X159154510Y-137343685D02*
X159225939Y-137272257D01*
X159225939Y-137272257D02*
X159154510Y-137200828D01*
X159154510Y-137200828D02*
X159154510Y-137343685D01*
X159868796Y-137700828D02*
X159868796Y-138700828D01*
X159868796Y-137843685D02*
X159940225Y-137772257D01*
X159940225Y-137772257D02*
X160083082Y-137700828D01*
X160083082Y-137700828D02*
X160297368Y-137700828D01*
X160297368Y-137700828D02*
X160440225Y-137772257D01*
X160440225Y-137772257D02*
X160511654Y-137915114D01*
X160511654Y-137915114D02*
X160511654Y-138700828D01*
X162368796Y-138700828D02*
X162368796Y-137200828D01*
X163225939Y-138700828D02*
X162583082Y-137843685D01*
X163225939Y-137200828D02*
X162368796Y-138057971D01*
D10*
X151194360Y-122996228D02*
X151194360Y-123472419D01*
X150861027Y-122472419D02*
X151194360Y-122996228D01*
X151194360Y-122996228D02*
X151527693Y-122472419D01*
X151003884Y-87972419D02*
X151003884Y-86972419D01*
X151003884Y-87448609D02*
X151575312Y-87448609D01*
X151575312Y-87972419D02*
X151575312Y-86972419D01*
X139632455Y-81972419D02*
X139156265Y-81972419D01*
X139156265Y-81972419D02*
X139108646Y-82448609D01*
X139108646Y-82448609D02*
X139156265Y-82400990D01*
X139156265Y-82400990D02*
X139251503Y-82353371D01*
X139251503Y-82353371D02*
X139489598Y-82353371D01*
X139489598Y-82353371D02*
X139584836Y-82400990D01*
X139584836Y-82400990D02*
X139632455Y-82448609D01*
X139632455Y-82448609D02*
X139680074Y-82543847D01*
X139680074Y-82543847D02*
X139680074Y-82781942D01*
X139680074Y-82781942D02*
X139632455Y-82877180D01*
X139632455Y-82877180D02*
X139584836Y-82924800D01*
X139584836Y-82924800D02*
X139489598Y-82972419D01*
X139489598Y-82972419D02*
X139251503Y-82972419D01*
X139251503Y-82972419D02*
X139156265Y-82924800D01*
X139156265Y-82924800D02*
X139108646Y-82877180D01*
X151575312Y-77677180D02*
X151527693Y-77724800D01*
X151527693Y-77724800D02*
X151384836Y-77772419D01*
X151384836Y-77772419D02*
X151289598Y-77772419D01*
X151289598Y-77772419D02*
X151146741Y-77724800D01*
X151146741Y-77724800D02*
X151051503Y-77629561D01*
X151051503Y-77629561D02*
X151003884Y-77534323D01*
X151003884Y-77534323D02*
X150956265Y-77343847D01*
X150956265Y-77343847D02*
X150956265Y-77200990D01*
X150956265Y-77200990D02*
X151003884Y-77010514D01*
X151003884Y-77010514D02*
X151051503Y-76915276D01*
X151051503Y-76915276D02*
X151146741Y-76820038D01*
X151146741Y-76820038D02*
X151289598Y-76772419D01*
X151289598Y-76772419D02*
X151384836Y-76772419D01*
X151384836Y-76772419D02*
X151527693Y-76820038D01*
X151527693Y-76820038D02*
X151575312Y-76867657D01*
X138727693Y-105772419D02*
X138156265Y-105772419D01*
X138441979Y-105772419D02*
X138441979Y-104772419D01*
X138441979Y-104772419D02*
X138346741Y-104915276D01*
X138346741Y-104915276D02*
X138251503Y-105010514D01*
X138251503Y-105010514D02*
X138156265Y-105058133D01*
X139584836Y-105105752D02*
X139584836Y-105772419D01*
X139346741Y-104724800D02*
X139108646Y-105439085D01*
X139108646Y-105439085D02*
X139727693Y-105439085D01*
X151003884Y-93072419D02*
X151003884Y-92072419D01*
X151575312Y-93072419D02*
X151146741Y-92500990D01*
X151575312Y-92072419D02*
X151003884Y-92643847D01*
X139584836Y-84472419D02*
X139394360Y-84472419D01*
X139394360Y-84472419D02*
X139299122Y-84520038D01*
X139299122Y-84520038D02*
X139251503Y-84567657D01*
X139251503Y-84567657D02*
X139156265Y-84710514D01*
X139156265Y-84710514D02*
X139108646Y-84900990D01*
X139108646Y-84900990D02*
X139108646Y-85281942D01*
X139108646Y-85281942D02*
X139156265Y-85377180D01*
X139156265Y-85377180D02*
X139203884Y-85424800D01*
X139203884Y-85424800D02*
X139299122Y-85472419D01*
X139299122Y-85472419D02*
X139489598Y-85472419D01*
X139489598Y-85472419D02*
X139584836Y-85424800D01*
X139584836Y-85424800D02*
X139632455Y-85377180D01*
X139632455Y-85377180D02*
X139680074Y-85281942D01*
X139680074Y-85281942D02*
X139680074Y-85043847D01*
X139680074Y-85043847D02*
X139632455Y-84948609D01*
X139632455Y-84948609D02*
X139584836Y-84900990D01*
X139584836Y-84900990D02*
X139489598Y-84853371D01*
X139489598Y-84853371D02*
X139299122Y-84853371D01*
X139299122Y-84853371D02*
X139203884Y-84900990D01*
X139203884Y-84900990D02*
X139156265Y-84948609D01*
X139156265Y-84948609D02*
X139108646Y-85043847D01*
X138156265Y-122667657D02*
X138203884Y-122620038D01*
X138203884Y-122620038D02*
X138299122Y-122572419D01*
X138299122Y-122572419D02*
X138537217Y-122572419D01*
X138537217Y-122572419D02*
X138632455Y-122620038D01*
X138632455Y-122620038D02*
X138680074Y-122667657D01*
X138680074Y-122667657D02*
X138727693Y-122762895D01*
X138727693Y-122762895D02*
X138727693Y-122858133D01*
X138727693Y-122858133D02*
X138680074Y-123000990D01*
X138680074Y-123000990D02*
X138108646Y-123572419D01*
X138108646Y-123572419D02*
X138727693Y-123572419D01*
X139680074Y-123572419D02*
X139108646Y-123572419D01*
X139394360Y-123572419D02*
X139394360Y-122572419D01*
X139394360Y-122572419D02*
X139299122Y-122715276D01*
X139299122Y-122715276D02*
X139203884Y-122810514D01*
X139203884Y-122810514D02*
X139108646Y-122858133D01*
X138727693Y-98172419D02*
X138156265Y-98172419D01*
X138441979Y-98172419D02*
X138441979Y-97172419D01*
X138441979Y-97172419D02*
X138346741Y-97315276D01*
X138346741Y-97315276D02*
X138251503Y-97410514D01*
X138251503Y-97410514D02*
X138156265Y-97458133D01*
X139680074Y-98172419D02*
X139108646Y-98172419D01*
X139394360Y-98172419D02*
X139394360Y-97172419D01*
X139394360Y-97172419D02*
X139299122Y-97315276D01*
X139299122Y-97315276D02*
X139203884Y-97410514D01*
X139203884Y-97410514D02*
X139108646Y-97458133D01*
X151056265Y-72586704D02*
X151532455Y-72586704D01*
X150961027Y-72872419D02*
X151294360Y-71872419D01*
X151294360Y-71872419D02*
X151627693Y-72872419D01*
X138727693Y-103172419D02*
X138156265Y-103172419D01*
X138441979Y-103172419D02*
X138441979Y-102172419D01*
X138441979Y-102172419D02*
X138346741Y-102315276D01*
X138346741Y-102315276D02*
X138251503Y-102410514D01*
X138251503Y-102410514D02*
X138156265Y-102458133D01*
X139061027Y-102172419D02*
X139680074Y-102172419D01*
X139680074Y-102172419D02*
X139346741Y-102553371D01*
X139346741Y-102553371D02*
X139489598Y-102553371D01*
X139489598Y-102553371D02*
X139584836Y-102600990D01*
X139584836Y-102600990D02*
X139632455Y-102648609D01*
X139632455Y-102648609D02*
X139680074Y-102743847D01*
X139680074Y-102743847D02*
X139680074Y-102981942D01*
X139680074Y-102981942D02*
X139632455Y-103077180D01*
X139632455Y-103077180D02*
X139584836Y-103124800D01*
X139584836Y-103124800D02*
X139489598Y-103172419D01*
X139489598Y-103172419D02*
X139203884Y-103172419D01*
X139203884Y-103172419D02*
X139108646Y-103124800D01*
X139108646Y-103124800D02*
X139061027Y-103077180D01*
X151289598Y-89372419D02*
X151289598Y-90086704D01*
X151289598Y-90086704D02*
X151241979Y-90229561D01*
X151241979Y-90229561D02*
X151146741Y-90324800D01*
X151146741Y-90324800D02*
X151003884Y-90372419D01*
X151003884Y-90372419D02*
X150908646Y-90372419D01*
X144989598Y-68872419D02*
X144989598Y-69586704D01*
X144989598Y-69586704D02*
X144941979Y-69729561D01*
X144941979Y-69729561D02*
X144846741Y-69824800D01*
X144846741Y-69824800D02*
X144703884Y-69872419D01*
X144703884Y-69872419D02*
X144608646Y-69872419D01*
X145370551Y-68872419D02*
X145989598Y-68872419D01*
X145989598Y-68872419D02*
X145656265Y-69253371D01*
X145656265Y-69253371D02*
X145799122Y-69253371D01*
X145799122Y-69253371D02*
X145894360Y-69300990D01*
X145894360Y-69300990D02*
X145941979Y-69348609D01*
X145941979Y-69348609D02*
X145989598Y-69443847D01*
X145989598Y-69443847D02*
X145989598Y-69681942D01*
X145989598Y-69681942D02*
X145941979Y-69777180D01*
X145941979Y-69777180D02*
X145894360Y-69824800D01*
X145894360Y-69824800D02*
X145799122Y-69872419D01*
X145799122Y-69872419D02*
X145513408Y-69872419D01*
X145513408Y-69872419D02*
X145418170Y-69824800D01*
X145418170Y-69824800D02*
X145370551Y-69777180D01*
X174589598Y-54172419D02*
X174589598Y-54886704D01*
X174589598Y-54886704D02*
X174541979Y-55029561D01*
X174541979Y-55029561D02*
X174446741Y-55124800D01*
X174446741Y-55124800D02*
X174303884Y-55172419D01*
X174303884Y-55172419D02*
X174208646Y-55172419D01*
X175018170Y-54267657D02*
X175065789Y-54220038D01*
X175065789Y-54220038D02*
X175161027Y-54172419D01*
X175161027Y-54172419D02*
X175399122Y-54172419D01*
X175399122Y-54172419D02*
X175494360Y-54220038D01*
X175494360Y-54220038D02*
X175541979Y-54267657D01*
X175541979Y-54267657D02*
X175589598Y-54362895D01*
X175589598Y-54362895D02*
X175589598Y-54458133D01*
X175589598Y-54458133D02*
X175541979Y-54600990D01*
X175541979Y-54600990D02*
X174970551Y-55172419D01*
X174970551Y-55172419D02*
X175589598Y-55172419D01*
X151337217Y-84848609D02*
X151003884Y-84848609D01*
X151003884Y-85372419D02*
X151003884Y-84372419D01*
X151003884Y-84372419D02*
X151480074Y-84372419D01*
X138727693Y-118572419D02*
X138156265Y-118572419D01*
X138441979Y-118572419D02*
X138441979Y-117572419D01*
X138441979Y-117572419D02*
X138346741Y-117715276D01*
X138346741Y-117715276D02*
X138251503Y-117810514D01*
X138251503Y-117810514D02*
X138156265Y-117858133D01*
X139203884Y-118572419D02*
X139394360Y-118572419D01*
X139394360Y-118572419D02*
X139489598Y-118524800D01*
X139489598Y-118524800D02*
X139537217Y-118477180D01*
X139537217Y-118477180D02*
X139632455Y-118334323D01*
X139632455Y-118334323D02*
X139680074Y-118143847D01*
X139680074Y-118143847D02*
X139680074Y-117762895D01*
X139680074Y-117762895D02*
X139632455Y-117667657D01*
X139632455Y-117667657D02*
X139584836Y-117620038D01*
X139584836Y-117620038D02*
X139489598Y-117572419D01*
X139489598Y-117572419D02*
X139299122Y-117572419D01*
X139299122Y-117572419D02*
X139203884Y-117620038D01*
X139203884Y-117620038D02*
X139156265Y-117667657D01*
X139156265Y-117667657D02*
X139108646Y-117762895D01*
X139108646Y-117762895D02*
X139108646Y-118000990D01*
X139108646Y-118000990D02*
X139156265Y-118096228D01*
X139156265Y-118096228D02*
X139203884Y-118143847D01*
X139203884Y-118143847D02*
X139299122Y-118191466D01*
X139299122Y-118191466D02*
X139489598Y-118191466D01*
X139489598Y-118191466D02*
X139584836Y-118143847D01*
X139584836Y-118143847D02*
X139632455Y-118096228D01*
X139632455Y-118096228D02*
X139680074Y-118000990D01*
X151003884Y-98072419D02*
X151003884Y-97072419D01*
X151003884Y-97072419D02*
X151337217Y-97786704D01*
X151337217Y-97786704D02*
X151670550Y-97072419D01*
X151670550Y-97072419D02*
X151670550Y-98072419D01*
X138156265Y-120067657D02*
X138203884Y-120020038D01*
X138203884Y-120020038D02*
X138299122Y-119972419D01*
X138299122Y-119972419D02*
X138537217Y-119972419D01*
X138537217Y-119972419D02*
X138632455Y-120020038D01*
X138632455Y-120020038D02*
X138680074Y-120067657D01*
X138680074Y-120067657D02*
X138727693Y-120162895D01*
X138727693Y-120162895D02*
X138727693Y-120258133D01*
X138727693Y-120258133D02*
X138680074Y-120400990D01*
X138680074Y-120400990D02*
X138108646Y-120972419D01*
X138108646Y-120972419D02*
X138727693Y-120972419D01*
X139346741Y-119972419D02*
X139441979Y-119972419D01*
X139441979Y-119972419D02*
X139537217Y-120020038D01*
X139537217Y-120020038D02*
X139584836Y-120067657D01*
X139584836Y-120067657D02*
X139632455Y-120162895D01*
X139632455Y-120162895D02*
X139680074Y-120353371D01*
X139680074Y-120353371D02*
X139680074Y-120591466D01*
X139680074Y-120591466D02*
X139632455Y-120781942D01*
X139632455Y-120781942D02*
X139584836Y-120877180D01*
X139584836Y-120877180D02*
X139537217Y-120924800D01*
X139537217Y-120924800D02*
X139441979Y-120972419D01*
X139441979Y-120972419D02*
X139346741Y-120972419D01*
X139346741Y-120972419D02*
X139251503Y-120924800D01*
X139251503Y-120924800D02*
X139203884Y-120877180D01*
X139203884Y-120877180D02*
X139156265Y-120781942D01*
X139156265Y-120781942D02*
X139108646Y-120591466D01*
X139108646Y-120591466D02*
X139108646Y-120353371D01*
X139108646Y-120353371D02*
X139156265Y-120162895D01*
X139156265Y-120162895D02*
X139203884Y-120067657D01*
X139203884Y-120067657D02*
X139251503Y-120020038D01*
X139251503Y-120020038D02*
X139346741Y-119972419D01*
X138727693Y-108372419D02*
X138156265Y-108372419D01*
X138441979Y-108372419D02*
X138441979Y-107372419D01*
X138441979Y-107372419D02*
X138346741Y-107515276D01*
X138346741Y-107515276D02*
X138251503Y-107610514D01*
X138251503Y-107610514D02*
X138156265Y-107658133D01*
X139632455Y-107372419D02*
X139156265Y-107372419D01*
X139156265Y-107372419D02*
X139108646Y-107848609D01*
X139108646Y-107848609D02*
X139156265Y-107800990D01*
X139156265Y-107800990D02*
X139251503Y-107753371D01*
X139251503Y-107753371D02*
X139489598Y-107753371D01*
X139489598Y-107753371D02*
X139584836Y-107800990D01*
X139584836Y-107800990D02*
X139632455Y-107848609D01*
X139632455Y-107848609D02*
X139680074Y-107943847D01*
X139680074Y-107943847D02*
X139680074Y-108181942D01*
X139680074Y-108181942D02*
X139632455Y-108277180D01*
X139632455Y-108277180D02*
X139584836Y-108324800D01*
X139584836Y-108324800D02*
X139489598Y-108372419D01*
X139489598Y-108372419D02*
X139251503Y-108372419D01*
X139251503Y-108372419D02*
X139156265Y-108324800D01*
X139156265Y-108324800D02*
X139108646Y-108277180D01*
X138727693Y-110872419D02*
X138156265Y-110872419D01*
X138441979Y-110872419D02*
X138441979Y-109872419D01*
X138441979Y-109872419D02*
X138346741Y-110015276D01*
X138346741Y-110015276D02*
X138251503Y-110110514D01*
X138251503Y-110110514D02*
X138156265Y-110158133D01*
X139584836Y-109872419D02*
X139394360Y-109872419D01*
X139394360Y-109872419D02*
X139299122Y-109920038D01*
X139299122Y-109920038D02*
X139251503Y-109967657D01*
X139251503Y-109967657D02*
X139156265Y-110110514D01*
X139156265Y-110110514D02*
X139108646Y-110300990D01*
X139108646Y-110300990D02*
X139108646Y-110681942D01*
X139108646Y-110681942D02*
X139156265Y-110777180D01*
X139156265Y-110777180D02*
X139203884Y-110824800D01*
X139203884Y-110824800D02*
X139299122Y-110872419D01*
X139299122Y-110872419D02*
X139489598Y-110872419D01*
X139489598Y-110872419D02*
X139584836Y-110824800D01*
X139584836Y-110824800D02*
X139632455Y-110777180D01*
X139632455Y-110777180D02*
X139680074Y-110681942D01*
X139680074Y-110681942D02*
X139680074Y-110443847D01*
X139680074Y-110443847D02*
X139632455Y-110348609D01*
X139632455Y-110348609D02*
X139584836Y-110300990D01*
X139584836Y-110300990D02*
X139489598Y-110253371D01*
X139489598Y-110253371D02*
X139299122Y-110253371D01*
X139299122Y-110253371D02*
X139203884Y-110300990D01*
X139203884Y-110300990D02*
X139156265Y-110348609D01*
X139156265Y-110348609D02*
X139108646Y-110443847D01*
X115822931Y-89352419D02*
X116013407Y-89352419D01*
X116013407Y-89352419D02*
X116108645Y-89304800D01*
X116108645Y-89304800D02*
X116156264Y-89257180D01*
X116156264Y-89257180D02*
X116251502Y-89114323D01*
X116251502Y-89114323D02*
X116299121Y-88923847D01*
X116299121Y-88923847D02*
X116299121Y-88542895D01*
X116299121Y-88542895D02*
X116251502Y-88447657D01*
X116251502Y-88447657D02*
X116203883Y-88400038D01*
X116203883Y-88400038D02*
X116108645Y-88352419D01*
X116108645Y-88352419D02*
X115918169Y-88352419D01*
X115918169Y-88352419D02*
X115822931Y-88400038D01*
X115822931Y-88400038D02*
X115775312Y-88447657D01*
X115775312Y-88447657D02*
X115727693Y-88542895D01*
X115727693Y-88542895D02*
X115727693Y-88780990D01*
X115727693Y-88780990D02*
X115775312Y-88876228D01*
X115775312Y-88876228D02*
X115822931Y-88923847D01*
X115822931Y-88923847D02*
X115918169Y-88971466D01*
X115918169Y-88971466D02*
X116108645Y-88971466D01*
X116108645Y-88971466D02*
X116203883Y-88923847D01*
X116203883Y-88923847D02*
X116251502Y-88876228D01*
X116251502Y-88876228D02*
X116299121Y-88780990D01*
X116299121Y-105352419D02*
X115727693Y-105352419D01*
X116013407Y-105352419D02*
X116013407Y-104352419D01*
X116013407Y-104352419D02*
X115918169Y-104495276D01*
X115918169Y-104495276D02*
X115822931Y-104590514D01*
X115822931Y-104590514D02*
X115727693Y-104638133D01*
X116632455Y-104352419D02*
X117251502Y-104352419D01*
X117251502Y-104352419D02*
X116918169Y-104733371D01*
X116918169Y-104733371D02*
X117061026Y-104733371D01*
X117061026Y-104733371D02*
X117156264Y-104780990D01*
X117156264Y-104780990D02*
X117203883Y-104828609D01*
X117203883Y-104828609D02*
X117251502Y-104923847D01*
X117251502Y-104923847D02*
X117251502Y-105161942D01*
X117251502Y-105161942D02*
X117203883Y-105257180D01*
X117203883Y-105257180D02*
X117156264Y-105304800D01*
X117156264Y-105304800D02*
X117061026Y-105352419D01*
X117061026Y-105352419D02*
X116775312Y-105352419D01*
X116775312Y-105352419D02*
X116680074Y-105304800D01*
X116680074Y-105304800D02*
X116632455Y-105257180D01*
X116227693Y-57852419D02*
X115656265Y-57852419D01*
X115941979Y-57852419D02*
X115941979Y-56852419D01*
X115941979Y-56852419D02*
X115846741Y-56995276D01*
X115846741Y-56995276D02*
X115751503Y-57090514D01*
X115751503Y-57090514D02*
X115656265Y-57138133D01*
X116370550Y-128852419D02*
X115799122Y-128852419D01*
X116084836Y-128852419D02*
X116084836Y-127852419D01*
X116084836Y-127852419D02*
X115989598Y-127995276D01*
X115989598Y-127995276D02*
X115894360Y-128090514D01*
X115894360Y-128090514D02*
X115799122Y-128138133D01*
X116846741Y-128852419D02*
X117037217Y-128852419D01*
X117037217Y-128852419D02*
X117132455Y-128804800D01*
X117132455Y-128804800D02*
X117180074Y-128757180D01*
X117180074Y-128757180D02*
X117275312Y-128614323D01*
X117275312Y-128614323D02*
X117322931Y-128423847D01*
X117322931Y-128423847D02*
X117322931Y-128042895D01*
X117322931Y-128042895D02*
X117275312Y-127947657D01*
X117275312Y-127947657D02*
X117227693Y-127900038D01*
X117227693Y-127900038D02*
X117132455Y-127852419D01*
X117132455Y-127852419D02*
X116941979Y-127852419D01*
X116941979Y-127852419D02*
X116846741Y-127900038D01*
X116846741Y-127900038D02*
X116799122Y-127947657D01*
X116799122Y-127947657D02*
X116751503Y-128042895D01*
X116751503Y-128042895D02*
X116751503Y-128280990D01*
X116751503Y-128280990D02*
X116799122Y-128376228D01*
X116799122Y-128376228D02*
X116846741Y-128423847D01*
X116846741Y-128423847D02*
X116941979Y-128471466D01*
X116941979Y-128471466D02*
X117132455Y-128471466D01*
X117132455Y-128471466D02*
X117227693Y-128423847D01*
X117227693Y-128423847D02*
X117275312Y-128376228D01*
X117275312Y-128376228D02*
X117322931Y-128280990D01*
X115656265Y-135947657D02*
X115703884Y-135900038D01*
X115703884Y-135900038D02*
X115799122Y-135852419D01*
X115799122Y-135852419D02*
X116037217Y-135852419D01*
X116037217Y-135852419D02*
X116132455Y-135900038D01*
X116132455Y-135900038D02*
X116180074Y-135947657D01*
X116180074Y-135947657D02*
X116227693Y-136042895D01*
X116227693Y-136042895D02*
X116227693Y-136138133D01*
X116227693Y-136138133D02*
X116180074Y-136280990D01*
X116180074Y-136280990D02*
X115608646Y-136852419D01*
X115608646Y-136852419D02*
X116227693Y-136852419D01*
X117180074Y-136852419D02*
X116608646Y-136852419D01*
X116894360Y-136852419D02*
X116894360Y-135852419D01*
X116894360Y-135852419D02*
X116799122Y-135995276D01*
X116799122Y-135995276D02*
X116703884Y-136090514D01*
X116703884Y-136090514D02*
X116608646Y-136138133D01*
X116370550Y-96852419D02*
X115799122Y-96852419D01*
X116084836Y-96852419D02*
X116084836Y-95852419D01*
X116084836Y-95852419D02*
X115989598Y-95995276D01*
X115989598Y-95995276D02*
X115894360Y-96090514D01*
X115894360Y-96090514D02*
X115799122Y-96138133D01*
X117322931Y-96852419D02*
X116751503Y-96852419D01*
X117037217Y-96852419D02*
X117037217Y-95852419D01*
X117037217Y-95852419D02*
X116941979Y-95995276D01*
X116941979Y-95995276D02*
X116846741Y-96090514D01*
X116846741Y-96090514D02*
X116751503Y-96138133D01*
X115680074Y-64852419D02*
X116299121Y-64852419D01*
X116299121Y-64852419D02*
X115965788Y-65233371D01*
X115965788Y-65233371D02*
X116108645Y-65233371D01*
X116108645Y-65233371D02*
X116203883Y-65280990D01*
X116203883Y-65280990D02*
X116251502Y-65328609D01*
X116251502Y-65328609D02*
X116299121Y-65423847D01*
X116299121Y-65423847D02*
X116299121Y-65661942D01*
X116299121Y-65661942D02*
X116251502Y-65757180D01*
X116251502Y-65757180D02*
X116203883Y-65804800D01*
X116203883Y-65804800D02*
X116108645Y-65852419D01*
X116108645Y-65852419D02*
X115822931Y-65852419D01*
X115822931Y-65852419D02*
X115727693Y-65804800D01*
X115727693Y-65804800D02*
X115680074Y-65757180D01*
X116322931Y-101352419D02*
X115751503Y-101352419D01*
X116037217Y-101352419D02*
X116037217Y-100352419D01*
X116037217Y-100352419D02*
X115941979Y-100495276D01*
X115941979Y-100495276D02*
X115846741Y-100590514D01*
X115846741Y-100590514D02*
X115751503Y-100638133D01*
X116703884Y-100447657D02*
X116751503Y-100400038D01*
X116751503Y-100400038D02*
X116846741Y-100352419D01*
X116846741Y-100352419D02*
X117084836Y-100352419D01*
X117084836Y-100352419D02*
X117180074Y-100400038D01*
X117180074Y-100400038D02*
X117227693Y-100447657D01*
X117227693Y-100447657D02*
X117275312Y-100542895D01*
X117275312Y-100542895D02*
X117275312Y-100638133D01*
X117275312Y-100638133D02*
X117227693Y-100780990D01*
X117227693Y-100780990D02*
X116656265Y-101352419D01*
X116656265Y-101352419D02*
X117275312Y-101352419D01*
X115703884Y-139947657D02*
X115751503Y-139900038D01*
X115751503Y-139900038D02*
X115846741Y-139852419D01*
X115846741Y-139852419D02*
X116084836Y-139852419D01*
X116084836Y-139852419D02*
X116180074Y-139900038D01*
X116180074Y-139900038D02*
X116227693Y-139947657D01*
X116227693Y-139947657D02*
X116275312Y-140042895D01*
X116275312Y-140042895D02*
X116275312Y-140138133D01*
X116275312Y-140138133D02*
X116227693Y-140280990D01*
X116227693Y-140280990D02*
X115656265Y-140852419D01*
X115656265Y-140852419D02*
X116275312Y-140852419D01*
X116656265Y-139947657D02*
X116703884Y-139900038D01*
X116703884Y-139900038D02*
X116799122Y-139852419D01*
X116799122Y-139852419D02*
X117037217Y-139852419D01*
X117037217Y-139852419D02*
X117132455Y-139900038D01*
X117132455Y-139900038D02*
X117180074Y-139947657D01*
X117180074Y-139947657D02*
X117227693Y-140042895D01*
X117227693Y-140042895D02*
X117227693Y-140138133D01*
X117227693Y-140138133D02*
X117180074Y-140280990D01*
X117180074Y-140280990D02*
X116608646Y-140852419D01*
X116608646Y-140852419D02*
X117227693Y-140852419D01*
X116203883Y-72352419D02*
X115727693Y-72352419D01*
X115727693Y-72352419D02*
X115680074Y-72828609D01*
X115680074Y-72828609D02*
X115727693Y-72780990D01*
X115727693Y-72780990D02*
X115822931Y-72733371D01*
X115822931Y-72733371D02*
X116061026Y-72733371D01*
X116061026Y-72733371D02*
X116156264Y-72780990D01*
X116156264Y-72780990D02*
X116203883Y-72828609D01*
X116203883Y-72828609D02*
X116251502Y-72923847D01*
X116251502Y-72923847D02*
X116251502Y-73161942D01*
X116251502Y-73161942D02*
X116203883Y-73257180D01*
X116203883Y-73257180D02*
X116156264Y-73304800D01*
X116156264Y-73304800D02*
X116061026Y-73352419D01*
X116061026Y-73352419D02*
X115822931Y-73352419D01*
X115822931Y-73352419D02*
X115727693Y-73304800D01*
X115727693Y-73304800D02*
X115680074Y-73257180D01*
X115703884Y-131947657D02*
X115751503Y-131900038D01*
X115751503Y-131900038D02*
X115846741Y-131852419D01*
X115846741Y-131852419D02*
X116084836Y-131852419D01*
X116084836Y-131852419D02*
X116180074Y-131900038D01*
X116180074Y-131900038D02*
X116227693Y-131947657D01*
X116227693Y-131947657D02*
X116275312Y-132042895D01*
X116275312Y-132042895D02*
X116275312Y-132138133D01*
X116275312Y-132138133D02*
X116227693Y-132280990D01*
X116227693Y-132280990D02*
X115656265Y-132852419D01*
X115656265Y-132852419D02*
X116275312Y-132852419D01*
X116894360Y-131852419D02*
X116989598Y-131852419D01*
X116989598Y-131852419D02*
X117084836Y-131900038D01*
X117084836Y-131900038D02*
X117132455Y-131947657D01*
X117132455Y-131947657D02*
X117180074Y-132042895D01*
X117180074Y-132042895D02*
X117227693Y-132233371D01*
X117227693Y-132233371D02*
X117227693Y-132471466D01*
X117227693Y-132471466D02*
X117180074Y-132661942D01*
X117180074Y-132661942D02*
X117132455Y-132757180D01*
X117132455Y-132757180D02*
X117084836Y-132804800D01*
X117084836Y-132804800D02*
X116989598Y-132852419D01*
X116989598Y-132852419D02*
X116894360Y-132852419D01*
X116894360Y-132852419D02*
X116799122Y-132804800D01*
X116799122Y-132804800D02*
X116751503Y-132757180D01*
X116751503Y-132757180D02*
X116703884Y-132661942D01*
X116703884Y-132661942D02*
X116656265Y-132471466D01*
X116656265Y-132471466D02*
X116656265Y-132233371D01*
X116656265Y-132233371D02*
X116703884Y-132042895D01*
X116703884Y-132042895D02*
X116751503Y-131947657D01*
X116751503Y-131947657D02*
X116799122Y-131900038D01*
X116799122Y-131900038D02*
X116894360Y-131852419D01*
X115703884Y-80352419D02*
X116370550Y-80352419D01*
X116370550Y-80352419D02*
X115941979Y-81352419D01*
X116132455Y-76352419D02*
X115941979Y-76352419D01*
X115941979Y-76352419D02*
X115846741Y-76400038D01*
X115846741Y-76400038D02*
X115799122Y-76447657D01*
X115799122Y-76447657D02*
X115703884Y-76590514D01*
X115703884Y-76590514D02*
X115656265Y-76780990D01*
X115656265Y-76780990D02*
X115656265Y-77161942D01*
X115656265Y-77161942D02*
X115703884Y-77257180D01*
X115703884Y-77257180D02*
X115751503Y-77304800D01*
X115751503Y-77304800D02*
X115846741Y-77352419D01*
X115846741Y-77352419D02*
X116037217Y-77352419D01*
X116037217Y-77352419D02*
X116132455Y-77304800D01*
X116132455Y-77304800D02*
X116180074Y-77257180D01*
X116180074Y-77257180D02*
X116227693Y-77161942D01*
X116227693Y-77161942D02*
X116227693Y-76923847D01*
X116227693Y-76923847D02*
X116180074Y-76828609D01*
X116180074Y-76828609D02*
X116132455Y-76780990D01*
X116132455Y-76780990D02*
X116037217Y-76733371D01*
X116037217Y-76733371D02*
X115846741Y-76733371D01*
X115846741Y-76733371D02*
X115751503Y-76780990D01*
X115751503Y-76780990D02*
X115703884Y-76828609D01*
X115703884Y-76828609D02*
X115656265Y-76923847D01*
X116275312Y-113352419D02*
X115703884Y-113352419D01*
X115989598Y-113352419D02*
X115989598Y-112352419D01*
X115989598Y-112352419D02*
X115894360Y-112495276D01*
X115894360Y-112495276D02*
X115799122Y-112590514D01*
X115799122Y-112590514D02*
X115703884Y-112638133D01*
X117180074Y-112352419D02*
X116703884Y-112352419D01*
X116703884Y-112352419D02*
X116656265Y-112828609D01*
X116656265Y-112828609D02*
X116703884Y-112780990D01*
X116703884Y-112780990D02*
X116799122Y-112733371D01*
X116799122Y-112733371D02*
X117037217Y-112733371D01*
X117037217Y-112733371D02*
X117132455Y-112780990D01*
X117132455Y-112780990D02*
X117180074Y-112828609D01*
X117180074Y-112828609D02*
X117227693Y-112923847D01*
X117227693Y-112923847D02*
X117227693Y-113161942D01*
X117227693Y-113161942D02*
X117180074Y-113257180D01*
X117180074Y-113257180D02*
X117132455Y-113304800D01*
X117132455Y-113304800D02*
X117037217Y-113352419D01*
X117037217Y-113352419D02*
X116799122Y-113352419D01*
X116799122Y-113352419D02*
X116703884Y-113304800D01*
X116703884Y-113304800D02*
X116656265Y-113257180D01*
X115799122Y-84780990D02*
X115703884Y-84733371D01*
X115703884Y-84733371D02*
X115656265Y-84685752D01*
X115656265Y-84685752D02*
X115608646Y-84590514D01*
X115608646Y-84590514D02*
X115608646Y-84542895D01*
X115608646Y-84542895D02*
X115656265Y-84447657D01*
X115656265Y-84447657D02*
X115703884Y-84400038D01*
X115703884Y-84400038D02*
X115799122Y-84352419D01*
X115799122Y-84352419D02*
X115989598Y-84352419D01*
X115989598Y-84352419D02*
X116084836Y-84400038D01*
X116084836Y-84400038D02*
X116132455Y-84447657D01*
X116132455Y-84447657D02*
X116180074Y-84542895D01*
X116180074Y-84542895D02*
X116180074Y-84590514D01*
X116180074Y-84590514D02*
X116132455Y-84685752D01*
X116132455Y-84685752D02*
X116084836Y-84733371D01*
X116084836Y-84733371D02*
X115989598Y-84780990D01*
X115989598Y-84780990D02*
X115799122Y-84780990D01*
X115799122Y-84780990D02*
X115703884Y-84828609D01*
X115703884Y-84828609D02*
X115656265Y-84876228D01*
X115656265Y-84876228D02*
X115608646Y-84971466D01*
X115608646Y-84971466D02*
X115608646Y-85161942D01*
X115608646Y-85161942D02*
X115656265Y-85257180D01*
X115656265Y-85257180D02*
X115703884Y-85304800D01*
X115703884Y-85304800D02*
X115799122Y-85352419D01*
X115799122Y-85352419D02*
X115989598Y-85352419D01*
X115989598Y-85352419D02*
X116084836Y-85304800D01*
X116084836Y-85304800D02*
X116132455Y-85257180D01*
X116132455Y-85257180D02*
X116180074Y-85161942D01*
X116180074Y-85161942D02*
X116180074Y-84971466D01*
X116180074Y-84971466D02*
X116132455Y-84876228D01*
X116132455Y-84876228D02*
X116084836Y-84828609D01*
X116084836Y-84828609D02*
X115989598Y-84780990D01*
X116203883Y-92852419D02*
X115632455Y-92852419D01*
X115918169Y-92852419D02*
X115918169Y-91852419D01*
X115918169Y-91852419D02*
X115822931Y-91995276D01*
X115822931Y-91995276D02*
X115727693Y-92090514D01*
X115727693Y-92090514D02*
X115632455Y-92138133D01*
X116822931Y-91852419D02*
X116918169Y-91852419D01*
X116918169Y-91852419D02*
X117013407Y-91900038D01*
X117013407Y-91900038D02*
X117061026Y-91947657D01*
X117061026Y-91947657D02*
X117108645Y-92042895D01*
X117108645Y-92042895D02*
X117156264Y-92233371D01*
X117156264Y-92233371D02*
X117156264Y-92471466D01*
X117156264Y-92471466D02*
X117108645Y-92661942D01*
X117108645Y-92661942D02*
X117061026Y-92757180D01*
X117061026Y-92757180D02*
X117013407Y-92804800D01*
X117013407Y-92804800D02*
X116918169Y-92852419D01*
X116918169Y-92852419D02*
X116822931Y-92852419D01*
X116822931Y-92852419D02*
X116727693Y-92804800D01*
X116727693Y-92804800D02*
X116680074Y-92757180D01*
X116680074Y-92757180D02*
X116632455Y-92661942D01*
X116632455Y-92661942D02*
X116584836Y-92471466D01*
X116584836Y-92471466D02*
X116584836Y-92233371D01*
X116584836Y-92233371D02*
X116632455Y-92042895D01*
X116632455Y-92042895D02*
X116680074Y-91947657D01*
X116680074Y-91947657D02*
X116727693Y-91900038D01*
X116727693Y-91900038D02*
X116822931Y-91852419D01*
X115727693Y-60947657D02*
X115775312Y-60900038D01*
X115775312Y-60900038D02*
X115870550Y-60852419D01*
X115870550Y-60852419D02*
X116108645Y-60852419D01*
X116108645Y-60852419D02*
X116203883Y-60900038D01*
X116203883Y-60900038D02*
X116251502Y-60947657D01*
X116251502Y-60947657D02*
X116299121Y-61042895D01*
X116299121Y-61042895D02*
X116299121Y-61138133D01*
X116299121Y-61138133D02*
X116251502Y-61280990D01*
X116251502Y-61280990D02*
X115680074Y-61852419D01*
X115680074Y-61852419D02*
X116299121Y-61852419D01*
X116180074Y-117352419D02*
X115608646Y-117352419D01*
X115894360Y-117352419D02*
X115894360Y-116352419D01*
X115894360Y-116352419D02*
X115799122Y-116495276D01*
X115799122Y-116495276D02*
X115703884Y-116590514D01*
X115703884Y-116590514D02*
X115608646Y-116638133D01*
X117037217Y-116352419D02*
X116846741Y-116352419D01*
X116846741Y-116352419D02*
X116751503Y-116400038D01*
X116751503Y-116400038D02*
X116703884Y-116447657D01*
X116703884Y-116447657D02*
X116608646Y-116590514D01*
X116608646Y-116590514D02*
X116561027Y-116780990D01*
X116561027Y-116780990D02*
X116561027Y-117161942D01*
X116561027Y-117161942D02*
X116608646Y-117257180D01*
X116608646Y-117257180D02*
X116656265Y-117304800D01*
X116656265Y-117304800D02*
X116751503Y-117352419D01*
X116751503Y-117352419D02*
X116941979Y-117352419D01*
X116941979Y-117352419D02*
X117037217Y-117304800D01*
X117037217Y-117304800D02*
X117084836Y-117257180D01*
X117084836Y-117257180D02*
X117132455Y-117161942D01*
X117132455Y-117161942D02*
X117132455Y-116923847D01*
X117132455Y-116923847D02*
X117084836Y-116828609D01*
X117084836Y-116828609D02*
X117037217Y-116780990D01*
X117037217Y-116780990D02*
X116941979Y-116733371D01*
X116941979Y-116733371D02*
X116751503Y-116733371D01*
X116751503Y-116733371D02*
X116656265Y-116780990D01*
X116656265Y-116780990D02*
X116608646Y-116828609D01*
X116608646Y-116828609D02*
X116561027Y-116923847D01*
X116203883Y-68685752D02*
X116203883Y-69352419D01*
X115965788Y-68304800D02*
X115727693Y-69019085D01*
X115727693Y-69019085D02*
X116346740Y-69019085D01*
X116322931Y-121352419D02*
X115751503Y-121352419D01*
X116037217Y-121352419D02*
X116037217Y-120352419D01*
X116037217Y-120352419D02*
X115941979Y-120495276D01*
X115941979Y-120495276D02*
X115846741Y-120590514D01*
X115846741Y-120590514D02*
X115751503Y-120638133D01*
X116656265Y-120352419D02*
X117322931Y-120352419D01*
X117322931Y-120352419D02*
X116894360Y-121352419D01*
X116227693Y-124852419D02*
X115656265Y-124852419D01*
X115941979Y-124852419D02*
X115941979Y-123852419D01*
X115941979Y-123852419D02*
X115846741Y-123995276D01*
X115846741Y-123995276D02*
X115751503Y-124090514D01*
X115751503Y-124090514D02*
X115656265Y-124138133D01*
X116799122Y-124280990D02*
X116703884Y-124233371D01*
X116703884Y-124233371D02*
X116656265Y-124185752D01*
X116656265Y-124185752D02*
X116608646Y-124090514D01*
X116608646Y-124090514D02*
X116608646Y-124042895D01*
X116608646Y-124042895D02*
X116656265Y-123947657D01*
X116656265Y-123947657D02*
X116703884Y-123900038D01*
X116703884Y-123900038D02*
X116799122Y-123852419D01*
X116799122Y-123852419D02*
X116989598Y-123852419D01*
X116989598Y-123852419D02*
X117084836Y-123900038D01*
X117084836Y-123900038D02*
X117132455Y-123947657D01*
X117132455Y-123947657D02*
X117180074Y-124042895D01*
X117180074Y-124042895D02*
X117180074Y-124090514D01*
X117180074Y-124090514D02*
X117132455Y-124185752D01*
X117132455Y-124185752D02*
X117084836Y-124233371D01*
X117084836Y-124233371D02*
X116989598Y-124280990D01*
X116989598Y-124280990D02*
X116799122Y-124280990D01*
X116799122Y-124280990D02*
X116703884Y-124328609D01*
X116703884Y-124328609D02*
X116656265Y-124376228D01*
X116656265Y-124376228D02*
X116608646Y-124471466D01*
X116608646Y-124471466D02*
X116608646Y-124661942D01*
X116608646Y-124661942D02*
X116656265Y-124757180D01*
X116656265Y-124757180D02*
X116703884Y-124804800D01*
X116703884Y-124804800D02*
X116799122Y-124852419D01*
X116799122Y-124852419D02*
X116989598Y-124852419D01*
X116989598Y-124852419D02*
X117084836Y-124804800D01*
X117084836Y-124804800D02*
X117132455Y-124757180D01*
X117132455Y-124757180D02*
X117180074Y-124661942D01*
X117180074Y-124661942D02*
X117180074Y-124471466D01*
X117180074Y-124471466D02*
X117132455Y-124376228D01*
X117132455Y-124376228D02*
X117084836Y-124328609D01*
X117084836Y-124328609D02*
X116989598Y-124280990D01*
X116299121Y-109352419D02*
X115727693Y-109352419D01*
X116013407Y-109352419D02*
X116013407Y-108352419D01*
X116013407Y-108352419D02*
X115918169Y-108495276D01*
X115918169Y-108495276D02*
X115822931Y-108590514D01*
X115822931Y-108590514D02*
X115727693Y-108638133D01*
X117156264Y-108685752D02*
X117156264Y-109352419D01*
X116918169Y-108304800D02*
X116680074Y-109019085D01*
X116680074Y-109019085D02*
X117299121Y-109019085D01*
X174219925Y-109292419D02*
X173648497Y-109292419D01*
X173934211Y-109292419D02*
X173934211Y-108292419D01*
X173934211Y-108292419D02*
X173838973Y-108435276D01*
X173838973Y-108435276D02*
X173743735Y-108530514D01*
X173743735Y-108530514D02*
X173648497Y-108578133D01*
X175077068Y-108625752D02*
X175077068Y-109292419D01*
X174838973Y-108244800D02*
X174600878Y-108959085D01*
X174600878Y-108959085D02*
X175219925Y-108959085D01*
X175148496Y-76292419D02*
X174958020Y-76292419D01*
X174958020Y-76292419D02*
X174862782Y-76340038D01*
X174862782Y-76340038D02*
X174815163Y-76387657D01*
X174815163Y-76387657D02*
X174719925Y-76530514D01*
X174719925Y-76530514D02*
X174672306Y-76720990D01*
X174672306Y-76720990D02*
X174672306Y-77101942D01*
X174672306Y-77101942D02*
X174719925Y-77197180D01*
X174719925Y-77197180D02*
X174767544Y-77244800D01*
X174767544Y-77244800D02*
X174862782Y-77292419D01*
X174862782Y-77292419D02*
X175053258Y-77292419D01*
X175053258Y-77292419D02*
X175148496Y-77244800D01*
X175148496Y-77244800D02*
X175196115Y-77197180D01*
X175196115Y-77197180D02*
X175243734Y-77101942D01*
X175243734Y-77101942D02*
X175243734Y-76863847D01*
X175243734Y-76863847D02*
X175196115Y-76768609D01*
X175196115Y-76768609D02*
X175148496Y-76720990D01*
X175148496Y-76720990D02*
X175053258Y-76673371D01*
X175053258Y-76673371D02*
X174862782Y-76673371D01*
X174862782Y-76673371D02*
X174767544Y-76720990D01*
X174767544Y-76720990D02*
X174719925Y-76768609D01*
X174719925Y-76768609D02*
X174672306Y-76863847D01*
X175243734Y-57792419D02*
X174672306Y-57792419D01*
X174958020Y-57792419D02*
X174958020Y-56792419D01*
X174958020Y-56792419D02*
X174862782Y-56935276D01*
X174862782Y-56935276D02*
X174767544Y-57030514D01*
X174767544Y-57030514D02*
X174672306Y-57078133D01*
X174315163Y-92792419D02*
X173743735Y-92792419D01*
X174029449Y-92792419D02*
X174029449Y-91792419D01*
X174029449Y-91792419D02*
X173934211Y-91935276D01*
X173934211Y-91935276D02*
X173838973Y-92030514D01*
X173838973Y-92030514D02*
X173743735Y-92078133D01*
X174934211Y-91792419D02*
X175029449Y-91792419D01*
X175029449Y-91792419D02*
X175124687Y-91840038D01*
X175124687Y-91840038D02*
X175172306Y-91887657D01*
X175172306Y-91887657D02*
X175219925Y-91982895D01*
X175219925Y-91982895D02*
X175267544Y-92173371D01*
X175267544Y-92173371D02*
X175267544Y-92411466D01*
X175267544Y-92411466D02*
X175219925Y-92601942D01*
X175219925Y-92601942D02*
X175172306Y-92697180D01*
X175172306Y-92697180D02*
X175124687Y-92744800D01*
X175124687Y-92744800D02*
X175029449Y-92792419D01*
X175029449Y-92792419D02*
X174934211Y-92792419D01*
X174934211Y-92792419D02*
X174838973Y-92744800D01*
X174838973Y-92744800D02*
X174791354Y-92697180D01*
X174791354Y-92697180D02*
X174743735Y-92601942D01*
X174743735Y-92601942D02*
X174696116Y-92411466D01*
X174696116Y-92411466D02*
X174696116Y-92173371D01*
X174696116Y-92173371D02*
X174743735Y-91982895D01*
X174743735Y-91982895D02*
X174791354Y-91887657D01*
X174791354Y-91887657D02*
X174838973Y-91840038D01*
X174838973Y-91840038D02*
X174934211Y-91792419D01*
X173672306Y-131887657D02*
X173719925Y-131840038D01*
X173719925Y-131840038D02*
X173815163Y-131792419D01*
X173815163Y-131792419D02*
X174053258Y-131792419D01*
X174053258Y-131792419D02*
X174148496Y-131840038D01*
X174148496Y-131840038D02*
X174196115Y-131887657D01*
X174196115Y-131887657D02*
X174243734Y-131982895D01*
X174243734Y-131982895D02*
X174243734Y-132078133D01*
X174243734Y-132078133D02*
X174196115Y-132220990D01*
X174196115Y-132220990D02*
X173624687Y-132792419D01*
X173624687Y-132792419D02*
X174243734Y-132792419D01*
X174862782Y-131792419D02*
X174958020Y-131792419D01*
X174958020Y-131792419D02*
X175053258Y-131840038D01*
X175053258Y-131840038D02*
X175100877Y-131887657D01*
X175100877Y-131887657D02*
X175148496Y-131982895D01*
X175148496Y-131982895D02*
X175196115Y-132173371D01*
X175196115Y-132173371D02*
X175196115Y-132411466D01*
X175196115Y-132411466D02*
X175148496Y-132601942D01*
X175148496Y-132601942D02*
X175100877Y-132697180D01*
X175100877Y-132697180D02*
X175053258Y-132744800D01*
X175053258Y-132744800D02*
X174958020Y-132792419D01*
X174958020Y-132792419D02*
X174862782Y-132792419D01*
X174862782Y-132792419D02*
X174767544Y-132744800D01*
X174767544Y-132744800D02*
X174719925Y-132697180D01*
X174719925Y-132697180D02*
X174672306Y-132601942D01*
X174672306Y-132601942D02*
X174624687Y-132411466D01*
X174624687Y-132411466D02*
X174624687Y-132173371D01*
X174624687Y-132173371D02*
X174672306Y-131982895D01*
X174672306Y-131982895D02*
X174719925Y-131887657D01*
X174719925Y-131887657D02*
X174767544Y-131840038D01*
X174767544Y-131840038D02*
X174862782Y-131792419D01*
X174196115Y-121292419D02*
X173624687Y-121292419D01*
X173910401Y-121292419D02*
X173910401Y-120292419D01*
X173910401Y-120292419D02*
X173815163Y-120435276D01*
X173815163Y-120435276D02*
X173719925Y-120530514D01*
X173719925Y-120530514D02*
X173624687Y-120578133D01*
X174529449Y-120292419D02*
X175196115Y-120292419D01*
X175196115Y-120292419D02*
X174767544Y-121292419D01*
X173672306Y-139887657D02*
X173719925Y-139840038D01*
X173719925Y-139840038D02*
X173815163Y-139792419D01*
X173815163Y-139792419D02*
X174053258Y-139792419D01*
X174053258Y-139792419D02*
X174148496Y-139840038D01*
X174148496Y-139840038D02*
X174196115Y-139887657D01*
X174196115Y-139887657D02*
X174243734Y-139982895D01*
X174243734Y-139982895D02*
X174243734Y-140078133D01*
X174243734Y-140078133D02*
X174196115Y-140220990D01*
X174196115Y-140220990D02*
X173624687Y-140792419D01*
X173624687Y-140792419D02*
X174243734Y-140792419D01*
X174624687Y-139887657D02*
X174672306Y-139840038D01*
X174672306Y-139840038D02*
X174767544Y-139792419D01*
X174767544Y-139792419D02*
X175005639Y-139792419D01*
X175005639Y-139792419D02*
X175100877Y-139840038D01*
X175100877Y-139840038D02*
X175148496Y-139887657D01*
X175148496Y-139887657D02*
X175196115Y-139982895D01*
X175196115Y-139982895D02*
X175196115Y-140078133D01*
X175196115Y-140078133D02*
X175148496Y-140220990D01*
X175148496Y-140220990D02*
X174577068Y-140792419D01*
X174577068Y-140792419D02*
X175196115Y-140792419D01*
X175077068Y-68625752D02*
X175077068Y-69292419D01*
X174838973Y-68244800D02*
X174600878Y-68959085D01*
X174600878Y-68959085D02*
X175219925Y-68959085D01*
X174148496Y-96792419D02*
X173577068Y-96792419D01*
X173862782Y-96792419D02*
X173862782Y-95792419D01*
X173862782Y-95792419D02*
X173767544Y-95935276D01*
X173767544Y-95935276D02*
X173672306Y-96030514D01*
X173672306Y-96030514D02*
X173577068Y-96078133D01*
X175100877Y-96792419D02*
X174529449Y-96792419D01*
X174815163Y-96792419D02*
X174815163Y-95792419D01*
X174815163Y-95792419D02*
X174719925Y-95935276D01*
X174719925Y-95935276D02*
X174624687Y-96030514D01*
X174624687Y-96030514D02*
X174529449Y-96078133D01*
X174196115Y-101292419D02*
X173624687Y-101292419D01*
X173910401Y-101292419D02*
X173910401Y-100292419D01*
X173910401Y-100292419D02*
X173815163Y-100435276D01*
X173815163Y-100435276D02*
X173719925Y-100530514D01*
X173719925Y-100530514D02*
X173624687Y-100578133D01*
X174577068Y-100387657D02*
X174624687Y-100340038D01*
X174624687Y-100340038D02*
X174719925Y-100292419D01*
X174719925Y-100292419D02*
X174958020Y-100292419D01*
X174958020Y-100292419D02*
X175053258Y-100340038D01*
X175053258Y-100340038D02*
X175100877Y-100387657D01*
X175100877Y-100387657D02*
X175148496Y-100482895D01*
X175148496Y-100482895D02*
X175148496Y-100578133D01*
X175148496Y-100578133D02*
X175100877Y-100720990D01*
X175100877Y-100720990D02*
X174529449Y-101292419D01*
X174529449Y-101292419D02*
X175148496Y-101292419D01*
X174910401Y-84720990D02*
X174815163Y-84673371D01*
X174815163Y-84673371D02*
X174767544Y-84625752D01*
X174767544Y-84625752D02*
X174719925Y-84530514D01*
X174719925Y-84530514D02*
X174719925Y-84482895D01*
X174719925Y-84482895D02*
X174767544Y-84387657D01*
X174767544Y-84387657D02*
X174815163Y-84340038D01*
X174815163Y-84340038D02*
X174910401Y-84292419D01*
X174910401Y-84292419D02*
X175100877Y-84292419D01*
X175100877Y-84292419D02*
X175196115Y-84340038D01*
X175196115Y-84340038D02*
X175243734Y-84387657D01*
X175243734Y-84387657D02*
X175291353Y-84482895D01*
X175291353Y-84482895D02*
X175291353Y-84530514D01*
X175291353Y-84530514D02*
X175243734Y-84625752D01*
X175243734Y-84625752D02*
X175196115Y-84673371D01*
X175196115Y-84673371D02*
X175100877Y-84720990D01*
X175100877Y-84720990D02*
X174910401Y-84720990D01*
X174910401Y-84720990D02*
X174815163Y-84768609D01*
X174815163Y-84768609D02*
X174767544Y-84816228D01*
X174767544Y-84816228D02*
X174719925Y-84911466D01*
X174719925Y-84911466D02*
X174719925Y-85101942D01*
X174719925Y-85101942D02*
X174767544Y-85197180D01*
X174767544Y-85197180D02*
X174815163Y-85244800D01*
X174815163Y-85244800D02*
X174910401Y-85292419D01*
X174910401Y-85292419D02*
X175100877Y-85292419D01*
X175100877Y-85292419D02*
X175196115Y-85244800D01*
X175196115Y-85244800D02*
X175243734Y-85197180D01*
X175243734Y-85197180D02*
X175291353Y-85101942D01*
X175291353Y-85101942D02*
X175291353Y-84911466D01*
X175291353Y-84911466D02*
X175243734Y-84816228D01*
X175243734Y-84816228D02*
X175196115Y-84768609D01*
X175196115Y-84768609D02*
X175100877Y-84720990D01*
X175172306Y-72292419D02*
X174696116Y-72292419D01*
X174696116Y-72292419D02*
X174648497Y-72768609D01*
X174648497Y-72768609D02*
X174696116Y-72720990D01*
X174696116Y-72720990D02*
X174791354Y-72673371D01*
X174791354Y-72673371D02*
X175029449Y-72673371D01*
X175029449Y-72673371D02*
X175124687Y-72720990D01*
X175124687Y-72720990D02*
X175172306Y-72768609D01*
X175172306Y-72768609D02*
X175219925Y-72863847D01*
X175219925Y-72863847D02*
X175219925Y-73101942D01*
X175219925Y-73101942D02*
X175172306Y-73197180D01*
X175172306Y-73197180D02*
X175124687Y-73244800D01*
X175124687Y-73244800D02*
X175029449Y-73292419D01*
X175029449Y-73292419D02*
X174791354Y-73292419D01*
X174791354Y-73292419D02*
X174696116Y-73244800D01*
X174696116Y-73244800D02*
X174648497Y-73197180D01*
X174529449Y-80292419D02*
X175196115Y-80292419D01*
X175196115Y-80292419D02*
X174767544Y-81292419D01*
X174243734Y-113292419D02*
X173672306Y-113292419D01*
X173958020Y-113292419D02*
X173958020Y-112292419D01*
X173958020Y-112292419D02*
X173862782Y-112435276D01*
X173862782Y-112435276D02*
X173767544Y-112530514D01*
X173767544Y-112530514D02*
X173672306Y-112578133D01*
X175148496Y-112292419D02*
X174672306Y-112292419D01*
X174672306Y-112292419D02*
X174624687Y-112768609D01*
X174624687Y-112768609D02*
X174672306Y-112720990D01*
X174672306Y-112720990D02*
X174767544Y-112673371D01*
X174767544Y-112673371D02*
X175005639Y-112673371D01*
X175005639Y-112673371D02*
X175100877Y-112720990D01*
X175100877Y-112720990D02*
X175148496Y-112768609D01*
X175148496Y-112768609D02*
X175196115Y-112863847D01*
X175196115Y-112863847D02*
X175196115Y-113101942D01*
X175196115Y-113101942D02*
X175148496Y-113197180D01*
X175148496Y-113197180D02*
X175100877Y-113244800D01*
X175100877Y-113244800D02*
X175005639Y-113292419D01*
X175005639Y-113292419D02*
X174767544Y-113292419D01*
X174767544Y-113292419D02*
X174672306Y-113244800D01*
X174672306Y-113244800D02*
X174624687Y-113197180D01*
X174696116Y-89292419D02*
X174886592Y-89292419D01*
X174886592Y-89292419D02*
X174981830Y-89244800D01*
X174981830Y-89244800D02*
X175029449Y-89197180D01*
X175029449Y-89197180D02*
X175124687Y-89054323D01*
X175124687Y-89054323D02*
X175172306Y-88863847D01*
X175172306Y-88863847D02*
X175172306Y-88482895D01*
X175172306Y-88482895D02*
X175124687Y-88387657D01*
X175124687Y-88387657D02*
X175077068Y-88340038D01*
X175077068Y-88340038D02*
X174981830Y-88292419D01*
X174981830Y-88292419D02*
X174791354Y-88292419D01*
X174791354Y-88292419D02*
X174696116Y-88340038D01*
X174696116Y-88340038D02*
X174648497Y-88387657D01*
X174648497Y-88387657D02*
X174600878Y-88482895D01*
X174600878Y-88482895D02*
X174600878Y-88720990D01*
X174600878Y-88720990D02*
X174648497Y-88816228D01*
X174648497Y-88816228D02*
X174696116Y-88863847D01*
X174696116Y-88863847D02*
X174791354Y-88911466D01*
X174791354Y-88911466D02*
X174981830Y-88911466D01*
X174981830Y-88911466D02*
X175077068Y-88863847D01*
X175077068Y-88863847D02*
X175124687Y-88816228D01*
X175124687Y-88816228D02*
X175172306Y-88720990D01*
X174338972Y-117292419D02*
X173767544Y-117292419D01*
X174053258Y-117292419D02*
X174053258Y-116292419D01*
X174053258Y-116292419D02*
X173958020Y-116435276D01*
X173958020Y-116435276D02*
X173862782Y-116530514D01*
X173862782Y-116530514D02*
X173767544Y-116578133D01*
X175196115Y-116292419D02*
X175005639Y-116292419D01*
X175005639Y-116292419D02*
X174910401Y-116340038D01*
X174910401Y-116340038D02*
X174862782Y-116387657D01*
X174862782Y-116387657D02*
X174767544Y-116530514D01*
X174767544Y-116530514D02*
X174719925Y-116720990D01*
X174719925Y-116720990D02*
X174719925Y-117101942D01*
X174719925Y-117101942D02*
X174767544Y-117197180D01*
X174767544Y-117197180D02*
X174815163Y-117244800D01*
X174815163Y-117244800D02*
X174910401Y-117292419D01*
X174910401Y-117292419D02*
X175100877Y-117292419D01*
X175100877Y-117292419D02*
X175196115Y-117244800D01*
X175196115Y-117244800D02*
X175243734Y-117197180D01*
X175243734Y-117197180D02*
X175291353Y-117101942D01*
X175291353Y-117101942D02*
X175291353Y-116863847D01*
X175291353Y-116863847D02*
X175243734Y-116768609D01*
X175243734Y-116768609D02*
X175196115Y-116720990D01*
X175196115Y-116720990D02*
X175100877Y-116673371D01*
X175100877Y-116673371D02*
X174910401Y-116673371D01*
X174910401Y-116673371D02*
X174815163Y-116720990D01*
X174815163Y-116720990D02*
X174767544Y-116768609D01*
X174767544Y-116768609D02*
X174719925Y-116863847D01*
X174600878Y-60887657D02*
X174648497Y-60840038D01*
X174648497Y-60840038D02*
X174743735Y-60792419D01*
X174743735Y-60792419D02*
X174981830Y-60792419D01*
X174981830Y-60792419D02*
X175077068Y-60840038D01*
X175077068Y-60840038D02*
X175124687Y-60887657D01*
X175124687Y-60887657D02*
X175172306Y-60982895D01*
X175172306Y-60982895D02*
X175172306Y-61078133D01*
X175172306Y-61078133D02*
X175124687Y-61220990D01*
X175124687Y-61220990D02*
X174553259Y-61792419D01*
X174553259Y-61792419D02*
X175172306Y-61792419D01*
X174553259Y-64792419D02*
X175172306Y-64792419D01*
X175172306Y-64792419D02*
X174838973Y-65173371D01*
X174838973Y-65173371D02*
X174981830Y-65173371D01*
X174981830Y-65173371D02*
X175077068Y-65220990D01*
X175077068Y-65220990D02*
X175124687Y-65268609D01*
X175124687Y-65268609D02*
X175172306Y-65363847D01*
X175172306Y-65363847D02*
X175172306Y-65601942D01*
X175172306Y-65601942D02*
X175124687Y-65697180D01*
X175124687Y-65697180D02*
X175077068Y-65744800D01*
X175077068Y-65744800D02*
X174981830Y-65792419D01*
X174981830Y-65792419D02*
X174696116Y-65792419D01*
X174696116Y-65792419D02*
X174600878Y-65744800D01*
X174600878Y-65744800D02*
X174553259Y-65697180D01*
X174219925Y-105292419D02*
X173648497Y-105292419D01*
X173934211Y-105292419D02*
X173934211Y-104292419D01*
X173934211Y-104292419D02*
X173838973Y-104435276D01*
X173838973Y-104435276D02*
X173743735Y-104530514D01*
X173743735Y-104530514D02*
X173648497Y-104578133D01*
X174553259Y-104292419D02*
X175172306Y-104292419D01*
X175172306Y-104292419D02*
X174838973Y-104673371D01*
X174838973Y-104673371D02*
X174981830Y-104673371D01*
X174981830Y-104673371D02*
X175077068Y-104720990D01*
X175077068Y-104720990D02*
X175124687Y-104768609D01*
X175124687Y-104768609D02*
X175172306Y-104863847D01*
X175172306Y-104863847D02*
X175172306Y-105101942D01*
X175172306Y-105101942D02*
X175124687Y-105197180D01*
X175124687Y-105197180D02*
X175077068Y-105244800D01*
X175077068Y-105244800D02*
X174981830Y-105292419D01*
X174981830Y-105292419D02*
X174696116Y-105292419D01*
X174696116Y-105292419D02*
X174600878Y-105244800D01*
X174600878Y-105244800D02*
X174553259Y-105197180D01*
X174148496Y-128792419D02*
X173577068Y-128792419D01*
X173862782Y-128792419D02*
X173862782Y-127792419D01*
X173862782Y-127792419D02*
X173767544Y-127935276D01*
X173767544Y-127935276D02*
X173672306Y-128030514D01*
X173672306Y-128030514D02*
X173577068Y-128078133D01*
X174624687Y-128792419D02*
X174815163Y-128792419D01*
X174815163Y-128792419D02*
X174910401Y-128744800D01*
X174910401Y-128744800D02*
X174958020Y-128697180D01*
X174958020Y-128697180D02*
X175053258Y-128554323D01*
X175053258Y-128554323D02*
X175100877Y-128363847D01*
X175100877Y-128363847D02*
X175100877Y-127982895D01*
X175100877Y-127982895D02*
X175053258Y-127887657D01*
X175053258Y-127887657D02*
X175005639Y-127840038D01*
X175005639Y-127840038D02*
X174910401Y-127792419D01*
X174910401Y-127792419D02*
X174719925Y-127792419D01*
X174719925Y-127792419D02*
X174624687Y-127840038D01*
X174624687Y-127840038D02*
X174577068Y-127887657D01*
X174577068Y-127887657D02*
X174529449Y-127982895D01*
X174529449Y-127982895D02*
X174529449Y-128220990D01*
X174529449Y-128220990D02*
X174577068Y-128316228D01*
X174577068Y-128316228D02*
X174624687Y-128363847D01*
X174624687Y-128363847D02*
X174719925Y-128411466D01*
X174719925Y-128411466D02*
X174910401Y-128411466D01*
X174910401Y-128411466D02*
X175005639Y-128363847D01*
X175005639Y-128363847D02*
X175053258Y-128316228D01*
X175053258Y-128316228D02*
X175100877Y-128220990D01*
X174291353Y-124792419D02*
X173719925Y-124792419D01*
X174005639Y-124792419D02*
X174005639Y-123792419D01*
X174005639Y-123792419D02*
X173910401Y-123935276D01*
X173910401Y-123935276D02*
X173815163Y-124030514D01*
X173815163Y-124030514D02*
X173719925Y-124078133D01*
X174862782Y-124220990D02*
X174767544Y-124173371D01*
X174767544Y-124173371D02*
X174719925Y-124125752D01*
X174719925Y-124125752D02*
X174672306Y-124030514D01*
X174672306Y-124030514D02*
X174672306Y-123982895D01*
X174672306Y-123982895D02*
X174719925Y-123887657D01*
X174719925Y-123887657D02*
X174767544Y-123840038D01*
X174767544Y-123840038D02*
X174862782Y-123792419D01*
X174862782Y-123792419D02*
X175053258Y-123792419D01*
X175053258Y-123792419D02*
X175148496Y-123840038D01*
X175148496Y-123840038D02*
X175196115Y-123887657D01*
X175196115Y-123887657D02*
X175243734Y-123982895D01*
X175243734Y-123982895D02*
X175243734Y-124030514D01*
X175243734Y-124030514D02*
X175196115Y-124125752D01*
X175196115Y-124125752D02*
X175148496Y-124173371D01*
X175148496Y-124173371D02*
X175053258Y-124220990D01*
X175053258Y-124220990D02*
X174862782Y-124220990D01*
X174862782Y-124220990D02*
X174767544Y-124268609D01*
X174767544Y-124268609D02*
X174719925Y-124316228D01*
X174719925Y-124316228D02*
X174672306Y-124411466D01*
X174672306Y-124411466D02*
X174672306Y-124601942D01*
X174672306Y-124601942D02*
X174719925Y-124697180D01*
X174719925Y-124697180D02*
X174767544Y-124744800D01*
X174767544Y-124744800D02*
X174862782Y-124792419D01*
X174862782Y-124792419D02*
X175053258Y-124792419D01*
X175053258Y-124792419D02*
X175148496Y-124744800D01*
X175148496Y-124744800D02*
X175196115Y-124697180D01*
X175196115Y-124697180D02*
X175243734Y-124601942D01*
X175243734Y-124601942D02*
X175243734Y-124411466D01*
X175243734Y-124411466D02*
X175196115Y-124316228D01*
X175196115Y-124316228D02*
X175148496Y-124268609D01*
X175148496Y-124268609D02*
X175053258Y-124220990D01*
X173719925Y-135887657D02*
X173767544Y-135840038D01*
X173767544Y-135840038D02*
X173862782Y-135792419D01*
X173862782Y-135792419D02*
X174100877Y-135792419D01*
X174100877Y-135792419D02*
X174196115Y-135840038D01*
X174196115Y-135840038D02*
X174243734Y-135887657D01*
X174243734Y-135887657D02*
X174291353Y-135982895D01*
X174291353Y-135982895D02*
X174291353Y-136078133D01*
X174291353Y-136078133D02*
X174243734Y-136220990D01*
X174243734Y-136220990D02*
X173672306Y-136792419D01*
X173672306Y-136792419D02*
X174291353Y-136792419D01*
X175243734Y-136792419D02*
X174672306Y-136792419D01*
X174958020Y-136792419D02*
X174958020Y-135792419D01*
X174958020Y-135792419D02*
X174862782Y-135935276D01*
X174862782Y-135935276D02*
X174767544Y-136030514D01*
X174767544Y-136030514D02*
X174672306Y-136078133D01*
X145766666Y-128497419D02*
X145766666Y-129211704D01*
X145766666Y-129211704D02*
X145719047Y-129354561D01*
X145719047Y-129354561D02*
X145623809Y-129449800D01*
X145623809Y-129449800D02*
X145480952Y-129497419D01*
X145480952Y-129497419D02*
X145385714Y-129497419D01*
X146147619Y-128497419D02*
X146766666Y-128497419D01*
X146766666Y-128497419D02*
X146433333Y-128878371D01*
X146433333Y-128878371D02*
X146576190Y-128878371D01*
X146576190Y-128878371D02*
X146671428Y-128925990D01*
X146671428Y-128925990D02*
X146719047Y-128973609D01*
X146719047Y-128973609D02*
X146766666Y-129068847D01*
X146766666Y-129068847D02*
X146766666Y-129306942D01*
X146766666Y-129306942D02*
X146719047Y-129402180D01*
X146719047Y-129402180D02*
X146671428Y-129449800D01*
X146671428Y-129449800D02*
X146576190Y-129497419D01*
X146576190Y-129497419D02*
X146290476Y-129497419D01*
X146290476Y-129497419D02*
X146195238Y-129449800D01*
X146195238Y-129449800D02*
X146147619Y-129402180D01*
D15*
G04 #@! TO.C,J3*
X143070000Y-71210000D02*
X144400000Y-71210000D01*
X143070000Y-72540000D02*
X143070000Y-71210000D01*
X143070000Y-73810000D02*
X143070000Y-127210000D01*
X143070000Y-73810000D02*
X145670000Y-73810000D01*
X143070000Y-127210000D02*
X148270000Y-127210000D01*
X145670000Y-71210000D02*
X148270000Y-71210000D01*
X145670000Y-73810000D02*
X145670000Y-71210000D01*
X148270000Y-71210000D02*
X148270000Y-127210000D01*
G04 #@! TD*
M02*
