G04 #@! TF.GenerationSoftware,KiCad,Pcbnew,8.0.6-8.0.6-0~ubuntu24.10.1*
G04 #@! TF.CreationDate,2024-10-17T08:48:07-07:00*
G04 #@! TF.ProjectId,kim1breakout,6b696d31-6272-4656-916b-6f75742e6b69,1.3*
G04 #@! TF.SameCoordinates,Original*
G04 #@! TF.FileFunction,Copper,L1,Top*
G04 #@! TF.FilePolarity,Positive*
%FSLAX46Y46*%
G04 Gerber Fmt 4.6, Leading zero omitted, Abs format (unit mm)*
G04 Created by KiCad (PCBNEW 8.0.6-8.0.6-0~ubuntu24.10.1) date 2024-10-17 08:48:07*
%MOMM*%
%LPD*%
G01*
G04 APERTURE LIST*
G04 Aperture macros list*
%AMRoundRect*
0 Rectangle with rounded corners*
0 $1 Rounding radius*
0 $2 $3 $4 $5 $6 $7 $8 $9 X,Y pos of 4 corners*
0 Add a 4 corners polygon primitive as box body*
4,1,4,$2,$3,$4,$5,$6,$7,$8,$9,$2,$3,0*
0 Add four circle primitives for the rounded corners*
1,1,$1+$1,$2,$3*
1,1,$1+$1,$4,$5*
1,1,$1+$1,$6,$7*
1,1,$1+$1,$8,$9*
0 Add four rect primitives between the rounded corners*
20,1,$1+$1,$2,$3,$4,$5,0*
20,1,$1+$1,$4,$5,$6,$7,0*
20,1,$1+$1,$6,$7,$8,$9,0*
20,1,$1+$1,$8,$9,$2,$3,0*%
G04 Aperture macros list end*
G04 #@! TA.AperFunction,SMDPad,CuDef*
%ADD10RoundRect,0.500000X-3.250000X-0.500000X3.250000X-0.500000X3.250000X0.500000X-3.250000X0.500000X0*%
G04 #@! TD*
G04 #@! TA.AperFunction,ComponentPad*
%ADD11R,1.700000X1.700000*%
G04 #@! TD*
G04 #@! TA.AperFunction,ComponentPad*
%ADD12O,1.700000X1.700000*%
G04 #@! TD*
G04 #@! TA.AperFunction,Conductor*
%ADD13C,0.200000*%
G04 #@! TD*
G04 APERTURE END LIST*
D10*
G04 #@! TO.P,J1,1,Pin_1*
G04 #@! TO.N,Net-(J1-Pin_1)*
X106100000Y-57420000D03*
G04 #@! TO.P,J1,2,Pin_2*
G04 #@! TO.N,Net-(J1-Pin_2)*
X106100000Y-61380000D03*
G04 #@! TO.P,J1,3,Pin_3*
G04 #@! TO.N,Net-(J1-Pin_3)*
X106100000Y-65340000D03*
G04 #@! TO.P,J1,4,Pin_4*
G04 #@! TO.N,Net-(J1-Pin_4)*
X106100000Y-69300000D03*
G04 #@! TO.P,J1,5,Pin_5*
G04 #@! TO.N,Net-(J1-Pin_5)*
X106100000Y-73260000D03*
G04 #@! TO.P,J1,6,Pin_6*
G04 #@! TO.N,Net-(J1-Pin_6)*
X106100000Y-77220000D03*
G04 #@! TO.P,J1,7,Pin_7*
G04 #@! TO.N,Net-(J1-Pin_7)*
X106100000Y-81180000D03*
G04 #@! TO.P,J1,8,Pin_8*
G04 #@! TO.N,Net-(J1-Pin_8)*
X106100000Y-85140000D03*
G04 #@! TO.P,J1,9,Pin_9*
G04 #@! TO.N,Net-(J1-Pin_9)*
X106100000Y-89100000D03*
G04 #@! TO.P,J1,10,Pin_10*
G04 #@! TO.N,Net-(J1-Pin_10)*
X106100000Y-93060000D03*
G04 #@! TO.P,J1,11,Pin_11*
G04 #@! TO.N,Net-(J1-Pin_11)*
X106100000Y-97020000D03*
G04 #@! TO.P,J1,12,Pin_12*
G04 #@! TO.N,Net-(J1-Pin_12)*
X106100000Y-100980000D03*
G04 #@! TO.P,J1,13,Pin_13*
G04 #@! TO.N,Net-(J1-Pin_13)*
X106100000Y-104940000D03*
G04 #@! TO.P,J1,14,Pin_14*
G04 #@! TO.N,Net-(J1-Pin_14)*
X106100000Y-108900000D03*
G04 #@! TO.P,J1,15,Pin_15*
G04 #@! TO.N,Net-(J1-Pin_15)*
X106100000Y-112860000D03*
G04 #@! TO.P,J1,16,Pin_16*
G04 #@! TO.N,Net-(J1-Pin_16)*
X106100000Y-116820000D03*
G04 #@! TO.P,J1,17,Pin_17*
G04 #@! TO.N,Net-(J1-Pin_17)*
X106100000Y-120780000D03*
G04 #@! TO.P,J1,18,Pin_18*
G04 #@! TO.N,Net-(J1-Pin_18)*
X106100000Y-124740000D03*
G04 #@! TO.P,J1,19,Pin_19*
G04 #@! TO.N,Net-(J1-Pin_19)*
X106100000Y-128700000D03*
G04 #@! TO.P,J1,20,Pin_20*
G04 #@! TO.N,Net-(J1-Pin_20)*
X106100000Y-132660000D03*
G04 #@! TO.P,J1,21,Pin_21*
G04 #@! TO.N,Net-(J1-Pin_21)*
X106100000Y-136620000D03*
G04 #@! TO.P,J1,22,Pin_22*
G04 #@! TO.N,Net-(J1-Pin_22)*
X106100000Y-140580000D03*
G04 #@! TD*
G04 #@! TO.P,J2,1,Pin_1*
G04 #@! TO.N,Net-(J1-Pin_1)*
X184800000Y-57360000D03*
G04 #@! TO.P,J2,2,Pin_2*
G04 #@! TO.N,Net-(J1-Pin_2)*
X184800000Y-61320000D03*
G04 #@! TO.P,J2,3,Pin_3*
G04 #@! TO.N,Net-(J1-Pin_3)*
X184800000Y-65280000D03*
G04 #@! TO.P,J2,4,Pin_4*
G04 #@! TO.N,Net-(J1-Pin_4)*
X184800000Y-69240000D03*
G04 #@! TO.P,J2,5,Pin_5*
G04 #@! TO.N,Net-(J1-Pin_5)*
X184800000Y-73200000D03*
G04 #@! TO.P,J2,6,Pin_6*
G04 #@! TO.N,Net-(J1-Pin_6)*
X184800000Y-77160000D03*
G04 #@! TO.P,J2,7,Pin_7*
G04 #@! TO.N,Net-(J1-Pin_7)*
X184800000Y-81120000D03*
G04 #@! TO.P,J2,8,Pin_8*
G04 #@! TO.N,Net-(J1-Pin_8)*
X184800000Y-85080000D03*
G04 #@! TO.P,J2,9,Pin_9*
G04 #@! TO.N,Net-(J1-Pin_9)*
X184800000Y-89040000D03*
G04 #@! TO.P,J2,10,Pin_10*
G04 #@! TO.N,Net-(J1-Pin_10)*
X184800000Y-93000000D03*
G04 #@! TO.P,J2,11,Pin_11*
G04 #@! TO.N,Net-(J1-Pin_11)*
X184800000Y-96960000D03*
G04 #@! TO.P,J2,12,Pin_12*
G04 #@! TO.N,Net-(J1-Pin_12)*
X184800000Y-100920000D03*
G04 #@! TO.P,J2,13,Pin_13*
G04 #@! TO.N,Net-(J1-Pin_13)*
X184800000Y-104880000D03*
G04 #@! TO.P,J2,14,Pin_14*
G04 #@! TO.N,Net-(J1-Pin_14)*
X184800000Y-108840000D03*
G04 #@! TO.P,J2,15,Pin_15*
G04 #@! TO.N,Net-(J1-Pin_15)*
X184800000Y-112800000D03*
G04 #@! TO.P,J2,16,Pin_16*
G04 #@! TO.N,Net-(J1-Pin_16)*
X184800000Y-116760000D03*
G04 #@! TO.P,J2,17,Pin_17*
G04 #@! TO.N,Net-(J1-Pin_17)*
X184800000Y-120720000D03*
G04 #@! TO.P,J2,18,Pin_18*
G04 #@! TO.N,Net-(J1-Pin_18)*
X184800000Y-124680000D03*
G04 #@! TO.P,J2,19,Pin_19*
G04 #@! TO.N,Net-(J1-Pin_19)*
X184800000Y-128640000D03*
G04 #@! TO.P,J2,20,Pin_20*
G04 #@! TO.N,Net-(J1-Pin_20)*
X184800000Y-132600000D03*
G04 #@! TO.P,J2,21,Pin_21*
G04 #@! TO.N,Net-(J1-Pin_21)*
X184800000Y-136560000D03*
G04 #@! TO.P,J2,22,Pin_22*
G04 #@! TO.N,Net-(J1-Pin_22)*
X184800000Y-140520000D03*
G04 #@! TD*
D11*
G04 #@! TO.P,J3,1,Pin_1*
G04 #@! TO.N,Net-(J1-Pin_1)*
X144400000Y-72540000D03*
D12*
G04 #@! TO.P,J3,2,Pin_2*
G04 #@! TO.N,Net-(J1-Pin_2)*
X144400000Y-75080000D03*
G04 #@! TO.P,J3,3,Pin_3*
G04 #@! TO.N,Net-(J1-Pin_3)*
X144400000Y-77620000D03*
G04 #@! TO.P,J3,4,Pin_4*
G04 #@! TO.N,Net-(J1-Pin_4)*
X144400000Y-80160000D03*
G04 #@! TO.P,J3,5,Pin_5*
G04 #@! TO.N,Net-(J1-Pin_5)*
X144400000Y-82700000D03*
G04 #@! TO.P,J3,6,Pin_6*
G04 #@! TO.N,Net-(J1-Pin_6)*
X144400000Y-85240000D03*
G04 #@! TO.P,J3,7,Pin_7*
G04 #@! TO.N,Net-(J1-Pin_7)*
X144400000Y-87780000D03*
G04 #@! TO.P,J3,8,Pin_8*
G04 #@! TO.N,Net-(J1-Pin_8)*
X144400000Y-90320000D03*
G04 #@! TO.P,J3,9,Pin_9*
G04 #@! TO.N,Net-(J1-Pin_9)*
X144400000Y-92860000D03*
G04 #@! TO.P,J3,10,Pin_10*
G04 #@! TO.N,Net-(J1-Pin_10)*
X144400000Y-95400000D03*
G04 #@! TO.P,J3,11,Pin_11*
G04 #@! TO.N,Net-(J1-Pin_11)*
X144400000Y-97940000D03*
G04 #@! TO.P,J3,12,Pin_12*
G04 #@! TO.N,Net-(J1-Pin_12)*
X144400000Y-100480000D03*
G04 #@! TO.P,J3,13,Pin_13*
G04 #@! TO.N,Net-(J1-Pin_13)*
X144400000Y-103020000D03*
G04 #@! TO.P,J3,14,Pin_14*
G04 #@! TO.N,Net-(J1-Pin_14)*
X144400000Y-105560000D03*
G04 #@! TO.P,J3,15,Pin_15*
G04 #@! TO.N,Net-(J1-Pin_15)*
X144400000Y-108100000D03*
G04 #@! TO.P,J3,16,Pin_16*
G04 #@! TO.N,Net-(J1-Pin_16)*
X144400000Y-110640000D03*
G04 #@! TO.P,J3,17,Pin_17*
G04 #@! TO.N,Net-(J1-Pin_17)*
X144400000Y-113180000D03*
G04 #@! TO.P,J3,18,Pin_18*
G04 #@! TO.N,Net-(J1-Pin_18)*
X144400000Y-115720000D03*
G04 #@! TO.P,J3,19,Pin_19*
G04 #@! TO.N,Net-(J1-Pin_19)*
X144400000Y-118260000D03*
G04 #@! TO.P,J3,20,Pin_20*
G04 #@! TO.N,Net-(J1-Pin_20)*
X144400000Y-120800000D03*
G04 #@! TO.P,J3,21,Pin_21*
G04 #@! TO.N,Net-(J1-Pin_21)*
X144400000Y-123340000D03*
G04 #@! TO.P,J3,22,Pin_22*
G04 #@! TO.N,Net-(J1-Pin_22)*
X144400000Y-125880000D03*
G04 #@! TO.P,J3,A,Pin_A*
G04 #@! TO.N,Net-(J1-Pin_A)*
X146940000Y-72540000D03*
G04 #@! TO.P,J3,B,Pin_B*
G04 #@! TO.N,Net-(J1-Pin_B)*
X146940000Y-75080000D03*
G04 #@! TO.P,J3,C,Pin_C*
G04 #@! TO.N,Net-(J1-Pin_C)*
X146940000Y-77620000D03*
G04 #@! TO.P,J3,D,Pin_D*
G04 #@! TO.N,Net-(J1-Pin_D)*
X146940000Y-80160000D03*
G04 #@! TO.P,J3,E,Pin_E*
G04 #@! TO.N,Net-(J1-Pin_E)*
X146940000Y-82700000D03*
G04 #@! TO.P,J3,F,Pin_F*
G04 #@! TO.N,Net-(J1-Pin_F)*
X146940000Y-85240000D03*
G04 #@! TO.P,J3,H,Pin_H*
G04 #@! TO.N,Net-(J1-Pin_H)*
X146940000Y-87780000D03*
G04 #@! TO.P,J3,J,Pin_J*
G04 #@! TO.N,Net-(J1-Pin_J)*
X146940000Y-90320000D03*
G04 #@! TO.P,J3,K,Pin_K*
G04 #@! TO.N,Net-(J1-Pin_K)*
X146940000Y-92860000D03*
G04 #@! TO.P,J3,L,Pin_L*
G04 #@! TO.N,Net-(J1-Pin_L)*
X146940000Y-95400000D03*
G04 #@! TO.P,J3,M,Pin_M*
G04 #@! TO.N,Net-(J1-Pin_M)*
X146940000Y-97940000D03*
G04 #@! TO.P,J3,N,Pin_N*
G04 #@! TO.N,Net-(J1-Pin_N)*
X146940000Y-100480000D03*
G04 #@! TO.P,J3,P,Pin_P*
G04 #@! TO.N,Net-(J1-Pin_P)*
X146940000Y-103020000D03*
G04 #@! TO.P,J3,R,Pin_R*
G04 #@! TO.N,Net-(J1-Pin_R)*
X146940000Y-105560000D03*
G04 #@! TO.P,J3,S,Pin_S*
G04 #@! TO.N,Net-(J1-Pin_S)*
X146940000Y-108100000D03*
G04 #@! TO.P,J3,T,Pin_T*
G04 #@! TO.N,Net-(J1-Pin_T)*
X146940000Y-110640000D03*
G04 #@! TO.P,J3,U,Pin_U*
G04 #@! TO.N,Net-(J1-Pin_U)*
X146940000Y-113180000D03*
G04 #@! TO.P,J3,V,Pin_V*
G04 #@! TO.N,Net-(J1-Pin_V)*
X146940000Y-115720000D03*
G04 #@! TO.P,J3,W,Pin_W*
G04 #@! TO.N,Net-(J1-Pin_W)*
X146940000Y-118260000D03*
G04 #@! TO.P,J3,X,Pin_X*
G04 #@! TO.N,Net-(J1-Pin_X)*
X146940000Y-120800000D03*
G04 #@! TO.P,J3,Y,Pin_Y*
G04 #@! TO.N,Net-(J1-Pin_Y)*
X146940000Y-123340000D03*
G04 #@! TO.P,J3,Z,Pin_Z*
G04 #@! TO.N,Net-(J1-Pin_Z)*
X146940000Y-125880000D03*
G04 #@! TD*
D13*
G04 #@! TO.N,Net-(J1-Pin_21)*
X144400000Y-123340000D02*
X143248300Y-123340000D01*
X144400000Y-123340000D02*
X145551700Y-123340000D01*
X143248300Y-123340000D02*
X129968300Y-136620000D01*
X146553200Y-124610000D02*
X145551700Y-123608500D01*
X145551700Y-123608500D02*
X145551700Y-123340000D01*
X129968300Y-136620000D02*
X106100000Y-136620000D01*
X161112200Y-136560000D02*
X149162200Y-124610000D01*
X184800000Y-136560000D02*
X161112200Y-136560000D01*
X149162200Y-124610000D02*
X146553200Y-124610000D01*
G04 #@! TO.N,Net-(J1-Pin_20)*
X144400000Y-120800000D02*
X145551700Y-120800000D01*
X149238600Y-122070000D02*
X146553200Y-122070000D01*
X184800000Y-132600000D02*
X159768600Y-132600000D01*
X146553200Y-122070000D02*
X145551700Y-121068500D01*
X144400000Y-120800000D02*
X143248300Y-120800000D01*
X131388300Y-132660000D02*
X106100000Y-132660000D01*
X159768600Y-132600000D02*
X149238600Y-122070000D01*
X145551700Y-121068500D02*
X145551700Y-120800000D01*
X143248300Y-120800000D02*
X131388300Y-132660000D01*
G04 #@! TO.N,Net-(J1-Pin_6)*
X146553200Y-83970000D02*
X145551700Y-84971500D01*
X145551700Y-84971500D02*
X145551700Y-85240000D01*
X166314000Y-83970000D02*
X146553200Y-83970000D01*
X184800000Y-77160000D02*
X173124000Y-77160000D01*
X143248300Y-85240000D02*
X135228300Y-77220000D01*
X173124000Y-77160000D02*
X166314000Y-83970000D01*
X144400000Y-85240000D02*
X145551700Y-85240000D01*
X144400000Y-85240000D02*
X143248300Y-85240000D01*
X135228300Y-77220000D02*
X106100000Y-77220000D01*
G04 #@! TO.N,Net-(J1-Pin_13)*
X145551700Y-103308000D02*
X146415400Y-104171700D01*
X108020000Y-103020000D02*
X144400000Y-103020000D01*
X184091700Y-104171700D02*
X184800000Y-104880000D01*
X106100000Y-104940000D02*
X108020000Y-103020000D01*
X145551700Y-103020000D02*
X145551700Y-103308000D01*
X146415400Y-104171700D02*
X184091700Y-104171700D01*
X144400000Y-103020000D02*
X145551700Y-103020000D01*
G04 #@! TO.N,Net-(J1-Pin_9)*
X139488300Y-89100000D02*
X143248300Y-92860000D01*
X145551700Y-92572100D02*
X146427400Y-91696400D01*
X106100000Y-89100000D02*
X139488300Y-89100000D01*
X146427400Y-91696400D02*
X182143600Y-91696400D01*
X182143600Y-91696400D02*
X184800000Y-89040000D01*
X143824200Y-92860000D02*
X143248300Y-92860000D01*
X143824200Y-92860000D02*
X144400000Y-92860000D01*
X144400000Y-92860000D02*
X145551700Y-92860000D01*
X145551700Y-92860000D02*
X145551700Y-92572100D01*
G04 #@! TO.N,Net-(J1-Pin_11)*
X144400000Y-97940000D02*
X145551700Y-97940000D01*
X145551700Y-97652100D02*
X146461300Y-96742500D01*
X146461300Y-96742500D02*
X184582500Y-96742500D01*
X145551700Y-97940000D02*
X145551700Y-97652100D01*
X106100000Y-97020000D02*
X107020000Y-97940000D01*
X184582500Y-96742500D02*
X184800000Y-96960000D01*
X107020000Y-97940000D02*
X144400000Y-97940000D01*
G04 #@! TO.N,Net-(J1-Pin_8)*
X106100000Y-85140000D02*
X139795900Y-85140000D01*
X143705900Y-89050000D02*
X144400000Y-89050000D01*
X179903500Y-89050000D02*
X183873500Y-85080000D01*
X144400000Y-89050000D02*
X179903500Y-89050000D01*
X144400000Y-89168300D02*
X144400000Y-89050000D01*
X139795900Y-85140000D02*
X143705900Y-89050000D01*
X144400000Y-90320000D02*
X144400000Y-89168300D01*
X183873500Y-85080000D02*
X184800000Y-85080000D01*
G04 #@! TO.N,Net-(J1-Pin_5)*
X144400000Y-82700000D02*
X143248300Y-82700000D01*
X145551700Y-82431500D02*
X145551700Y-82700000D01*
X176447500Y-73200000D02*
X168219000Y-81428500D01*
X133808300Y-73260000D02*
X143248300Y-82700000D01*
X144975900Y-82700000D02*
X145551700Y-82700000D01*
X106100000Y-73260000D02*
X133808300Y-73260000D01*
X146554700Y-81428500D02*
X145551700Y-82431500D01*
X144975900Y-82700000D02*
X144400000Y-82700000D01*
X168219000Y-81428500D02*
X146554700Y-81428500D01*
X184800000Y-73200000D02*
X176447500Y-73200000D01*
G04 #@! TO.N,Net-(J1-Pin_17)*
X149249900Y-114450000D02*
X146553200Y-114450000D01*
X155519900Y-120720000D02*
X149249900Y-114450000D01*
X146553200Y-114450000D02*
X145551700Y-113448500D01*
X135648300Y-120780000D02*
X106100000Y-120780000D01*
X145551700Y-113448500D02*
X145551700Y-113180000D01*
X143248300Y-113180000D02*
X135648300Y-120780000D01*
X144400000Y-113180000D02*
X143248300Y-113180000D01*
X184800000Y-120720000D02*
X155519900Y-120720000D01*
X144400000Y-113180000D02*
X145551700Y-113180000D01*
G04 #@! TO.N,Net-(J1-Pin_16)*
X151117200Y-111910000D02*
X146553200Y-111910000D01*
X145551700Y-110908500D02*
X145551700Y-110640000D01*
X144400000Y-110640000D02*
X143248300Y-110640000D01*
X155967200Y-116760000D02*
X151117200Y-111910000D01*
X146553200Y-111910000D02*
X145551700Y-110908500D01*
X137068300Y-116820000D02*
X106100000Y-116820000D01*
X184800000Y-116760000D02*
X155967200Y-116760000D01*
X143248300Y-110640000D02*
X137068300Y-116820000D01*
X144400000Y-110640000D02*
X145551700Y-110640000D01*
G04 #@! TO.N,Net-(J1-Pin_15)*
X143824200Y-108100000D02*
X143248300Y-108100000D01*
X172658200Y-112800000D02*
X169166200Y-109308000D01*
X184800000Y-112800000D02*
X172658200Y-112800000D01*
X144400000Y-108100000D02*
X145551700Y-108100000D01*
X143824200Y-108100000D02*
X144400000Y-108100000D01*
X145551700Y-108368500D02*
X145551700Y-108100000D01*
X143248300Y-108100000D02*
X138488300Y-112860000D01*
X146491200Y-109308000D02*
X145551700Y-108368500D01*
X138488300Y-112860000D02*
X106100000Y-112860000D01*
X169166200Y-109308000D02*
X146491200Y-109308000D01*
G04 #@! TO.N,Net-(J1-Pin_22)*
X184800000Y-140520000D02*
X159923200Y-140520000D01*
X144400000Y-125880000D02*
X143248300Y-125880000D01*
X128548300Y-140580000D02*
X106100000Y-140580000D01*
X143248300Y-125880000D02*
X128548300Y-140580000D01*
X145551700Y-126148500D02*
X145551700Y-125880000D01*
X144400000Y-125880000D02*
X145551700Y-125880000D01*
X159923200Y-140520000D02*
X145551700Y-126148500D01*
G04 #@! TO.N,Net-(J1-Pin_18)*
X150994200Y-116962500D02*
X158711700Y-124680000D01*
X143824200Y-115720000D02*
X143248300Y-115720000D01*
X144400000Y-115720000D02*
X143870100Y-115720000D01*
X143870100Y-115720000D02*
X145112600Y-116962500D01*
X145112600Y-116962500D02*
X150994200Y-116962500D01*
X143824200Y-115720000D02*
X143870100Y-115720000D01*
X158711700Y-124680000D02*
X184800000Y-124680000D01*
X143248300Y-115720000D02*
X134228300Y-124740000D01*
X134228300Y-124740000D02*
X106100000Y-124740000D01*
G04 #@! TO.N,Net-(J1-Pin_14)*
X144400000Y-105560000D02*
X145551700Y-105560000D01*
X145551700Y-105828500D02*
X145551700Y-105560000D01*
X184800000Y-108840000D02*
X182790000Y-106830000D01*
X139908300Y-108900000D02*
X106100000Y-108900000D01*
X182790000Y-106830000D02*
X146553200Y-106830000D01*
X143248300Y-105560000D02*
X139908300Y-108900000D01*
X144400000Y-105560000D02*
X143248300Y-105560000D01*
X146553200Y-106830000D02*
X145551700Y-105828500D01*
G04 #@! TO.N,Net-(J1-Pin_10)*
X146415400Y-94248300D02*
X183551700Y-94248300D01*
X183551700Y-94248300D02*
X184800000Y-93000000D01*
X108440000Y-95400000D02*
X144400000Y-95400000D01*
X106100000Y-93060000D02*
X108440000Y-95400000D01*
X145551700Y-95400000D02*
X145551700Y-95112000D01*
X144400000Y-95400000D02*
X145551700Y-95400000D01*
X145551700Y-95112000D02*
X146415400Y-94248300D01*
G04 #@! TO.N,Net-(J1-Pin_19)*
X145551700Y-118260000D02*
X145551700Y-118528500D01*
X144400000Y-118260000D02*
X145551700Y-118260000D01*
X149323700Y-119530000D02*
X158433700Y-128640000D01*
X158433700Y-128640000D02*
X184800000Y-128640000D01*
X144400000Y-118260000D02*
X143248300Y-118260000D01*
X145551700Y-118528500D02*
X146553200Y-119530000D01*
X143248300Y-118260000D02*
X132808300Y-128700000D01*
X132808300Y-128700000D02*
X106100000Y-128700000D01*
X146553200Y-119530000D02*
X149323700Y-119530000D01*
G04 #@! TO.N,Net-(J1-Pin_12)*
X144400000Y-100480000D02*
X145551700Y-100480000D01*
X106100000Y-100980000D02*
X106600000Y-100480000D01*
X106600000Y-100480000D02*
X144400000Y-100480000D01*
X146430000Y-101646200D02*
X184073800Y-101646200D01*
X145551700Y-100767900D02*
X146430000Y-101646200D01*
X184073800Y-101646200D02*
X184800000Y-100920000D01*
X145551700Y-100480000D02*
X145551700Y-100767900D01*
G04 #@! TO.N,Net-(J1-Pin_4)*
X184800000Y-69240000D02*
X170681300Y-69240000D01*
X144400000Y-80160000D02*
X145551700Y-80160000D01*
X145551700Y-79891500D02*
X145551700Y-80160000D01*
X143248300Y-80160000D02*
X132388300Y-69300000D01*
X144400000Y-80160000D02*
X143248300Y-80160000D01*
X132388300Y-69300000D02*
X106100000Y-69300000D01*
X161031300Y-78890000D02*
X146553200Y-78890000D01*
X170681300Y-69240000D02*
X161031300Y-78890000D01*
X146553200Y-78890000D02*
X145551700Y-79891500D01*
G04 #@! TO.N,Net-(J1-Pin_2)*
X184800000Y-61320000D02*
X161857700Y-61320000D01*
X161857700Y-61320000D02*
X149367700Y-73810000D01*
X129548300Y-61380000D02*
X106100000Y-61380000D01*
X149367700Y-73810000D02*
X146553200Y-73810000D01*
X144400000Y-75080000D02*
X143248300Y-75080000D01*
X145551700Y-74811500D02*
X145551700Y-75080000D01*
X143248300Y-75080000D02*
X129548300Y-61380000D01*
X146553200Y-73810000D02*
X145551700Y-74811500D01*
X144400000Y-75080000D02*
X145551700Y-75080000D01*
G04 #@! TO.N,Net-(J1-Pin_3)*
X174002700Y-65280000D02*
X162935700Y-76347000D01*
X130968300Y-65340000D02*
X106100000Y-65340000D01*
X145551700Y-77351500D02*
X145551700Y-77620000D01*
X146556200Y-76347000D02*
X145551700Y-77351500D01*
X162935700Y-76347000D02*
X146556200Y-76347000D01*
X144400000Y-77620000D02*
X143248300Y-77620000D01*
X184800000Y-65280000D02*
X174002700Y-65280000D01*
X144400000Y-77620000D02*
X145551700Y-77620000D01*
X143248300Y-77620000D02*
X130968300Y-65340000D01*
G04 #@! TO.N,Net-(J1-Pin_7)*
X106100000Y-81180000D02*
X136648300Y-81180000D01*
X144400000Y-87780000D02*
X145551700Y-87780000D01*
X136648300Y-81180000D02*
X143248300Y-87780000D01*
X143824200Y-87780000D02*
X143248300Y-87780000D01*
X145551700Y-87492000D02*
X146415400Y-86628300D01*
X145551700Y-87780000D02*
X145551700Y-87492000D01*
X180414200Y-81120000D02*
X184800000Y-81120000D01*
X146415400Y-86628300D02*
X174905900Y-86628300D01*
X174905900Y-86628300D02*
X180414200Y-81120000D01*
X143824200Y-87780000D02*
X144400000Y-87780000D01*
G04 #@! TO.N,Net-(J1-Pin_1)*
X160443800Y-57360000D02*
X145551700Y-72252100D01*
X144400000Y-72540000D02*
X143248300Y-72540000D01*
X184800000Y-57360000D02*
X160443800Y-57360000D01*
X128128300Y-57420000D02*
X106100000Y-57420000D01*
X145551700Y-72252100D02*
X145551700Y-72540000D01*
X143248300Y-72540000D02*
X128128300Y-57420000D01*
X144400000Y-72540000D02*
X145551700Y-72540000D01*
G04 #@! TD*
M02*
