M48
; DRILL file {KiCad 8.0.6-8.0.6-0~ubuntu24.10.1} date 2024-10-17T08:48:10-0700
; FORMAT={-:-/ absolute / inch / decimal}
; #@! TF.CreationDate,2024-10-17T08:48:10-07:00
; #@! TF.GenerationSoftware,Kicad,Pcbnew,8.0.6-8.0.6-0~ubuntu24.10.1
; #@! TF.FileFunction,Plated,1,2,PTH
FMAT,2
INCH
; #@! TA.AperFunction,Plated,PTH,ComponentDrill
T1C0.0394
%
G90
G05
T1
X5.685Y-2.8559
X5.685Y-2.9559
X5.685Y-3.0559
X5.685Y-3.1559
X5.685Y-3.2559
X5.685Y-3.3559
X5.685Y-3.4559
X5.685Y-3.5559
X5.685Y-3.6559
X5.685Y-3.7559
X5.685Y-3.8559
X5.685Y-3.9559
X5.685Y-4.0559
X5.685Y-4.1559
X5.685Y-4.2559
X5.685Y-4.3559
X5.685Y-4.4559
X5.685Y-4.5559
X5.685Y-4.6559
X5.685Y-4.7559
X5.685Y-4.8559
X5.685Y-4.9559
X5.785Y-2.8559
X5.785Y-2.9559
X5.785Y-3.0559
X5.785Y-3.1559
X5.785Y-3.2559
X5.785Y-3.3559
X5.785Y-3.4559
X5.785Y-3.5559
X5.785Y-3.6559
X5.785Y-3.7559
X5.785Y-3.8559
X5.785Y-3.9559
X5.785Y-4.0559
X5.785Y-4.1559
X5.785Y-4.2559
X5.785Y-4.3559
X5.785Y-4.4559
X5.785Y-4.5559
X5.785Y-4.6559
X5.785Y-4.7559
X5.785Y-4.8559
X5.785Y-4.9559
M30
