G04 #@! TF.GenerationSoftware,KiCad,Pcbnew,8.0.6-8.0.6-0~ubuntu24.10.1*
G04 #@! TF.CreationDate,2024-10-17T08:48:07-07:00*
G04 #@! TF.ProjectId,kim1breakout,6b696d31-6272-4656-916b-6f75742e6b69,1.3*
G04 #@! TF.SameCoordinates,Original*
G04 #@! TF.FileFunction,Copper,L2,Bot*
G04 #@! TF.FilePolarity,Positive*
%FSLAX46Y46*%
G04 Gerber Fmt 4.6, Leading zero omitted, Abs format (unit mm)*
G04 Created by KiCad (PCBNEW 8.0.6-8.0.6-0~ubuntu24.10.1) date 2024-10-17 08:48:07*
%MOMM*%
%LPD*%
G01*
G04 APERTURE LIST*
G04 Aperture macros list*
%AMRoundRect*
0 Rectangle with rounded corners*
0 $1 Rounding radius*
0 $2 $3 $4 $5 $6 $7 $8 $9 X,Y pos of 4 corners*
0 Add a 4 corners polygon primitive as box body*
4,1,4,$2,$3,$4,$5,$6,$7,$8,$9,$2,$3,0*
0 Add four circle primitives for the rounded corners*
1,1,$1+$1,$2,$3*
1,1,$1+$1,$4,$5*
1,1,$1+$1,$6,$7*
1,1,$1+$1,$8,$9*
0 Add four rect primitives between the rounded corners*
20,1,$1+$1,$2,$3,$4,$5,0*
20,1,$1+$1,$4,$5,$6,$7,0*
20,1,$1+$1,$6,$7,$8,$9,0*
20,1,$1+$1,$8,$9,$2,$3,0*%
G04 Aperture macros list end*
G04 #@! TA.AperFunction,SMDPad,CuDef*
%ADD10RoundRect,0.500000X-3.250000X-0.500000X3.250000X-0.500000X3.250000X0.500000X-3.250000X0.500000X0*%
G04 #@! TD*
G04 #@! TA.AperFunction,ComponentPad*
%ADD11R,1.700000X1.700000*%
G04 #@! TD*
G04 #@! TA.AperFunction,ComponentPad*
%ADD12O,1.700000X1.700000*%
G04 #@! TD*
G04 #@! TA.AperFunction,Conductor*
%ADD13C,0.200000*%
G04 #@! TD*
G04 APERTURE END LIST*
D10*
G04 #@! TO.P,J1,A,Pin_A*
G04 #@! TO.N,Net-(J1-Pin_A)*
X106100000Y-57420000D03*
G04 #@! TO.P,J1,B,Pin_B*
G04 #@! TO.N,Net-(J1-Pin_B)*
X106100000Y-61380000D03*
G04 #@! TO.P,J1,C,Pin_C*
G04 #@! TO.N,Net-(J1-Pin_C)*
X106100000Y-65340000D03*
G04 #@! TO.P,J1,D,Pin_D*
G04 #@! TO.N,Net-(J1-Pin_D)*
X106100000Y-69300000D03*
G04 #@! TO.P,J1,E,Pin_E*
G04 #@! TO.N,Net-(J1-Pin_E)*
X106100000Y-73260000D03*
G04 #@! TO.P,J1,F,Pin_F*
G04 #@! TO.N,Net-(J1-Pin_F)*
X106100000Y-77220000D03*
G04 #@! TO.P,J1,H,Pin_H*
G04 #@! TO.N,Net-(J1-Pin_H)*
X106100000Y-81180000D03*
G04 #@! TO.P,J1,J,Pin_J*
G04 #@! TO.N,Net-(J1-Pin_J)*
X106100000Y-85140000D03*
G04 #@! TO.P,J1,K,Pin_K*
G04 #@! TO.N,Net-(J1-Pin_K)*
X106100000Y-89100000D03*
G04 #@! TO.P,J1,L,Pin_L*
G04 #@! TO.N,Net-(J1-Pin_L)*
X106100000Y-93060000D03*
G04 #@! TO.P,J1,M,Pin_M*
G04 #@! TO.N,Net-(J1-Pin_M)*
X106100000Y-97020000D03*
G04 #@! TO.P,J1,N,Pin_N*
G04 #@! TO.N,Net-(J1-Pin_N)*
X106100000Y-100980000D03*
G04 #@! TO.P,J1,P,Pin_P*
G04 #@! TO.N,Net-(J1-Pin_P)*
X106100000Y-104940000D03*
G04 #@! TO.P,J1,R,Pin_R*
G04 #@! TO.N,Net-(J1-Pin_R)*
X106100000Y-108900000D03*
G04 #@! TO.P,J1,S,Pin_S*
G04 #@! TO.N,Net-(J1-Pin_S)*
X106100000Y-112860000D03*
G04 #@! TO.P,J1,T,Pin_T*
G04 #@! TO.N,Net-(J1-Pin_T)*
X106100000Y-116820000D03*
G04 #@! TO.P,J1,U,Pin_U*
G04 #@! TO.N,Net-(J1-Pin_U)*
X106100000Y-120780000D03*
G04 #@! TO.P,J1,V,Pin_V*
G04 #@! TO.N,Net-(J1-Pin_V)*
X106100000Y-124740000D03*
G04 #@! TO.P,J1,W,Pin_W*
G04 #@! TO.N,Net-(J1-Pin_W)*
X106100000Y-128700000D03*
G04 #@! TO.P,J1,X,Pin_X*
G04 #@! TO.N,Net-(J1-Pin_X)*
X106100000Y-132660000D03*
G04 #@! TO.P,J1,Y,Pin_Y*
G04 #@! TO.N,Net-(J1-Pin_Y)*
X106100000Y-136620000D03*
G04 #@! TO.P,J1,Z,Pin_Z*
G04 #@! TO.N,Net-(J1-Pin_Z)*
X106100000Y-140580000D03*
G04 #@! TD*
G04 #@! TO.P,J2,A,Pin_A*
G04 #@! TO.N,Net-(J1-Pin_A)*
X184800000Y-57360000D03*
G04 #@! TO.P,J2,B,Pin_B*
G04 #@! TO.N,Net-(J1-Pin_B)*
X184800000Y-61320000D03*
G04 #@! TO.P,J2,C,Pin_C*
G04 #@! TO.N,Net-(J1-Pin_C)*
X184800000Y-65280000D03*
G04 #@! TO.P,J2,D,Pin_D*
G04 #@! TO.N,Net-(J1-Pin_D)*
X184800000Y-69240000D03*
G04 #@! TO.P,J2,E,Pin_E*
G04 #@! TO.N,Net-(J1-Pin_E)*
X184800000Y-73200000D03*
G04 #@! TO.P,J2,F,Pin_F*
G04 #@! TO.N,Net-(J1-Pin_F)*
X184800000Y-77160000D03*
G04 #@! TO.P,J2,H,Pin_H*
G04 #@! TO.N,Net-(J1-Pin_H)*
X184800000Y-81120000D03*
G04 #@! TO.P,J2,J,Pin_J*
G04 #@! TO.N,Net-(J1-Pin_J)*
X184800000Y-85080000D03*
G04 #@! TO.P,J2,K,Pin_K*
G04 #@! TO.N,Net-(J1-Pin_K)*
X184800000Y-89040000D03*
G04 #@! TO.P,J2,L,Pin_L*
G04 #@! TO.N,Net-(J1-Pin_L)*
X184800000Y-93000000D03*
G04 #@! TO.P,J2,M,Pin_M*
G04 #@! TO.N,Net-(J1-Pin_M)*
X184800000Y-96960000D03*
G04 #@! TO.P,J2,N,Pin_N*
G04 #@! TO.N,Net-(J1-Pin_N)*
X184800000Y-100920000D03*
G04 #@! TO.P,J2,P,Pin_P*
G04 #@! TO.N,Net-(J1-Pin_P)*
X184800000Y-104880000D03*
G04 #@! TO.P,J2,R,Pin_R*
G04 #@! TO.N,Net-(J1-Pin_R)*
X184800000Y-108840000D03*
G04 #@! TO.P,J2,S,Pin_S*
G04 #@! TO.N,Net-(J1-Pin_S)*
X184800000Y-112800000D03*
G04 #@! TO.P,J2,T,Pin_T*
G04 #@! TO.N,Net-(J1-Pin_T)*
X184800000Y-116760000D03*
G04 #@! TO.P,J2,U,Pin_U*
G04 #@! TO.N,Net-(J1-Pin_U)*
X184800000Y-120720000D03*
G04 #@! TO.P,J2,V,Pin_V*
G04 #@! TO.N,Net-(J1-Pin_V)*
X184800000Y-124680000D03*
G04 #@! TO.P,J2,W,Pin_W*
G04 #@! TO.N,Net-(J1-Pin_W)*
X184800000Y-128640000D03*
G04 #@! TO.P,J2,X,Pin_X*
G04 #@! TO.N,Net-(J1-Pin_X)*
X184800000Y-132600000D03*
G04 #@! TO.P,J2,Y,Pin_Y*
G04 #@! TO.N,Net-(J1-Pin_Y)*
X184800000Y-136560000D03*
G04 #@! TO.P,J2,Z,Pin_Z*
G04 #@! TO.N,Net-(J1-Pin_Z)*
X184800000Y-140520000D03*
G04 #@! TD*
D11*
G04 #@! TO.P,J3,1,Pin_1*
G04 #@! TO.N,Net-(J1-Pin_1)*
X144400000Y-72540000D03*
D12*
G04 #@! TO.P,J3,2,Pin_2*
G04 #@! TO.N,Net-(J1-Pin_2)*
X144400000Y-75080000D03*
G04 #@! TO.P,J3,3,Pin_3*
G04 #@! TO.N,Net-(J1-Pin_3)*
X144400000Y-77620000D03*
G04 #@! TO.P,J3,4,Pin_4*
G04 #@! TO.N,Net-(J1-Pin_4)*
X144400000Y-80160000D03*
G04 #@! TO.P,J3,5,Pin_5*
G04 #@! TO.N,Net-(J1-Pin_5)*
X144400000Y-82700000D03*
G04 #@! TO.P,J3,6,Pin_6*
G04 #@! TO.N,Net-(J1-Pin_6)*
X144400000Y-85240000D03*
G04 #@! TO.P,J3,7,Pin_7*
G04 #@! TO.N,Net-(J1-Pin_7)*
X144400000Y-87780000D03*
G04 #@! TO.P,J3,8,Pin_8*
G04 #@! TO.N,Net-(J1-Pin_8)*
X144400000Y-90320000D03*
G04 #@! TO.P,J3,9,Pin_9*
G04 #@! TO.N,Net-(J1-Pin_9)*
X144400000Y-92860000D03*
G04 #@! TO.P,J3,10,Pin_10*
G04 #@! TO.N,Net-(J1-Pin_10)*
X144400000Y-95400000D03*
G04 #@! TO.P,J3,11,Pin_11*
G04 #@! TO.N,Net-(J1-Pin_11)*
X144400000Y-97940000D03*
G04 #@! TO.P,J3,12,Pin_12*
G04 #@! TO.N,Net-(J1-Pin_12)*
X144400000Y-100480000D03*
G04 #@! TO.P,J3,13,Pin_13*
G04 #@! TO.N,Net-(J1-Pin_13)*
X144400000Y-103020000D03*
G04 #@! TO.P,J3,14,Pin_14*
G04 #@! TO.N,Net-(J1-Pin_14)*
X144400000Y-105560000D03*
G04 #@! TO.P,J3,15,Pin_15*
G04 #@! TO.N,Net-(J1-Pin_15)*
X144400000Y-108100000D03*
G04 #@! TO.P,J3,16,Pin_16*
G04 #@! TO.N,Net-(J1-Pin_16)*
X144400000Y-110640000D03*
G04 #@! TO.P,J3,17,Pin_17*
G04 #@! TO.N,Net-(J1-Pin_17)*
X144400000Y-113180000D03*
G04 #@! TO.P,J3,18,Pin_18*
G04 #@! TO.N,Net-(J1-Pin_18)*
X144400000Y-115720000D03*
G04 #@! TO.P,J3,19,Pin_19*
G04 #@! TO.N,Net-(J1-Pin_19)*
X144400000Y-118260000D03*
G04 #@! TO.P,J3,20,Pin_20*
G04 #@! TO.N,Net-(J1-Pin_20)*
X144400000Y-120800000D03*
G04 #@! TO.P,J3,21,Pin_21*
G04 #@! TO.N,Net-(J1-Pin_21)*
X144400000Y-123340000D03*
G04 #@! TO.P,J3,22,Pin_22*
G04 #@! TO.N,Net-(J1-Pin_22)*
X144400000Y-125880000D03*
G04 #@! TO.P,J3,A,Pin_A*
G04 #@! TO.N,Net-(J1-Pin_A)*
X146940000Y-72540000D03*
G04 #@! TO.P,J3,B,Pin_B*
G04 #@! TO.N,Net-(J1-Pin_B)*
X146940000Y-75080000D03*
G04 #@! TO.P,J3,C,Pin_C*
G04 #@! TO.N,Net-(J1-Pin_C)*
X146940000Y-77620000D03*
G04 #@! TO.P,J3,D,Pin_D*
G04 #@! TO.N,Net-(J1-Pin_D)*
X146940000Y-80160000D03*
G04 #@! TO.P,J3,E,Pin_E*
G04 #@! TO.N,Net-(J1-Pin_E)*
X146940000Y-82700000D03*
G04 #@! TO.P,J3,F,Pin_F*
G04 #@! TO.N,Net-(J1-Pin_F)*
X146940000Y-85240000D03*
G04 #@! TO.P,J3,H,Pin_H*
G04 #@! TO.N,Net-(J1-Pin_H)*
X146940000Y-87780000D03*
G04 #@! TO.P,J3,J,Pin_J*
G04 #@! TO.N,Net-(J1-Pin_J)*
X146940000Y-90320000D03*
G04 #@! TO.P,J3,K,Pin_K*
G04 #@! TO.N,Net-(J1-Pin_K)*
X146940000Y-92860000D03*
G04 #@! TO.P,J3,L,Pin_L*
G04 #@! TO.N,Net-(J1-Pin_L)*
X146940000Y-95400000D03*
G04 #@! TO.P,J3,M,Pin_M*
G04 #@! TO.N,Net-(J1-Pin_M)*
X146940000Y-97940000D03*
G04 #@! TO.P,J3,N,Pin_N*
G04 #@! TO.N,Net-(J1-Pin_N)*
X146940000Y-100480000D03*
G04 #@! TO.P,J3,P,Pin_P*
G04 #@! TO.N,Net-(J1-Pin_P)*
X146940000Y-103020000D03*
G04 #@! TO.P,J3,R,Pin_R*
G04 #@! TO.N,Net-(J1-Pin_R)*
X146940000Y-105560000D03*
G04 #@! TO.P,J3,S,Pin_S*
G04 #@! TO.N,Net-(J1-Pin_S)*
X146940000Y-108100000D03*
G04 #@! TO.P,J3,T,Pin_T*
G04 #@! TO.N,Net-(J1-Pin_T)*
X146940000Y-110640000D03*
G04 #@! TO.P,J3,U,Pin_U*
G04 #@! TO.N,Net-(J1-Pin_U)*
X146940000Y-113180000D03*
G04 #@! TO.P,J3,V,Pin_V*
G04 #@! TO.N,Net-(J1-Pin_V)*
X146940000Y-115720000D03*
G04 #@! TO.P,J3,W,Pin_W*
G04 #@! TO.N,Net-(J1-Pin_W)*
X146940000Y-118260000D03*
G04 #@! TO.P,J3,X,Pin_X*
G04 #@! TO.N,Net-(J1-Pin_X)*
X146940000Y-120800000D03*
G04 #@! TO.P,J3,Y,Pin_Y*
G04 #@! TO.N,Net-(J1-Pin_Y)*
X146940000Y-123340000D03*
G04 #@! TO.P,J3,Z,Pin_Z*
G04 #@! TO.N,Net-(J1-Pin_Z)*
X146940000Y-125880000D03*
G04 #@! TD*
D13*
G04 #@! TO.N,Net-(J1-Pin_A)*
X132971700Y-57420000D02*
X106100000Y-57420000D01*
X146940000Y-71388300D02*
X132971700Y-57420000D01*
X184800000Y-57360000D02*
X160968300Y-57360000D01*
X160968300Y-57360000D02*
X146940000Y-71388300D01*
X146940000Y-72540000D02*
X146940000Y-71388300D01*
G04 #@! TO.N,Net-(J1-Pin_K)*
X146940000Y-92860000D02*
X148091700Y-92860000D01*
X151911700Y-89040000D02*
X184800000Y-89040000D01*
X146940000Y-92860000D02*
X145788300Y-92860000D01*
X144828200Y-91631400D02*
X145788300Y-92591500D01*
X148091700Y-92860000D02*
X151911700Y-89040000D01*
X145788300Y-92591500D02*
X145788300Y-92860000D01*
X106100000Y-89100000D02*
X108631400Y-91631400D01*
X108631400Y-91631400D02*
X144828200Y-91631400D01*
G04 #@! TO.N,Net-(J1-Pin_D)*
X146940000Y-78921900D02*
X149061600Y-78921900D01*
X143046500Y-78921900D02*
X146940000Y-78921900D01*
X146940000Y-80160000D02*
X146940000Y-79008300D01*
X133424600Y-69300000D02*
X143046500Y-78921900D01*
X158743500Y-69240000D02*
X184800000Y-69240000D01*
X146940000Y-79008300D02*
X146940000Y-78921900D01*
X149061600Y-78921900D02*
X158743500Y-69240000D01*
X106100000Y-69300000D02*
X133424600Y-69300000D01*
G04 #@! TO.N,Net-(J1-Pin_V)*
X146940000Y-115720000D02*
X147470000Y-115720000D01*
X147515900Y-115720000D02*
X147470000Y-115720000D01*
X157051700Y-124680000D02*
X148091700Y-115720000D01*
X142959500Y-116898700D02*
X135118200Y-124740000D01*
X184800000Y-124680000D02*
X157051700Y-124680000D01*
X146291300Y-116898700D02*
X142959500Y-116898700D01*
X147515900Y-115720000D02*
X148091700Y-115720000D01*
X135118200Y-124740000D02*
X106100000Y-124740000D01*
X147470000Y-115720000D02*
X146291300Y-116898700D01*
G04 #@! TO.N,Net-(J1-Pin_S)*
X152791700Y-112800000D02*
X184800000Y-112800000D01*
X146940000Y-108100000D02*
X145788300Y-108100000D01*
X144924600Y-109251700D02*
X141811500Y-109251700D01*
X138203200Y-112860000D02*
X106100000Y-112860000D01*
X141811500Y-109251700D02*
X138203200Y-112860000D01*
X145788300Y-108100000D02*
X145788300Y-108388000D01*
X145788300Y-108388000D02*
X144924600Y-109251700D01*
X146940000Y-108100000D02*
X148091700Y-108100000D01*
X148091700Y-108100000D02*
X152791700Y-112800000D01*
G04 #@! TO.N,Net-(J1-Pin_U)*
X155631700Y-120720000D02*
X184800000Y-120720000D01*
X144924600Y-114331700D02*
X141619600Y-114331700D01*
X146940000Y-113180000D02*
X145788300Y-113180000D01*
X141619600Y-114331700D02*
X135171300Y-120780000D01*
X147515900Y-113180000D02*
X148091700Y-113180000D01*
X145788300Y-113468000D02*
X144924600Y-114331700D01*
X147515900Y-113180000D02*
X146940000Y-113180000D01*
X145788300Y-113180000D02*
X145788300Y-113468000D01*
X148091700Y-113180000D02*
X155631700Y-120720000D01*
X135171300Y-120780000D02*
X106100000Y-120780000D01*
G04 #@! TO.N,Net-(J1-Pin_F)*
X146940000Y-85240000D02*
X148091700Y-85240000D01*
X146387300Y-85240000D02*
X145788300Y-85240000D01*
X106100000Y-77220000D02*
X136108400Y-77220000D01*
X144786800Y-83970000D02*
X145788300Y-84971500D01*
X136108400Y-77220000D02*
X142858400Y-83970000D01*
X146387300Y-85240000D02*
X146940000Y-85240000D01*
X148091700Y-85240000D02*
X156171700Y-77160000D01*
X142858400Y-83970000D02*
X144786800Y-83970000D01*
X156171700Y-77160000D02*
X184800000Y-77160000D01*
X145788300Y-84971500D02*
X145788300Y-85240000D01*
G04 #@! TO.N,Net-(J1-Pin_L)*
X145788300Y-95400000D02*
X145788300Y-95112000D01*
X144924600Y-94248300D02*
X107288300Y-94248300D01*
X145788300Y-95112000D02*
X144924600Y-94248300D01*
X146940000Y-95400000D02*
X145788300Y-95400000D01*
X107288300Y-94248300D02*
X106100000Y-93060000D01*
X184800000Y-93000000D02*
X182400000Y-95400000D01*
X182400000Y-95400000D02*
X146940000Y-95400000D01*
G04 #@! TO.N,Net-(J1-Pin_P)*
X182940000Y-103020000D02*
X146940000Y-103020000D01*
X106868300Y-104171700D02*
X106100000Y-104940000D01*
X184800000Y-104880000D02*
X182940000Y-103020000D01*
X144924600Y-104171700D02*
X106868300Y-104171700D01*
X146940000Y-103020000D02*
X145788300Y-103020000D01*
X145788300Y-103308000D02*
X144924600Y-104171700D01*
X145788300Y-103020000D02*
X145788300Y-103308000D01*
G04 #@! TO.N,Net-(J1-Pin_Z)*
X131376200Y-140580000D02*
X106100000Y-140580000D01*
X146940000Y-125880000D02*
X147515900Y-125880000D01*
X145788300Y-126167900D02*
X131376200Y-140580000D01*
X146940000Y-125880000D02*
X145788300Y-125880000D01*
X162731700Y-140520000D02*
X184800000Y-140520000D01*
X145788300Y-125880000D02*
X145788300Y-126167900D01*
X147515900Y-125880000D02*
X148091700Y-125880000D01*
X148091700Y-125880000D02*
X162731700Y-140520000D01*
G04 #@! TO.N,Net-(J1-Pin_Y)*
X147389800Y-124610000D02*
X159339800Y-136560000D01*
X106100000Y-136620000D02*
X131084100Y-136620000D01*
X146940000Y-123340000D02*
X146940000Y-124491700D01*
X146940000Y-124610000D02*
X147389800Y-124610000D01*
X159339800Y-136560000D02*
X184800000Y-136560000D01*
X143094100Y-124610000D02*
X146940000Y-124610000D01*
X146940000Y-124491700D02*
X146940000Y-124610000D01*
X131084100Y-136620000D02*
X143094100Y-124610000D01*
G04 #@! TO.N,Net-(J1-Pin_E)*
X155560800Y-73201600D02*
X184798500Y-73201600D01*
X106100000Y-73260000D02*
X134959300Y-73260000D01*
X184798500Y-73201600D02*
X184798500Y-73201500D01*
X146940000Y-81822400D02*
X155560800Y-73201600D01*
X146940000Y-82700000D02*
X146940000Y-81822400D01*
X134959300Y-73260000D02*
X143011000Y-81311700D01*
X146429300Y-81311700D02*
X146940000Y-81822400D01*
X184798500Y-73201500D02*
X184800000Y-73200000D01*
X143011000Y-81311700D02*
X146429300Y-81311700D01*
G04 #@! TO.N,Net-(J1-Pin_T)*
X143023700Y-111791700D02*
X137995400Y-116820000D01*
X137995400Y-116820000D02*
X106100000Y-116820000D01*
X147515900Y-110640000D02*
X148091700Y-110640000D01*
X148091700Y-110640000D02*
X154211700Y-116760000D01*
X154211700Y-116760000D02*
X184800000Y-116760000D01*
X147515900Y-110640000D02*
X146940000Y-110640000D01*
X146940000Y-110640000D02*
X145788300Y-110640000D01*
X145788300Y-110928000D02*
X144924600Y-111791700D01*
X145788300Y-110640000D02*
X145788300Y-110928000D01*
X144924600Y-111791700D02*
X143023700Y-111791700D01*
G04 #@! TO.N,Net-(J1-Pin_X)*
X148091700Y-120800000D02*
X159891700Y-132600000D01*
X146364200Y-120800000D02*
X146940000Y-120800000D01*
X145788300Y-120800000D02*
X145788300Y-121088000D01*
X145788300Y-121088000D02*
X144924600Y-121951700D01*
X146364200Y-120800000D02*
X145788300Y-120800000D01*
X142800200Y-121951700D02*
X132091900Y-132660000D01*
X132091900Y-132660000D02*
X106100000Y-132660000D01*
X159891700Y-132600000D02*
X184800000Y-132600000D01*
X146940000Y-120800000D02*
X148091700Y-120800000D01*
X144924600Y-121951700D02*
X142800200Y-121951700D01*
G04 #@! TO.N,Net-(J1-Pin_N)*
X145788300Y-100767900D02*
X144902500Y-101653700D01*
X106773700Y-101653700D02*
X106100000Y-100980000D01*
X145788300Y-100480000D02*
X145788300Y-100767900D01*
X184800000Y-100920000D02*
X184360000Y-100480000D01*
X184360000Y-100480000D02*
X146940000Y-100480000D01*
X144902500Y-101653700D02*
X106773700Y-101653700D01*
X146940000Y-100480000D02*
X145788300Y-100480000D01*
G04 #@! TO.N,Net-(J1-Pin_W)*
X156499800Y-128640000D02*
X184800000Y-128640000D01*
X146940000Y-118260000D02*
X146940000Y-119411700D01*
X147389800Y-119530000D02*
X156499800Y-128640000D01*
X146940000Y-119411700D02*
X146940000Y-119530000D01*
X143249800Y-119530000D02*
X146940000Y-119530000D01*
X106100000Y-128700000D02*
X134079800Y-128700000D01*
X134079800Y-128700000D02*
X143249800Y-119530000D01*
X146940000Y-119530000D02*
X147389800Y-119530000D01*
G04 #@! TO.N,Net-(J1-Pin_H)*
X155527500Y-81120000D02*
X184800000Y-81120000D01*
X138098000Y-81180000D02*
X143473500Y-86555500D01*
X143473500Y-86555500D02*
X146940000Y-86555500D01*
X146940000Y-86555500D02*
X146940000Y-86628300D01*
X150092000Y-86555500D02*
X155527500Y-81120000D01*
X146940000Y-86555500D02*
X150092000Y-86555500D01*
X146940000Y-87780000D02*
X146940000Y-86628300D01*
X106100000Y-81180000D02*
X138098000Y-81180000D01*
G04 #@! TO.N,Net-(J1-Pin_M)*
X144925800Y-96788300D02*
X145788300Y-97650800D01*
X146940000Y-97940000D02*
X145788300Y-97940000D01*
X106100000Y-97020000D02*
X106331700Y-96788300D01*
X145788300Y-97650800D02*
X145788300Y-97940000D01*
X184800000Y-96960000D02*
X183820000Y-97940000D01*
X183820000Y-97940000D02*
X146940000Y-97940000D01*
X106331700Y-96788300D02*
X144925800Y-96788300D01*
G04 #@! TO.N,Net-(J1-Pin_J)*
X148091700Y-90320000D02*
X153331700Y-85080000D01*
X146364200Y-90320000D02*
X145788300Y-90320000D01*
X139183600Y-85140000D02*
X143033600Y-88990000D01*
X145788300Y-90051500D02*
X145788300Y-90320000D01*
X153331700Y-85080000D02*
X184800000Y-85080000D01*
X144726800Y-88990000D02*
X145788300Y-90051500D01*
X143033600Y-88990000D02*
X144726800Y-88990000D01*
X146940000Y-90320000D02*
X148091700Y-90320000D01*
X106100000Y-85140000D02*
X139183600Y-85140000D01*
X146364200Y-90320000D02*
X146940000Y-90320000D01*
G04 #@! TO.N,Net-(J1-Pin_C)*
X158459800Y-65280000D02*
X184800000Y-65280000D01*
X146940000Y-76350000D02*
X147389800Y-76350000D01*
X132239800Y-65340000D02*
X143249800Y-76350000D01*
X147389800Y-76350000D02*
X158459800Y-65280000D01*
X146940000Y-77620000D02*
X146940000Y-76468300D01*
X106100000Y-65340000D02*
X132239800Y-65340000D01*
X146940000Y-76468300D02*
X146940000Y-76350000D01*
X143249800Y-76350000D02*
X146940000Y-76350000D01*
G04 #@! TO.N,Net-(J1-Pin_B)*
X146940000Y-75080000D02*
X148091700Y-75080000D01*
X142462100Y-73750000D02*
X144726800Y-73750000D01*
X144726800Y-73750000D02*
X145788300Y-74811500D01*
X184800000Y-61320000D02*
X161851700Y-61320000D01*
X130092100Y-61380000D02*
X142462100Y-73750000D01*
X145788300Y-74811500D02*
X145788300Y-75080000D01*
X106100000Y-61380000D02*
X130092100Y-61380000D01*
X146940000Y-75080000D02*
X145788300Y-75080000D01*
X161851700Y-61320000D02*
X148091700Y-75080000D01*
G04 #@! TO.N,Net-(J1-Pin_R)*
X148750800Y-106219100D02*
X148091700Y-105560000D01*
X144731600Y-106885200D02*
X145788300Y-105828500D01*
X182179100Y-106219100D02*
X148750800Y-106219100D01*
X146940000Y-105560000D02*
X148091700Y-105560000D01*
X108114800Y-106885200D02*
X144731600Y-106885200D01*
X146940000Y-105560000D02*
X145788300Y-105560000D01*
X184800000Y-108840000D02*
X182179100Y-106219100D01*
X106100000Y-108900000D02*
X108114800Y-106885200D01*
X145788300Y-105828500D02*
X145788300Y-105560000D01*
G04 #@! TD*
M02*
